<svg width="19" height="14" viewBox="0 0 19 14" fill="currentColor" xmlns="http://www.w3.org/2000/svg">
<path d="M15.4195 1.82586C14.2824 1.32568 13.0626 0.957151 11.7874 0.745987C11.7641 0.741978 11.7411 0.752002 11.7292 0.772383C11.5724 1.04001 11.3985 1.38883 11.2769 1.66315C9.9055 1.46635 8.54076 1.46635 7.19762 1.66315C7.07599 1.38282 6.89582 1.04001 6.73829 0.772717C6.72645 0.753004 6.70309 0.74298 6.67975 0.746321C5.40527 0.956817 4.18585 1.32535 3.04763 1.8262C3.03788 1.83021 3.02916 1.83689 3.02359 1.84591C0.710914 5.15871 0.0773334 8.39064 0.388199 11.5825C0.389593 11.5982 0.398654 11.6129 0.411549 11.6226C1.93765 12.6971 3.416 13.3493 4.86718 13.782C4.89052 13.7887 4.91492 13.7807 4.92991 13.7623C5.27318 13.3129 5.57917 12.8391 5.84124 12.3409C5.85658 12.3119 5.84194 12.2771 5.81023 12.2654C5.32476 12.089 4.86299 11.8738 4.4183 11.6293C4.3831 11.6096 4.38031 11.5614 4.41273 11.5384C4.50612 11.4712 4.59987 11.4014 4.68909 11.3306C4.70512 11.3175 4.72777 11.3149 4.74659 11.3232C7.66671 12.6016 10.8283 12.6016 13.714 11.3232C13.7331 11.3145 13.7554 11.3172 13.7722 11.3299C13.8614 11.4004 13.9551 11.4712 14.0492 11.5384C14.0816 11.5614 14.0795 11.6096 14.0443 11.6293C13.5996 11.8785 13.1379 12.0887 12.6517 12.2648C12.62 12.2765 12.6061 12.3115 12.6214 12.3406C12.8894 12.8381 13.1954 13.3119 13.532 13.7613C13.546 13.7803 13.5714 13.7883 13.5948 13.7817C15.0526 13.3493 16.5313 12.6968 18.0574 11.6223C18.0706 11.6129 18.0793 11.5985 18.0807 11.5828C18.4529 7.89281 17.4576 4.68726 15.4425 1.84591C15.4377 1.83655 15.4293 1.82954 15.4195 1.82553V1.82586ZM6.27687 9.63892C5.3976 9.63892 4.67341 8.8651 4.67341 7.91486C4.67341 6.96462 5.38366 6.1908 6.27687 6.1908C7.17009 6.1908 7.89463 6.97131 7.88034 7.91486C7.88034 8.8651 7.17009 9.63892 6.27687 9.63892ZM12.206 9.63892C11.3267 9.63892 10.6025 8.8651 10.6025 7.91486C10.6025 6.96462 11.3128 6.1908 12.206 6.1908C13.0992 6.1908 13.8237 6.97131 13.8094 7.91486C13.8094 8.8651 13.1062 9.63892 12.206 9.63892Z" />
</svg>
