<svg width="17" height="11" viewBox="0 0 17 11" fill="currentColor" xmlns="http://www.w3.org/2000/svg">
<path d="M4.67948 10.0985C7.26334 10.0985 9.35798 8.0179 9.35798 5.45135C9.35798 2.8848 7.26334 0.804199 4.67948 0.804199C2.09561 0.804199 0.000976562 2.8848 0.000976562 5.45135C0.000976562 8.0179 2.09561 10.0985 4.67948 10.0985Z" />
<path d="M12.143 9.8539C13.4372 9.8539 14.4864 7.88271 14.4864 5.45112C14.4864 3.01953 13.4372 1.04834 12.143 1.04834C10.8487 1.04834 9.79956 3.01953 9.79956 5.45112C9.79956 7.88271 10.8487 9.8539 12.143 9.8539Z" />
<path d="M15.7629 9.39826C16.2165 9.39826 16.5843 7.63105 16.5843 5.45108C16.5843 3.27112 16.2165 1.50391 15.7629 1.50391C15.3092 1.50391 14.9414 3.27112 14.9414 5.45108C14.9414 7.63105 15.3092 9.39826 15.7629 9.39826Z" />
</svg>
