<svg width="17" height="15" viewBox="0 0 17 15" fill="currentColor" xmlns="http://www.w3.org/2000/svg">
<path d="M16.3973 1.78801C15.8742 2.03759 15.2974 2.19359 14.7304 2.29238C14.9992 2.24558 15.3903 1.73081 15.5516 1.51762C15.7911 1.20044 15.9915 0.83646 16.104 0.446481C16.1186 0.415283 16.1284 0.378885 16.104 0.352886C16.0698 0.337287 16.0453 0.347687 16.016 0.358086C15.3854 0.716866 14.7353 0.976852 14.0412 1.16404C13.9825 1.17964 13.9434 1.16404 13.9043 1.12764C13.8456 1.06005 13.7919 0.992451 13.7332 0.940454C13.4399 0.675269 13.1271 0.46728 12.7751 0.316488C12.3108 0.113699 11.8073 0.030504 11.3087 0.066902C10.8247 0.0981003 10.3457 0.243692 9.91554 0.482879C9.48538 0.722066 9.09921 1.05485 8.79126 1.46043C8.47353 1.8764 8.2389 2.37038 8.12158 2.89035C8.00426 3.39472 8.01404 3.88869 8.08736 4.39826C8.09714 4.48146 8.08736 4.49186 8.01893 4.48146C5.30599 4.04988 3.05743 3.02034 1.23414 0.810461C1.15593 0.716866 1.11194 0.716866 1.04839 0.815661C0.251617 2.08959 0.637781 4.13308 1.63497 5.14182C1.76695 5.27702 1.90382 5.41221 2.05047 5.5318C1.9967 5.5422 1.3319 5.46941 0.740432 5.14182C0.662221 5.08983 0.623118 5.12102 0.613342 5.21462C0.608454 5.34981 0.613339 5.47981 0.632891 5.6254C0.784425 6.91493 1.62519 8.11086 2.7788 8.57364C2.91567 8.63603 3.06721 8.68803 3.21386 8.71403C2.94989 8.77642 2.68104 8.81802 1.92826 8.75563C1.83539 8.73483 1.80117 8.78682 1.83539 8.88042C2.40241 10.5183 3.61957 11.0071 4.53366 11.2827C4.65587 11.3035 4.77807 11.3035 4.90027 11.3347C4.8905 11.3451 4.88561 11.3451 4.88072 11.3555C4.57765 11.8443 3.5267 12.2134 3.03788 12.3954C2.14823 12.7282 1.18037 12.8738 0.241843 12.775C0.0903099 12.749 0.0609776 12.7542 0.016984 12.775C-0.0221214 12.801 0.012094 12.8426 0.0609758 12.8842C0.251615 13.0194 0.447143 13.139 0.64267 13.2534C1.23903 13.5914 1.85983 13.8565 2.51484 14.0489C5.87791 15.0369 9.66135 14.3089 12.1885 11.6415C14.1683 9.54598 14.8673 6.66014 14.8673 3.7639C14.8673 3.64951 14.9944 3.58711 15.0677 3.52991C15.5858 3.11913 16.0013 2.62516 16.3826 2.07399C16.4706 1.9492 16.4706 1.84 16.4706 1.79321V1.77761C16.4706 1.73081 16.4706 1.74641 16.4022 1.77761L16.3973 1.78801Z" />
</svg>
