<svg width="19" height="13" viewBox="0 0 19 13" fill="currentColor" xmlns="http://www.w3.org/2000/svg">
<path d="M17.8979 10.6066C17.6977 11.3508 17.111 11.9374 16.3669 12.1378C15.0075 12.5098 9.56997 12.5098 9.56997 12.5098C9.56997 12.5098 4.13263 12.5098 2.77327 12.1519C2.04349 11.9518 1.44243 11.3507 1.24225 10.6066C0.884521 9.24734 0.884521 6.42842 0.884521 6.42842C0.884521 6.42842 0.884521 3.5953 1.24225 2.25025C1.44264 1.50616 2.02918 0.919518 2.77338 0.719129C4.14695 0.347083 9.57018 0.347083 9.57018 0.347083C9.57018 0.347083 15.0075 0.347083 16.3669 0.704921C17.1111 0.905205 17.6977 1.49185 17.8981 2.23594C18.2557 3.5953 18.2557 6.41411 18.2557 6.41411C18.2557 6.41411 18.2701 9.24734 17.8979 10.6066ZM7.83878 3.82421V9.03264L12.3604 6.42842L7.83878 3.82421Z" />
</svg>
