<svg width="32" height="32" viewBox="0 0 32 32" fill="none" xmlns="http://www.w3.org/2000/svg">
<g filter="url(#filter0_i)">
<path d="M20 23V29C20 29.5304 19.7893 30.0391 19.4142 30.4142C19.0391 30.7893 18.5304 31 18 31H14C13.4696 31 12.9609 30.7893 12.5858 30.4142C12.2107 30.0391 12 29.5304 12 29V23" fill="white"/>
</g>
<path d="M20 23V29C20 29.5304 19.7893 30.0391 19.4142 30.4142C19.0391 30.7893 18.5304 31 18 31H14C13.4696 31 12.9609 30.7893 12.5858 30.4142C12.2107 30.0391 12 29.5304 12 29V23" stroke="#375BD2" stroke-width="1.5" stroke-linecap="round" stroke-linejoin="round"/>
<path d="M12 27H20" stroke="#375BD2" stroke-width="1.5" stroke-linecap="round" stroke-linejoin="round"/>
<path d="M16 1V3" stroke="#375BD2" stroke-width="1.5" stroke-linecap="round" stroke-linejoin="round"/>
<path d="M2 15H4" stroke="#375BD2" stroke-width="1.5" stroke-linecap="round" stroke-linejoin="round"/>
<path d="M5 5L6.46667 6.40933" stroke="#375BD2" stroke-width="1.5" stroke-linecap="round" stroke-linejoin="round"/>
<path d="M30 15H28" stroke="#375BD2" stroke-width="1.5" stroke-linecap="round" stroke-linejoin="round"/>
<path d="M27 5L25.5333 6.40933" stroke="#375BD2" stroke-width="1.5" stroke-linecap="round" stroke-linejoin="round"/>
<g filter="url(#filter1_i)">
<path d="M11.8867 23H20.1133C21.599 22.2626 22.846 21.1203 23.7106 19.7049C24.5752 18.2894 25.0222 16.6585 25 15C24.9579 12.6262 23.9962 10.3614 22.3174 8.68263C20.6386 7.00385 18.3738 6.04211 16 6C13.6253 6.04215 11.3597 7.00463 9.68081 8.68455C8.00188 10.3645 7.04075 12.6306 7 15.0053C6.97884 16.6629 7.4263 18.2927 8.29084 19.7071C9.15537 21.1215 10.4018 22.263 11.8867 23Z" fill="white"/>
</g>
<path d="M11.8867 23H20.1133C21.599 22.2626 22.846 21.1203 23.7106 19.7049C24.5752 18.2894 25.0222 16.6585 25 15C24.9579 12.6262 23.9962 10.3614 22.3174 8.68263C20.6386 7.00385 18.3738 6.04211 16 6C13.6253 6.04215 11.3597 7.00463 9.68081 8.68455C8.00188 10.3645 7.04075 12.6306 7 15.0053C6.97884 16.6629 7.4263 18.2927 8.29084 19.7071C9.15537 21.1215 10.4018 22.263 11.8867 23Z" stroke="#375BD2" stroke-width="1.5" stroke-linecap="round" stroke-linejoin="round"/>
<path d="M18 23V15C18 14.6044 18.1173 14.2178 18.3371 13.8889C18.5568 13.56 18.8692 13.3036 19.2346 13.1522C19.6001 13.0009 20.0022 12.9613 20.3902 13.0384C20.7781 13.1156 21.1345 13.3061 21.4142 13.5858C21.6939 13.8655 21.8844 14.2219 21.9616 14.6098C22.0387 14.9978 21.9991 15.3999 21.8478 15.7654C21.6964 16.1308 21.44 16.4432 21.1111 16.6629C20.7822 16.8827 20.3956 17 20 17H12C11.6044 17 11.2178 16.8827 10.8889 16.6629C10.56 16.4432 10.3036 16.1308 10.1522 15.7654C10.0009 15.3999 9.96126 14.9978 10.0384 14.6098C10.1156 14.2219 10.3061 13.8655 10.5858 13.5858C10.8655 13.3061 11.2219 13.1156 11.6098 13.0384C11.9978 12.9613 12.3999 13.0009 12.7654 13.1522C13.1308 13.3036 13.4432 13.56 13.6629 13.8889C13.8827 14.2178 14 14.6044 14 15V23" stroke="#375BD2" stroke-width="1.5" stroke-linecap="round" stroke-linejoin="round"/>
<defs>
<filter id="filter0_i" x="11.25" y="22.25" width="9.5" height="9.5" filterUnits="userSpaceOnUse" color-interpolation-filters="sRGB">
<feFlood flood-opacity="0" result="BackgroundImageFix"/>
<feBlend mode="normal" in="SourceGraphic" in2="BackgroundImageFix" result="shape"/>
<feColorMatrix in="SourceAlpha" type="matrix" values="0 0 0 0 0 0 0 0 0 0 0 0 0 0 0 0 0 0 127 0" result="hardAlpha"/>
<feOffset dx="-3"/>
<feComposite in2="hardAlpha" operator="arithmetic" k2="-1" k3="1"/>
<feColorMatrix type="matrix" values="0 0 0 0 0.87451 0 0 0 0 0.905882 0 0 0 0 0.984314 0 0 0 1 0"/>
<feBlend mode="normal" in2="shape" result="effect1_innerShadow"/>
</filter>
<filter id="filter1_i" x="6.24928" y="5.25" width="19.5015" height="18.5" filterUnits="userSpaceOnUse" color-interpolation-filters="sRGB">
<feFlood flood-opacity="0" result="BackgroundImageFix"/>
<feBlend mode="normal" in="SourceGraphic" in2="BackgroundImageFix" result="shape"/>
<feColorMatrix in="SourceAlpha" type="matrix" values="0 0 0 0 0 0 0 0 0 0 0 0 0 0 0 0 0 0 127 0" result="hardAlpha"/>
<feOffset dx="-3" dy="1"/>
<feComposite in2="hardAlpha" operator="arithmetic" k2="-1" k3="1"/>
<feColorMatrix type="matrix" values="0 0 0 0 0.87451 0 0 0 0 0.905882 0 0 0 0 0.984314 0 0 0 1 0"/>
<feBlend mode="normal" in2="shape" result="effect1_innerShadow"/>
</filter>
</defs>
</svg>
