<svg width="32" height="32" viewBox="0 0 32 32" fill="none" xmlns="http://www.w3.org/2000/svg">
<g filter="url(#filter0_i)">
<path d="M28 24.9973C29.6569 24.9973 31 23.6542 31 21.9973C31 20.3405 29.6569 18.9973 28 18.9973C26.3431 18.9973 25 20.3405 25 21.9973C25 23.6542 26.3431 24.9973 28 24.9973Z" fill="white"/>
</g>
<path d="M28 24.9973C29.6569 24.9973 31 23.6542 31 21.9973C31 20.3405 29.6569 18.9973 28 18.9973C26.3431 18.9973 25 20.3405 25 21.9973C25 23.6542 26.3431 24.9973 28 24.9973Z" stroke="#375BD2" stroke-width="1.5" stroke-linecap="round" stroke-linejoin="round"/>
<g filter="url(#filter1_i)">
<path d="M16 30.9973C17.6569 30.9973 19 29.6542 19 27.9973C19 26.3405 17.6569 24.9973 16 24.9973C14.3431 24.9973 13 26.3405 13 27.9973C13 29.6542 14.3431 30.9973 16 30.9973Z" fill="white"/>
</g>
<path d="M16 30.9973C17.6569 30.9973 19 29.6542 19 27.9973C19 26.3405 17.6569 24.9973 16 24.9973C14.3431 24.9973 13 26.3405 13 27.9973C13 29.6542 14.3431 30.9973 16 30.9973Z" stroke="#375BD2" stroke-width="1.5" stroke-linecap="round" stroke-linejoin="round"/>
<g filter="url(#filter2_i)">
<path d="M16 19C17.6569 19 19 17.6569 19 16C19 14.3431 17.6569 13 16 13C14.3431 13 13 14.3431 13 16C13 17.6569 14.3431 19 16 19Z" fill="white"/>
</g>
<path d="M16 19C17.6569 19 19 17.6569 19 16C19 14.3431 17.6569 13 16 13C14.3431 13 13 14.3431 13 16C13 17.6569 14.3431 19 16 19Z" stroke="#375BD2" stroke-width="1.5" stroke-linecap="round" stroke-linejoin="round"/>
<g filter="url(#filter3_i)">
<path d="M16 7C17.6569 7 19 5.65685 19 4C19 2.34315 17.6569 1 16 1C14.3431 1 13 2.34315 13 4C13 5.65685 14.3431 7 16 7Z" fill="white"/>
</g>
<path d="M16 7C17.6569 7 19 5.65685 19 4C19 2.34315 17.6569 1 16 1C14.3431 1 13 2.34315 13 4C13 5.65685 14.3431 7 16 7Z" stroke="#375BD2" stroke-width="1.5" stroke-linecap="round" stroke-linejoin="round"/>
<path d="M16 4.75C16.4142 4.75 16.75 4.41421 16.75 4C16.75 3.58579 16.4142 3.25 16 3.25C15.5858 3.25 15.25 3.58579 15.25 4C15.25 4.41421 15.5858 4.75 16 4.75Z" fill="#375BD2"/>
<g filter="url(#filter4_i)">
<path d="M4 24.9973C2.34315 24.9973 1 23.6542 1 21.9973C1 20.3405 2.34315 18.9973 4 18.9973C5.65685 18.9973 7 20.3405 7 21.9973C7 23.6542 5.65685 24.9973 4 24.9973Z" fill="white"/>
</g>
<path d="M4 24.9973C2.34315 24.9973 1 23.6542 1 21.9973C1 20.3405 2.34315 18.9973 4 18.9973C5.65685 18.9973 7 20.3405 7 21.9973C7 23.6542 5.65685 24.9973 4 24.9973Z" stroke="#375BD2" stroke-width="1.5" stroke-linecap="round" stroke-linejoin="round"/>
<path d="M4 22.75C4.41421 22.75 4.75 22.4142 4.75 22C4.75 21.5858 4.41421 21.25 4 21.25C3.58579 21.25 3.25 21.5858 3.25 22C3.25 22.4142 3.58579 22.75 4 22.75Z" fill="#375BD2"/>
<g filter="url(#filter5_i)">
<path d="M4 7C2.34315 7 1 8.34315 1 10C1 11.6569 2.34315 13 4 13C5.65685 13 7 11.6569 7 10C7 8.34315 5.65685 7 4 7Z" fill="white"/>
</g>
<path d="M4 7C2.34315 7 1 8.34315 1 10C1 11.6569 2.34315 13 4 13C5.65685 13 7 11.6569 7 10C7 8.34315 5.65685 7 4 7Z" stroke="#375BD2" stroke-width="1.5" stroke-linecap="round" stroke-linejoin="round"/>
<g filter="url(#filter6_i)">
<path d="M28 6.99732C29.6569 6.99732 31 8.34046 31 9.99731C31 11.6542 29.6569 12.9973 28 12.9973C26.3431 12.9973 25 11.6542 25 9.99731C25 8.34046 26.3431 6.99732 28 6.99732Z" fill="white"/>
</g>
<path d="M28 6.99732C29.6569 6.99732 31 8.34046 31 9.99731C31 11.6542 29.6569 12.9973 28 12.9973C26.3431 12.9973 25 11.6542 25 9.99731C25 8.34046 26.3431 6.99732 28 6.99732Z" stroke="#375BD2" stroke-width="1.5" stroke-linecap="round" stroke-linejoin="round"/>
<path d="M16 20.9973V22.9973" stroke="#375BD2" stroke-width="1.5" stroke-linecap="round" stroke-linejoin="round"/>
<path d="M16 8.99731V10.9973" stroke="#375BD2" stroke-width="1.5" stroke-linecap="round" stroke-linejoin="round"/>
<path d="M10.8481 6.46712L9.15196 7.52696" stroke="#375BD2" stroke-width="1.5" stroke-linecap="round" stroke-linejoin="round"/>
<path d="M22.8481 24.4671L21.152 25.5269" stroke="#375BD2" stroke-width="1.5" stroke-linecap="round" stroke-linejoin="round"/>
<path d="M10.8481 18.4671L9.15199 19.5269" stroke="#375BD2" stroke-width="1.5" stroke-linecap="round" stroke-linejoin="round"/>
<path d="M21.152 6.4671L22.8481 7.52694" stroke="#375BD2" stroke-width="1.5" stroke-linecap="round" stroke-linejoin="round"/>
<path d="M21.152 18.4671L22.8481 19.5269" stroke="#375BD2" stroke-width="1.5" stroke-linecap="round" stroke-linejoin="round"/>
<path d="M4 14.9973V16.9973" stroke="#375BD2" stroke-width="1.5" stroke-linecap="round" stroke-linejoin="round"/>
<path d="M16 16.75C16.4142 16.75 16.75 16.4142 16.75 16C16.75 15.5858 16.4142 15.25 16 15.25C15.5858 15.25 15.25 15.5858 15.25 16C15.25 16.4142 15.5858 16.75 16 16.75Z" fill="#375BD2"/>
<defs>
<filter id="filter0_i" x="24.25" y="18.2473" width="7.5" height="7.5" filterUnits="userSpaceOnUse" color-interpolation-filters="sRGB">
<feFlood flood-opacity="0" result="BackgroundImageFix"/>
<feBlend mode="normal" in="SourceGraphic" in2="BackgroundImageFix" result="shape"/>
<feColorMatrix in="SourceAlpha" type="matrix" values="0 0 0 0 0 0 0 0 0 0 0 0 0 0 0 0 0 0 127 0" result="hardAlpha"/>
<feOffset dx="-3" dy="1"/>
<feComposite in2="hardAlpha" operator="arithmetic" k2="-1" k3="1"/>
<feColorMatrix type="matrix" values="0 0 0 0 0.87451 0 0 0 0 0.905882 0 0 0 0 0.984314 0 0 0 1 0"/>
<feBlend mode="normal" in2="shape" result="effect1_innerShadow"/>
</filter>
<filter id="filter1_i" x="12.25" y="24.2473" width="7.5" height="7.5" filterUnits="userSpaceOnUse" color-interpolation-filters="sRGB">
<feFlood flood-opacity="0" result="BackgroundImageFix"/>
<feBlend mode="normal" in="SourceGraphic" in2="BackgroundImageFix" result="shape"/>
<feColorMatrix in="SourceAlpha" type="matrix" values="0 0 0 0 0 0 0 0 0 0 0 0 0 0 0 0 0 0 127 0" result="hardAlpha"/>
<feOffset dx="-3" dy="1"/>
<feComposite in2="hardAlpha" operator="arithmetic" k2="-1" k3="1"/>
<feColorMatrix type="matrix" values="0 0 0 0 0.87451 0 0 0 0 0.905882 0 0 0 0 0.984314 0 0 0 1 0"/>
<feBlend mode="normal" in2="shape" result="effect1_innerShadow"/>
</filter>
<filter id="filter2_i" x="12.25" y="12.25" width="7.5" height="7.5" filterUnits="userSpaceOnUse" color-interpolation-filters="sRGB">
<feFlood flood-opacity="0" result="BackgroundImageFix"/>
<feBlend mode="normal" in="SourceGraphic" in2="BackgroundImageFix" result="shape"/>
<feColorMatrix in="SourceAlpha" type="matrix" values="0 0 0 0 0 0 0 0 0 0 0 0 0 0 0 0 0 0 127 0" result="hardAlpha"/>
<feOffset dx="-3" dy="1"/>
<feComposite in2="hardAlpha" operator="arithmetic" k2="-1" k3="1"/>
<feColorMatrix type="matrix" values="0 0 0 0 0.87451 0 0 0 0 0.905882 0 0 0 0 0.984314 0 0 0 1 0"/>
<feBlend mode="normal" in2="shape" result="effect1_innerShadow"/>
</filter>
<filter id="filter3_i" x="12.25" y="0.25" width="7.5" height="7.5" filterUnits="userSpaceOnUse" color-interpolation-filters="sRGB">
<feFlood flood-opacity="0" result="BackgroundImageFix"/>
<feBlend mode="normal" in="SourceGraphic" in2="BackgroundImageFix" result="shape"/>
<feColorMatrix in="SourceAlpha" type="matrix" values="0 0 0 0 0 0 0 0 0 0 0 0 0 0 0 0 0 0 127 0" result="hardAlpha"/>
<feOffset dx="-3" dy="1"/>
<feComposite in2="hardAlpha" operator="arithmetic" k2="-1" k3="1"/>
<feColorMatrix type="matrix" values="0 0 0 0 0.87451 0 0 0 0 0.905882 0 0 0 0 0.984314 0 0 0 1 0"/>
<feBlend mode="normal" in2="shape" result="effect1_innerShadow"/>
</filter>
<filter id="filter4_i" x="0.25" y="18.2473" width="7.5" height="7.5" filterUnits="userSpaceOnUse" color-interpolation-filters="sRGB">
<feFlood flood-opacity="0" result="BackgroundImageFix"/>
<feBlend mode="normal" in="SourceGraphic" in2="BackgroundImageFix" result="shape"/>
<feColorMatrix in="SourceAlpha" type="matrix" values="0 0 0 0 0 0 0 0 0 0 0 0 0 0 0 0 0 0 127 0" result="hardAlpha"/>
<feOffset dx="-3" dy="1"/>
<feComposite in2="hardAlpha" operator="arithmetic" k2="-1" k3="1"/>
<feColorMatrix type="matrix" values="0 0 0 0 0.87451 0 0 0 0 0.905882 0 0 0 0 0.984314 0 0 0 1 0"/>
<feBlend mode="normal" in2="shape" result="effect1_innerShadow"/>
</filter>
<filter id="filter5_i" x="0.25" y="6.25" width="7.5" height="7.5" filterUnits="userSpaceOnUse" color-interpolation-filters="sRGB">
<feFlood flood-opacity="0" result="BackgroundImageFix"/>
<feBlend mode="normal" in="SourceGraphic" in2="BackgroundImageFix" result="shape"/>
<feColorMatrix in="SourceAlpha" type="matrix" values="0 0 0 0 0 0 0 0 0 0 0 0 0 0 0 0 0 0 127 0" result="hardAlpha"/>
<feOffset dx="-3" dy="1"/>
<feComposite in2="hardAlpha" operator="arithmetic" k2="-1" k3="1"/>
<feColorMatrix type="matrix" values="0 0 0 0 0.87451 0 0 0 0 0.905882 0 0 0 0 0.984314 0 0 0 1 0"/>
<feBlend mode="normal" in2="shape" result="effect1_innerShadow"/>
</filter>
<filter id="filter6_i" x="24.25" y="6.24731" width="7.5" height="7.5" filterUnits="userSpaceOnUse" color-interpolation-filters="sRGB">
<feFlood flood-opacity="0" result="BackgroundImageFix"/>
<feBlend mode="normal" in="SourceGraphic" in2="BackgroundImageFix" result="shape"/>
<feColorMatrix in="SourceAlpha" type="matrix" values="0 0 0 0 0 0 0 0 0 0 0 0 0 0 0 0 0 0 127 0" result="hardAlpha"/>
<feOffset dx="-3" dy="1"/>
<feComposite in2="hardAlpha" operator="arithmetic" k2="-1" k3="1"/>
<feColorMatrix type="matrix" values="0 0 0 0 0.87451 0 0 0 0 0.905882 0 0 0 0 0.984314 0 0 0 1 0"/>
<feBlend mode="normal" in2="shape" result="effect1_innerShadow"/>
</filter>
</defs>
</svg>
