<svg width="32" height="32" viewBox="0 0 32 32" fill="none" xmlns="http://www.w3.org/2000/svg">
<g filter="url(#filter0_i)">
<path d="M20.6534 4.24534C19.3143 4.47122 17.9989 4.82026 16.724 5.28801C16.2563 5.45539 15.745 5.45539 15.2774 5.28801C11.1834 3.68349 6.65197 3.58896 2.49468 5.02134C2.06048 5.15911 1.68148 5.43167 1.41271 5.79947C1.14394 6.16726 0.999378 6.61114 1.00002 7.06668V26.1827C0.998728 26.5101 1.07248 26.8334 1.21562 27.1279C1.35876 27.4223 1.56748 27.6801 1.82574 27.8813C2.084 28.0825 2.38494 28.2219 2.70546 28.2887C3.02597 28.3555 3.35753 28.348 3.67468 28.2667C7.50295 27.1947 11.5768 27.4045 15.2747 28.864C15.7422 29.0325 16.2538 29.0325 16.7214 28.864C20.4192 27.4042 24.4931 27.1944 28.3214 28.2667C28.638 28.3476 28.969 28.355 29.289 28.2884C29.609 28.2217 29.9096 28.0828 30.1677 27.8823C30.4258 27.6817 30.6346 27.4247 30.7781 27.1311C30.9217 26.8375 30.9962 26.5149 30.996 26.188V7.06668C30.9958 6.61255 30.8513 6.17025 30.5834 5.80358C30.3154 5.43692 29.9379 5.16486 29.5054 5.02668C28.4741 4.69525 27.4202 4.43858 26.352 4.25868" fill="white"/>
</g>
<path d="M20.6534 4.24534C19.3143 4.47122 17.9989 4.82026 16.724 5.28801C16.2563 5.45539 15.745 5.45539 15.2774 5.28801C11.1834 3.68349 6.65197 3.58896 2.49468 5.02134C2.06048 5.15911 1.68148 5.43167 1.41271 5.79947C1.14394 6.16726 0.999378 6.61114 1.00002 7.06668V26.1827C0.998728 26.5101 1.07248 26.8334 1.21562 27.1279C1.35876 27.4223 1.56748 27.6801 1.82574 27.8813C2.084 28.0825 2.38494 28.2219 2.70546 28.2887C3.02597 28.3555 3.35753 28.348 3.67468 28.2667C7.50295 27.1947 11.5768 27.4045 15.2747 28.864C15.7422 29.0325 16.2538 29.0325 16.7214 28.864C20.4192 27.4042 24.4931 27.1944 28.3214 28.2667C28.638 28.3476 28.969 28.355 29.289 28.2884C29.609 28.2217 29.9096 28.0828 30.1677 27.8823C30.4258 27.6817 30.6346 27.4247 30.7781 27.1311C30.9217 26.8375 30.9962 26.5149 30.996 26.188V7.06668C30.9958 6.61255 30.8513 6.17025 30.5834 5.80358C30.3154 5.43692 29.9379 5.16486 29.5054 5.02668C28.4741 4.69525 27.4202 4.43858 26.352 4.25868" stroke="#375BD2" stroke-width="1.5" stroke-linecap="round" stroke-linejoin="round"/>
<path d="M16 5.40933V28.9853" stroke="#375BD2" stroke-width="1.5" stroke-linecap="round" stroke-linejoin="round"/>
<g filter="url(#filter1_i)">
<path d="M26.5 15.0146L23.5 12.0146L20.5 15.0146V5.01465C20.5 4.48422 20.7107 3.97551 21.0858 3.60043C21.4609 3.22536 21.9696 3.01465 22.5 3.01465H24.5C25.0304 3.01465 25.5391 3.22536 25.9142 3.60043C26.2893 3.97551 26.5 4.48422 26.5 5.01465V15.0146Z" fill="white"/>
</g>
<path d="M26.5 15.0146L23.5 12.0146L20.5 15.0146V5.01465C20.5 4.48422 20.7107 3.97551 21.0858 3.60043C21.4609 3.22536 21.9696 3.01465 22.5 3.01465H24.5C25.0304 3.01465 25.5391 3.22536 25.9142 3.60043C26.2893 3.97551 26.5 4.48422 26.5 5.01465V15.0146Z" stroke="#375BD2" stroke-width="1.5" stroke-linecap="round" stroke-linejoin="round"/>
<defs>
<filter id="filter0_i" x="0.25" y="3.26181" width="31.496" height="26.4786" filterUnits="userSpaceOnUse" color-interpolation-filters="sRGB">
<feFlood flood-opacity="0" result="BackgroundImageFix"/>
<feBlend mode="normal" in="SourceGraphic" in2="BackgroundImageFix" result="shape"/>
<feColorMatrix in="SourceAlpha" type="matrix" values="0 0 0 0 0 0 0 0 0 0 0 0 0 0 0 0 0 0 127 0" result="hardAlpha"/>
<feOffset dx="-3" dy="1"/>
<feComposite in2="hardAlpha" operator="arithmetic" k2="-1" k3="1"/>
<feColorMatrix type="matrix" values="0 0 0 0 0.87451 0 0 0 0 0.905882 0 0 0 0 0.984314 0 0 0 1 0"/>
<feBlend mode="normal" in2="shape" result="effect1_innerShadow"/>
</filter>
<filter id="filter1_i" x="19.75" y="2.26465" width="7.5" height="13.5" filterUnits="userSpaceOnUse" color-interpolation-filters="sRGB">
<feFlood flood-opacity="0" result="BackgroundImageFix"/>
<feBlend mode="normal" in="SourceGraphic" in2="BackgroundImageFix" result="shape"/>
<feColorMatrix in="SourceAlpha" type="matrix" values="0 0 0 0 0 0 0 0 0 0 0 0 0 0 0 0 0 0 127 0" result="hardAlpha"/>
<feOffset dx="-3" dy="1"/>
<feComposite in2="hardAlpha" operator="arithmetic" k2="-1" k3="1"/>
<feColorMatrix type="matrix" values="0 0 0 0 0.87451 0 0 0 0 0.905882 0 0 0 0 0.984314 0 0 0 1 0"/>
<feBlend mode="normal" in2="shape" result="effect1_innerShadow"/>
</filter>
</defs>
</svg>
