<svg width="25" height="24" viewBox="0 0 25 24" fill="none" xmlns="http://www.w3.org/2000/svg">
<g filter="url(#filter0_i)">
<path d="M16.0017 21.2H21.2017C22.0017 21.2 22.7017 20.5 22.7017 19.7V3.2C22.7017 2.4 22.0017 1.7 21.2017 1.7H3.20166C2.40166 1.7 1.70166 2.4 1.70166 3.2V19.7C1.70166 20.5 2.40166 21.2 3.20166 21.2H4.70166" fill="white"/>
</g>
<path d="M16.0017 21.2H21.2017C22.0017 21.2 22.7017 20.5 22.7017 19.7V3.2C22.7017 2.4 22.0017 1.7 21.2017 1.7H3.20166C2.40166 1.7 1.70166 2.4 1.70166 3.2V19.7C1.70166 20.5 2.40166 21.2 3.20166 21.2H4.70166" stroke="#375BD2" stroke-width="1.2" stroke-linecap="round" stroke-linejoin="round"/>
<path d="M18.5011 9.50001L18.9011 9.30001C19.0011 9.20001 19.1011 9.00001 19.0011 8.90001L18.7011 8.30001C18.7011 8.20001 18.6011 8.20001 18.5011 8.10001C18.4011 8.10001 18.3011 8.10001 18.3011 8.10001L17.9011 8.30001C17.6011 8.10001 17.3011 7.90001 17.0011 7.80001V7.40001C17.0011 7.20001 16.9011 7.10001 16.7011 7.10001H16.0011C15.8011 7.10001 15.7011 7.20001 15.7011 7.40001V7.80001C15.3011 8.00001 15.0011 8.10001 14.7011 8.40001L14.3011 8.20001C14.2011 8.20001 14.1011 8.10001 14.1011 8.20001C14.0011 8.20001 13.9011 8.30001 13.9011 8.40001L13.6011 9.00001C13.6011 9.10001 13.5011 9.20001 13.6011 9.20001C13.6011 9.30001 13.7011 9.40001 13.8011 9.40001L14.2011 9.60001C14.1011 10 14.1011 10.3 14.2011 10.6L13.8011 10.8C13.6011 10.9 13.6011 11.1 13.7011 11.2L14.0011 11.8C14.0011 11.9 14.1011 11.9 14.2011 12C14.3011 12 14.4011 12 14.4011 12L14.8011 11.8C15.1011 12 15.4011 12.2 15.7011 12.3V12.7C15.7011 12.9 15.8011 13 16.0011 13H16.7011C16.9011 13 17.0011 12.9 17.0011 12.7V12.3C17.3011 12.2 17.6011 12 17.9011 11.8L18.3011 12C18.4011 12 18.5011 12.1 18.5011 12C18.6011 12 18.7011 11.9 18.7011 11.8L19.0011 11.2C19.1011 11 19.0011 10.8 18.9011 10.8L18.5011 10.6C18.6011 10.2 18.6011 9.80001 18.5011 9.50001Z" fill="#375BD2"/>
<path d="M16.3013 11C16.8536 11 17.3013 10.5523 17.3013 10C17.3013 9.44772 16.8536 9 16.3013 9C15.749 9 15.3013 9.44772 15.3013 10C15.3013 10.5523 15.749 11 16.3013 11Z" fill="white"/>
<path d="M14.6013 15.6L15.3013 15.2C15.6013 15 15.7013 14.7 15.5013 14.4L14.9013 13.3C14.8013 13.2 14.7013 13.1 14.5013 13C14.3013 13 14.2013 13 14.0013 13.1L13.3013 13.5C12.8013 13.1 12.3013 12.7 11.6013 12.5V11.7C11.6013 11.4 11.3013 11.1 11.0013 11.1H9.80132C9.50132 11.1 9.20132 11.4 9.20132 11.7V12.5C8.60132 12.7 8.00132 13 7.50132 13.5L6.80132 13C6.70132 12.9 6.50132 12.9 6.30132 12.9C6.10132 12.9 6.00132 13 5.90132 13.2L5.30132 14.3C5.20132 14.4 5.20132 14.6 5.20132 14.8C5.20132 15 5.30132 15.1 5.50132 15.2L6.20132 15.6C6.00132 16.3 6.10132 16.9 6.20132 17.6L5.50132 18C5.20132 18.2 5.10132 18.5 5.30132 18.8L5.90132 19.9C6.00132 20 6.10132 20.1 6.30132 20.1C6.50132 20.1 6.60132 20.1 6.80132 20L7.50132 19.6C8.00132 20 8.50132 20.4 9.20132 20.6V21.4C9.20132 21.7 9.50132 22 9.80132 22H11.0013C11.3013 22 11.6013 21.7 11.6013 21.4V20.6C12.2013 20.4 12.8013 20.1 13.3013 19.6L14.0013 20C14.1013 20.1 14.3013 20.1 14.5013 20.1C14.7013 20.1 14.8013 20 14.9013 19.8L15.5013 18.7C15.7013 18.4 15.6013 18 15.3013 17.9L14.6013 17.5C14.7013 16.9 14.7013 16.2 14.6013 15.6Z" fill="#375BD2"/>
<path d="M10.4011 18.3C11.3952 18.3 12.2011 17.4941 12.2011 16.5C12.2011 15.5059 11.3952 14.7 10.4011 14.7C9.40696 14.7 8.60107 15.5059 8.60107 16.5C8.60107 17.4941 9.40696 18.3 10.4011 18.3Z" fill="white"/>
<path d="M1.80127 5.5H22.8013" stroke="#375BD2" stroke-width="1.2" stroke-linecap="round" stroke-linejoin="round"/>
<defs>
<filter id="filter0_i" x="1.10156" y="1.09999" width="22.2" height="20.7" filterUnits="userSpaceOnUse" color-interpolation-filters="sRGB">
<feFlood flood-opacity="0" result="BackgroundImageFix"/>
<feBlend mode="normal" in="SourceGraphic" in2="BackgroundImageFix" result="shape"/>
<feColorMatrix in="SourceAlpha" type="matrix" values="0 0 0 0 0 0 0 0 0 0 0 0 0 0 0 0 0 0 127 0" result="hardAlpha"/>
<feOffset dx="-3" dy="1"/>
<feComposite in2="hardAlpha" operator="arithmetic" k2="-1" k3="1"/>
<feColorMatrix type="matrix" values="0 0 0 0 0.87451 0 0 0 0 0.905882 0 0 0 0 0.984314 0 0 0 1 0"/>
<feBlend mode="normal" in2="shape" result="effect1_innerShadow"/>
</filter>
</defs>
</svg>
