<svg width="56" height="56" viewBox="0 0 56 56" fill="none" xmlns="http://www.w3.org/2000/svg">
<circle cx="28" cy="28" r="27.5" fill="#F5F7FD" stroke="#DFE7FB"/>
<path d="M28.6666 17.3333C28.6666 17.3333 19.3333 17.3333 16.6666 18C15.3333 18.6666 14.6666 19.3332 14 20.6666C13.3333 23.3332 13.3333 27.9999 13.3333 27.9999C13.3333 27.9999 13.3333 32.6666 14 35.3333C14.6666 36.6666 15.3333 37.3333 16.6666 37.9999C19.3333 38.6666 28.6666 38.6666 28.6666 38.6666C28.6666 38.6666 37.9999 38.6666 40.6666 37.9999C41.9999 37.3333 42.6666 36.6666 43.3333 35.3333C43.9999 32.6666 43.9999 27.9999 43.9999 27.9999C43.9999 27.9999 43.9999 23.3332 43.3333 20.6666C42.6666 19.3332 41.9999 18.6666 40.6666 18C37.9999 17.3333 28.6666 17.3333 28.6666 17.3333ZM25.9999 23.3333L33.9999 27.9999L25.9999 32.6666V23.3333Z" fill="#375BD2"/>
</svg>
