<?xml version="1.0" encoding="UTF-8"?><svg id="Layer_2" xmlns="http://www.w3.org/2000/svg" viewBox="0 0 2084.07 583.96"><defs><style>.cls-1,.cls-2,.cls-3{font-family:CircularStd-Medium, 'Circular Std';}.cls-1,.cls-3{font-size:24px;}.cls-4{letter-spacing:-.01em;}.cls-5{letter-spacing:-.01em;}.cls-6{fill:none;stroke:#000;}.cls-6,.cls-7,.cls-8,.cls-9{stroke-miterlimit:10;}.cls-6,.cls-8,.cls-9{stroke-width:1.5px;}.cls-2{font-size:20.68px;}.cls-10{letter-spacing:-.02em;}.cls-11{letter-spacing:-.02em;}.cls-12{letter-spacing:-.04em;}.cls-13{letter-spacing:0em;}.cls-14{fill:#f5f7fd;}.cls-15{fill:#dfe7fb;}.cls-16{letter-spacing:-.07em;}.cls-17{letter-spacing:-.01em;}.cls-18{letter-spacing:-.02em;}.cls-19{letter-spacing:-.01em;}.cls-20{letter-spacing:-.01em;}.cls-21{letter-spacing:0em;}.cls-22{letter-spacing:-.03em;}.cls-7{fill:#2e374b;stroke:#95bedc;}.cls-23{letter-spacing:-.03em;}.cls-24{letter-spacing:0em;}.cls-25{letter-spacing:0em;}.cls-26{letter-spacing:0em;}.cls-27{letter-spacing:0em;}.cls-28{letter-spacing:0em;}.cls-8{fill:#f2d051;stroke:#dcb74a;}.cls-29{letter-spacing:0em;}.cls-9{fill:#375bd2;stroke:#0043c3;}.cls-30{letter-spacing:0em;}.cls-31{letter-spacing:-.01em;}.cls-3{fill:#fff;}.cls-32{letter-spacing:-.01em;}.cls-33{letter-spacing:-.02em;}.cls-34{letter-spacing:0em;}.cls-35{letter-spacing:-.01em;}.cls-36{font-family:CircularStd-Bold, 'Circular Std';font-size:46px;}</style></defs><g id="Layer_1-2"><g><g><rect class="cls-14" x="192.73" y=".5" width="950.67" height="322.43"/><path class="cls-15" d="M1142.91,1V322.43H193.23V1h949.67m1-1H192.23V323.43h951.67V0h0Z"/></g><text class="cls-36" transform="translate(231.07 69.55)"><tspan x="0" y="0">L1</tspan></text><g><rect class="cls-14" x="1425.57" y=".5" width="658" height="582.21"/><path class="cls-15" d="M2083.07,1V582.21h-657V1h657M2084.07,0h-659V583.21h659V0h0Z"/></g><g><g><circle class="cls-7" cx="16.37" cy="484.31" r="15.62"/><text class="cls-2" transform="translate(44.72 490.75)"><tspan class="cls-21" x="0" y="0">A</tspan><tspan class="cls-13" x="14.64" y="0">r</tspan><tspan x="22.54" y="0">bi</tspan><tspan class="cls-26" x="40.52" y="0">t</tspan><tspan class="cls-28" x="47.92" y="0">r</tspan><tspan x="55.84" y="0">um</tspan></text></g><g><circle class="cls-9" cx="16.37" cy="525.95" r="15.62"/><text class="cls-2" transform="translate(44.72 532.39)"><tspan class="cls-5" x="0" y="0">C</tspan><tspan class="cls-29" x="15.47" y="0">hainlink</tspan></text></g><g><circle class="cls-8" cx="16.37" cy="567.59" r="15.62"/><text class="cls-2" transform="translate(44.72 574.03)"><tspan class="cls-18" x="0" y="0">C</tspan><tspan x="15.3" y="0">on</tspan><tspan class="cls-34" x="39.15" y="0">s</tspan><tspan x="48.5" y="0">umer</tspan></text></g></g><rect class="cls-7" x="1187.07" y="142.21" width="200" height="88"/><text class="cls-3" transform="translate(1229.28 192.75)"><tspan class="cls-33" x="0" y="0">S</tspan><tspan class="cls-4" x="13.97" y="0">eq</tspan><tspan class="cls-35" x="40.94" y="0">u</tspan><tspan class="cls-4" x="54.48" y="0">en</tspan><tspan class="cls-17" x="80.93" y="0">c</tspan><tspan class="cls-4" x="93.55" y="0">er</tspan></text><g><line class="cls-6" x1="152.07" y1="184.69" x2="220.3" y2="184.69"/><polygon points="218.12 192.17 231.07 184.69 218.12 177.21 218.12 192.17"/></g><g><line class="cls-6" x1="1106.07" y1="184.69" x2="1174.3" y2="184.69"/><polygon points="1172.12 192.17 1185.07 184.69 1172.12 177.21 1172.12 192.17"/></g><g><line class="cls-6" x1="1905.57" y1="391.21" x2="1905.57" y2="272.95"/><polygon points="1913.05 275.14 1905.57 262.19 1898.09 275.14 1913.05 275.14"/></g><g><line class="cls-6" x1="1385.07" y1="184.69" x2="1453.3" y2="184.69"/><polygon points="1451.12 192.17 1464.07 184.69 1451.12 177.21 1451.12 192.17"/></g><g><line class="cls-6" x1="492.07" y1="184.69" x2="531.31" y2="184.69"/><polygon points="529.12 192.17 542.07 184.69 529.12 177.21 529.12 192.17"/></g><rect class="cls-9" x=".75" y="109.69" width="150" height="150"/><text class="cls-3" transform="translate(24.71 177.68)"><tspan class="cls-11" x="0" y="0">C</tspan><tspan class="cls-4" x="17.71" y="0">hainlink</tspan><tspan class="cls-4"><tspan x="25.16" y="28.8">OCR</tspan></tspan></text><g><rect class="cls-9" x="232.98" y="109.69" width="258.32" height="150"/><text class="cls-3" transform="translate(313.66 177.68)"><tspan class="cls-16" x="0" y="0">V</tspan><tspan class="cls-4" x="14.54" y="0">ali</tspan><tspan class="cls-20" x="39.34" y="0">da</tspan><tspan class="cls-35" x="65.98" y="0">t</tspan><tspan class="cls-4" x="74.42" y="0">or</tspan><tspan class="cls-10" x="18.01" y="28.8">P</tspan><tspan class="cls-32" x="31.91" y="28.8">r</tspan><tspan class="cls-22" x="40.72" y="28.8">o</tspan><tspan class="cls-27" x="54.01" y="28.8">x</tspan><tspan class="cls-4" x="66.16" y="28.8">y</tspan></text></g><g><rect class="cls-9" x="541.95" y="109.69" width="258.32" height="150"/><text class="cls-3" transform="translate(573.79 192.08)"><tspan class="cls-35" x="0" y="0">A</tspan><tspan class="cls-25" x="16.75" y="0">r</tspan><tspan class="cls-30" x="25.68" y="0">bi</tspan><tspan class="cls-33" x="46.06" y="0">t</tspan><tspan class="cls-27" x="54.41" y="0">r</tspan><tspan class="cls-4" x="63.36" y="0">um</tspan><tspan class="cls-16" x="97.68" y="0">V</tspan><tspan class="cls-4" x="112.22" y="0">ali</tspan><tspan class="cls-19" x="137.01" y="0">da</tspan><tspan class="cls-35" x="163.65" y="0">t</tspan><tspan class="cls-4" x="172.1" y="0">or</tspan></text></g><g><rect class="cls-9" x="1465.95" y="109.69" width="258.32" height="150"/><text class="cls-3" transform="translate(1488.6 179.08)"><tspan class="cls-35" x="0" y="0">A</tspan><tspan class="cls-25" x="16.75" y="0">r</tspan><tspan class="cls-30" x="25.68" y="0">bi</tspan><tspan class="cls-33" x="46.06" y="0">t</tspan><tspan class="cls-27" x="54.41" y="0">r</tspan><tspan class="cls-30" x="63.36" y="0">um</tspan><tspan class="cls-33" x="97.68" y="0">S</tspan><tspan class="cls-4" x="111.65" y="0">eq</tspan><tspan class="cls-32" x="138.62" y="0">u</tspan><tspan class="cls-4" x="152.16" y="0">en</tspan><tspan class="cls-17" x="178.61" y="0">c</tspan><tspan class="cls-4" x="191.23" y="0">er</tspan><tspan class="cls-31" x="41.06" y="28.8">U</tspan><tspan class="cls-32" x="57.1" y="28.8">p</tspan><tspan class="cls-24" x="71.28" y="28.8">t</tspan><tspan class="cls-30" x="79.85" y="28.8">ime</tspan><tspan class="cls-12" x="119.59" y="28.8">F</tspan><tspan class="cls-4" x="131.93" y="28.8">eed</tspan></text></g><g><rect class="cls-9" x="1776.95" y="109.69" width="258.32" height="150"/><text class="cls-3" transform="translate(1791.83 179.08)"><tspan class="cls-35" x="0" y="0">A</tspan><tspan class="cls-25" x="16.75" y="0">r</tspan><tspan class="cls-30" x="25.68" y="0">bi</tspan><tspan class="cls-33" x="46.06" y="0">t</tspan><tspan class="cls-27" x="54.41" y="0">r</tspan><tspan class="cls-4" x="63.36" y="0">um</tspan><tspan class="cls-31" x="97.68" y="0">U</tspan><tspan class="cls-32" x="113.71" y="0">p</tspan><tspan class="cls-25" x="127.9" y="0">t</tspan><tspan class="cls-4" x="136.46" y="0">ime</tspan><tspan class="cls-12" x="176.21" y="0">F</tspan><tspan class="cls-4" x="188.54" y="0">eed</tspan><tspan class="cls-10" x="83.82" y="28.8">P</tspan><tspan class="cls-32" x="97.71" y="28.8">r</tspan><tspan class="cls-22" x="106.52" y="28.8">o</tspan><tspan class="cls-27" x="119.82" y="28.8">x</tspan><tspan class="cls-4" x="131.96" y="28.8">y</tspan></text></g><g><rect class="cls-8" x="1776.95" y="382.69" width="258.32" height="150"/><text class="cls-1" transform="translate(1850.4 463.08)"><tspan class="cls-23" x="0" y="0">C</tspan><tspan class="cls-4" x="17.52" y="0">on</tspan><tspan class="cls-31" x="44.71" y="0">s</tspan><tspan class="cls-4" x="55.32" y="0">umer</tspan></text></g><g><line class="cls-6" x1="799.07" y1="184.69" x2="838.31" y2="184.69"/><polygon points="836.12 192.17 849.07 184.69 836.12 177.21 836.12 192.17"/></g><g><line class="cls-6" x1="1776.07" y1="184.21" x2="1736.83" y2="184.21"/><polygon points="1739.02 176.73 1726.07 184.21 1739.02 191.69 1739.02 176.73"/></g><g><rect class="cls-7" x="848.95" y="109.69" width="258.32" height="150"/><text class="cls-3" transform="translate(896.45 192.08)"><tspan class="cls-35" x="0" y="0">A</tspan><tspan class="cls-25" x="16.75" y="0">r</tspan><tspan class="cls-30" x="25.68" y="0">bi</tspan><tspan class="cls-33" x="46.06" y="0">t</tspan><tspan class="cls-27" x="54.41" y="0">r</tspan><tspan class="cls-4" x="63.36" y="0">um Inb</tspan><tspan class="cls-22" x="137.95" y="0">o</tspan><tspan class="cls-30" x="151.25" y="0">x</tspan></text></g><text class="cls-36" transform="translate(1464.07 69.55)"><tspan x="0" y="0">L2</tspan></text></g></g></svg>