<?xml version="1.0" encoding="UTF-8"?><svg id="Layer_2" xmlns="http://www.w3.org/2000/svg" viewBox="0 0 1682.5 840.57"><defs><style>.cls-1,.cls-2,.cls-3{font-family:CircularStd-Medium, 'Circular Std';}.cls-1,.cls-3{font-size:24px;}.cls-4{letter-spacing:0em;}.cls-5{letter-spacing:-.01em;}.cls-6{letter-spacing:-.01em;}.cls-7{fill:none;stroke:#000;}.cls-7,.cls-8,.cls-9,.cls-10{stroke-miterlimit:10;stroke-width:1.5px;}.cls-2{font-size:20.68px;}.cls-11{letter-spacing:-.02em;}.cls-12{letter-spacing:-.02em;}.cls-13{letter-spacing:0em;}.cls-14{fill:#f5f7fd;}.cls-15{fill:#dfe7fb;}.cls-16{letter-spacing:-.07em;}.cls-17{letter-spacing:-.01em;}.cls-18{letter-spacing:-.02em;}.cls-19{letter-spacing:-.01em;}.cls-20{letter-spacing:-.01em;}.cls-21{letter-spacing:0em;}.cls-22{letter-spacing:-.03em;}.cls-23{letter-spacing:-.03em;}.cls-24{letter-spacing:0em;}.cls-25{letter-spacing:0em;}.cls-26{letter-spacing:0em;}.cls-27{letter-spacing:0em;}.cls-28{letter-spacing:-.01em;}.cls-29{letter-spacing:-.02em;}.cls-8{fill:#fd9b9d;stroke:#ec3431;}.cls-9{fill:#f2d051;stroke:#dcb74a;}.cls-30{letter-spacing:0em;}.cls-10{fill:#375bd2;stroke:#0043c3;}.cls-31{letter-spacing:0em;}.cls-32{letter-spacing:-.01em;}.cls-33{letter-spacing:-.08em;}.cls-3{fill:#fff;}.cls-34{letter-spacing:-.01em;}.cls-35{letter-spacing:-.02em;}.cls-36{letter-spacing:0em;}.cls-37{letter-spacing:-.01em;}.cls-38{letter-spacing:-.03em;}.cls-39{font-family:CircularStd-Bold, 'Circular Std';font-size:46px;}</style></defs><g id="Layer_1-2"><g><rect class="cls-14" x=".5" y=".5" width="870" height="676"/><path class="cls-15" d="M870,1V676H1V1H870m1-1H0V677H871V0h0Z"/></g><text class="cls-39" transform="translate(61 86.33)"><tspan x="0" y="0">L1</tspan></text><g><circle class="cls-8" cx="1554.62" cy="740.92" r="15.62"/><text class="cls-2" transform="translate(1582.97 747.36)"><tspan x="0" y="0">O</tspan><tspan class="cls-4" x="16.65" y="0">p</tspan><tspan class="cls-13" x="29.08" y="0">t</tspan><tspan x="36.67" y="0">imism</tspan></text></g><g><circle class="cls-10" cx="1554.62" cy="782.56" r="15.62"/><text class="cls-2" transform="translate(1582.97 788.99)"><tspan class="cls-6" x="0" y="0">C</tspan><tspan class="cls-30" x="15.47" y="0">hainlink</tspan></text></g><g><circle class="cls-9" cx="1554.62" cy="824.2" r="15.62"/><text class="cls-2" transform="translate(1582.97 830.63)"><tspan class="cls-18" x="0" y="0">C</tspan><tspan x="15.3" y="0">on</tspan><tspan class="cls-36" x="39.15" y="0">s</tspan><tspan x="48.5" y="0">umer</tspan></text></g><g><rect class="cls-8" x="63.38" y="134.5" width="350" height="88"/><text class="cls-1" transform="translate(95.22 185.04)"><tspan class="cls-5" x="0" y="0">L1</tspan><tspan class="cls-29" x="21.86" y="0">C</tspan><tspan class="cls-37" x="39.53" y="0">r</tspan><tspan class="cls-31" x="48.34" y="0">oss</tspan><tspan class="cls-26" x="83.45" y="0">D</tspan><tspan class="cls-5" x="100.58" y="0">omain</tspan><tspan class="cls-19" x="167.13" y="0">M</tspan><tspan class="cls-5" x="189.65" y="0">es</tspan><tspan class="cls-37" x="213.29" y="0">s</tspan><tspan class="cls-5" x="223.94" y="0">enger</tspan></text></g><g><rect class="cls-14" x="1204.5" y=".5" width="477.5" height="676"/><path class="cls-15" d="M1681.5,1V676h-476.5V1h476.5m1-1h-478.5V677h478.5V0h0Z"/></g><text class="cls-39" transform="translate(1265 86.33)"><tspan x="0" y="0">L2</tspan></text><g><rect class="cls-8" x="1268.22" y="134.5" width="350" height="88"/><text class="cls-1" transform="translate(1298.13 185.04)"><tspan class="cls-5" x="0" y="0">L2</tspan><tspan class="cls-29" x="25.73" y="0">C</tspan><tspan class="cls-34" x="43.39" y="0">r</tspan><tspan class="cls-5" x="52.2" y="0">oss</tspan><tspan class="cls-26" x="87.31" y="0">D</tspan><tspan class="cls-5" x="104.45" y="0">omain</tspan><tspan class="cls-19" x="171" y="0">M</tspan><tspan class="cls-31" x="193.51" y="0">es</tspan><tspan class="cls-37" x="217.15" y="0">s</tspan><tspan class="cls-5" x="227.8" y="0">enger</tspan></text></g><g><rect class="cls-10" x="63.5" y="265.5" width="350" height="88"/><text class="cls-3" transform="translate(136.79 316.04)"><tspan class="cls-5" x="0" y="0">O</tspan><tspan class="cls-34" x="19.08" y="0">p</tspan><tspan class="cls-26" x="33.26" y="0">t</tspan><tspan class="cls-31" x="41.83" y="0">imism</tspan><tspan class="cls-16" x="106.22" y="0">V</tspan><tspan class="cls-5" x="120.77" y="0">ali</tspan><tspan class="cls-19" x="145.56" y="0">da</tspan><tspan class="cls-34" x="172.2" y="0">t</tspan><tspan class="cls-5" x="180.65" y="0">or</tspan></text></g><rect class="cls-8" x="455.5" y="134.5" width="350" height="88"/><text class="cls-1" transform="translate(481.82 185.04)"><tspan class="cls-38" x="0" y="0">C</tspan><tspan class="cls-5" x="17.54" y="0">anoni</tspan><tspan class="cls-34" x="76.92" y="0">c</tspan><tspan class="cls-5" x="89.59" y="0">al</tspan><tspan class="cls-33" x="108.26" y="0">T</tspan><tspan class="cls-27" x="120.98" y="0">r</tspan><tspan class="cls-5" x="129.93" y="0">an</tspan><tspan class="cls-35" x="156" y="0">s</tspan><tspan class="cls-28" x="166.56" y="0">a</tspan><tspan class="cls-31" x="179.06" y="0">c</tspan><tspan class="cls-25" x="191.81" y="0">t</tspan><tspan class="cls-31" x="200.37" y="0">ion</tspan><tspan class="cls-12" x="233.69" y="0">C</tspan><tspan class="cls-5" x="251.4" y="0">hain</tspan></text><rect class="cls-8" x="936.5" y="134.5" width="200" height="88"/><text class="cls-1" transform="translate(978.71 185.04)"><tspan class="cls-35" x="0" y="0">S</tspan><tspan class="cls-5" x="13.97" y="0">eq</tspan><tspan class="cls-37" x="40.94" y="0">u</tspan><tspan class="cls-5" x="54.48" y="0">en</tspan><tspan class="cls-17" x="80.93" y="0">c</tspan><tspan class="cls-5" x="93.55" y="0">er</tspan></text><g><line class="cls-7" x1="413.25" y1="178.83" x2="444.49" y2="178.83"/><polygon points="442.3 186.31 455.25 178.83 442.3 171.35 442.3 186.31"/></g><g><line class="cls-7" x1="806" y1="179" x2="924.24" y2="179"/><polygon points="922.05 186.48 935 179 922.05 171.52 922.05 186.48"/></g><g><line class="cls-7" x1="1136" y1="179" x2="1254.24" y2="179"/><polygon points="1252.05 186.48 1265 179 1252.05 171.52 1252.05 186.48"/></g><g><line class="cls-7" x1="238.38" y1="264.83" x2="238.38" y2="233.6"/><polygon points="245.85 235.79 238.38 222.83 230.9 235.79 245.85 235.79"/></g><g><rect class="cls-10" x="63.5" y="396.5" width="350" height="88"/><text class="cls-3" transform="translate(159.43 447.04)"><tspan class="cls-16" x="0" y="0">V</tspan><tspan class="cls-5" x="14.54" y="0">ali</tspan><tspan class="cls-20" x="39.34" y="0">da</tspan><tspan class="cls-37" x="65.98" y="0">t</tspan><tspan class="cls-5" x="74.42" y="0">or</tspan><tspan class="cls-11" x="96.96" y="0">P</tspan><tspan class="cls-34" x="110.85" y="0">r</tspan><tspan class="cls-22" x="119.66" y="0">o</tspan><tspan class="cls-27" x="132.96" y="0">x</tspan><tspan class="cls-5" x="145.1" y="0">y</tspan></text></g><g><line class="cls-7" x1="238.38" y1="395.83" x2="238.38" y2="364.6"/><polygon points="245.85 366.79 238.38 353.83 230.9 366.79 245.85 366.79"/></g><g><rect class="cls-10" x="63.5" y="527.5" width="350" height="88"/><text class="cls-3" transform="translate(176.71 578.04)"><tspan class="cls-12" x="0" y="0">A</tspan><tspan class="cls-31" x="16.58" y="0">gg</tspan><tspan class="cls-34" x="44.38" y="0">r</tspan><tspan class="cls-5" x="53.18" y="0">e</tspan><tspan class="cls-32" x="66.1" y="0">g</tspan><tspan class="cls-19" x="79.87" y="0">a</tspan><tspan class="cls-34" x="92.35" y="0">t</tspan><tspan class="cls-5" x="100.8" y="0">or</tspan></text></g><g><rect class="cls-10" x="64" y="732" width="350" height="88"/><text class="cls-3" transform="translate(147.95 782.54)"><tspan class="cls-5" x="0" y="0">E</tspan><tspan class="cls-21" x="13.73" y="0">x</tspan><tspan class="cls-34" x="25.97" y="0">t</tspan><tspan class="cls-5" x="34.42" y="0">e</tspan><tspan class="cls-26" x="47.33" y="0">r</tspan><tspan class="cls-5" x="56.25" y="0">nal </tspan><tspan class="cls-12" x="94.17" y="0">A</tspan><tspan class="cls-19" x="110.76" y="0">d</tspan><tspan class="cls-5" x="124.92" y="0">a</tspan><tspan class="cls-34" x="137.45" y="0">pt</tspan><tspan class="cls-31" x="160.08" y="0">er</tspan></text></g><g><line class="cls-7" x1="238.38" y1="526.83" x2="238.38" y2="495.6"/><polygon points="245.85 497.79 238.38 484.83 230.9 497.79 245.85 497.79"/></g><g><line class="cls-7" x1="238" y1="733" x2="238" y2="627.76"/><polygon points="245.48 629.95 238 617 230.52 629.95 245.48 629.95"/></g><g><rect class="cls-10" x="1268.22" y="265.5" width="350" height="88"/><text class="cls-3" transform="translate(1341.51 316.04)"><tspan class="cls-5" x="0" y="0">O</tspan><tspan class="cls-34" x="19.08" y="0">p</tspan><tspan class="cls-26" x="33.26" y="0">t</tspan><tspan class="cls-31" x="41.83" y="0">imism</tspan><tspan class="cls-16" x="106.22" y="0">V</tspan><tspan class="cls-5" x="120.77" y="0">ali</tspan><tspan class="cls-19" x="145.56" y="0">da</tspan><tspan class="cls-34" x="172.2" y="0">t</tspan><tspan class="cls-5" x="180.65" y="0">or</tspan></text></g><g><line class="cls-7" x1="1443.38" y1="222.83" x2="1443.38" y2="254.07"/><polygon points="1435.9 251.88 1443.38 264.83 1450.85 251.88 1435.9 251.88"/></g><g><rect class="cls-10" x="1268.22" y="396.5" width="350" height="88"/><text class="cls-3" transform="translate(1350.96 447.04)"><tspan class="cls-12" x="0" y="0">A</tspan><tspan class="cls-31" x="16.58" y="0">gg</tspan><tspan class="cls-34" x="44.38" y="0">r</tspan><tspan class="cls-5" x="53.18" y="0">e</tspan><tspan class="cls-32" x="66.1" y="0">g</tspan><tspan class="cls-19" x="79.87" y="0">a</tspan><tspan class="cls-34" x="92.35" y="0">t</tspan><tspan class="cls-5" x="100.8" y="0">or</tspan><tspan class="cls-11" x="123.33" y="0">P</tspan><tspan class="cls-34" x="137.23" y="0">r</tspan><tspan class="cls-22" x="146.04" y="0">o</tspan><tspan class="cls-24" x="159.33" y="0">x</tspan><tspan class="cls-31" x="171.48" y="0">y</tspan></text></g><g><line class="cls-7" x1="1443.38" y1="395.83" x2="1443.38" y2="364.6"/><polygon points="1450.85 366.79 1443.38 353.83 1435.9 366.79 1450.85 366.79"/></g><g><rect class="cls-9" x="1268.22" y="527.5" width="350" height="88"/><text class="cls-1" transform="translate(1387.38 578.04)"><tspan class="cls-23" x="0" y="0">C</tspan><tspan class="cls-5" x="17.52" y="0">on</tspan><tspan class="cls-32" x="44.71" y="0">s</tspan><tspan class="cls-5" x="55.32" y="0">umer</tspan></text></g><g><line class="cls-7" x1="1443.38" y1="526.83" x2="1443.38" y2="495.6"/><polygon points="1450.85 497.79 1443.38 484.83 1435.9 497.79 1450.85 497.79"/></g></g></svg>