<svg width="24" height="24" viewBox="0 0 24 24" fill="none" xmlns="http://www.w3.org/2000/svg">
<path d="M19.971 5.99005C19.971 5.99005 17.6594 4.1592 14.9493 4L14.7101 4.47761C17.1812 5.11443 18.2971 5.91045 19.413 6.94527C17.4203 5.91045 15.4275 4.95522 11.9203 4.95522C8.41304 4.95522 6.5 5.99005 4.50725 7.02488C5.7029 5.99005 6.97826 5.03483 9.21014 4.47761L8.97101 4C6.18116 4.31841 4.02899 5.99005 4.02899 5.99005C4.02899 5.99005 1.47826 9.73134 1 16.9751C3.55072 19.9204 7.53623 20 7.53623 20L8.33333 18.8856C6.97826 18.408 5.38406 17.5323 4.02899 16.0199C5.62319 17.2139 8.0942 18.4876 12 18.4876C15.9058 18.4876 18.3768 17.2139 19.971 16.0199C18.6159 17.6119 17.0217 18.408 15.6667 18.8856L16.4638 20C16.4638 20 20.3696 20 23 16.9751C22.5217 9.73134 19.971 5.99005 19.971 5.99005ZM8.73188 14.9851C7.77536 14.9851 6.97826 14.1095 6.97826 12.995C6.97826 11.8806 7.77536 11.005 8.73188 11.005C9.68841 11.005 10.4855 11.8806 10.4855 12.995C10.4855 14.1095 9.68841 14.9851 8.73188 14.9851ZM15.2681 14.9851C14.3116 14.9851 13.5145 14.1095 13.5145 12.995C13.5145 11.8806 14.3116 11.005 15.2681 11.005C16.2246 11.005 17.0217 11.8806 17.0217 12.995C17.0217 14.1095 16.2246 14.9851 15.2681 14.9851Z" fill="#375BD2"/>
</svg>
