<svg xmlns="http://www.w3.org/2000/svg" xmlns:xlink="http://www.w3.org/1999/xlink" width="3461" height="1242" fill="none"><g clip-path="url(#G)"><path fill="url(#A)" d="M0 0h3461v1242H0z"/><path d="M-111.513-220.712L230.5-418.422l342.013 197.71v395.424L230.5 372.422l-342.013-197.71v-395.424z" fill="url(#B)" stroke="#e9edfc"/><path d="M-112.513 966.288L229.5 768.578l342.013 197.71v395.422L229.5 1559.42l-342.013-197.71V966.288z" fill="url(#C)" stroke="#e4e9fb"/><path d="M-453.513 372.288l342.013-197.71 342.013 197.71v395.424L-111.5 965.422l-342.013-197.71V372.288z" fill="url(#D)" stroke="#eaeffd"/><path d="M572.554-220.711L915-418.423l342.45 197.712v395.422L915 372.423 572.554 174.711v-395.422z" fill="#ecf1fd" stroke="#dfe6f9"/><g stroke="#e9eefc"><path d="M230.487 372.288L572.5 174.578l342.013 197.71v395.424L572.5 965.422l-342.013-197.71V372.288z" fill="url(#E)"/><path d="M914.554 372.289L1257 174.577l342.45 197.712v395.422L1257 965.423 914.554 767.711V372.289z" fill="#ebf0fd"/><path d="M2428.75 790.789L2947 491.577l518.25 299.212v598.421L2947 1688.42l-518.25-299.21V790.789z" fill="url(#F)"/></g></g><defs><linearGradient id="A" x1="3461" y1="564.999" x2="0" y2="564.999" xlink:href="#H"><stop stop-color="#e0e8fc"/><stop offset="1" stop-color="#f3f6fe"/></linearGradient><linearGradient id="B" x1="441.606" y1="266.02" x2="138.494" y2="-162.643" xlink:href="#H"><stop stop-color="#eef2fe"/><stop offset="1" stop-color="#e9eefc"/></linearGradient><linearGradient id="C" x1="586" y1="1164" x2="42.044" y2="1093.66" xlink:href="#H"><stop offset=".007" stop-color="#e7ecfc"/><stop offset="1" stop-color="#f3f5fe"/></linearGradient><linearGradient id="D" x1="-451.854" y1="644.196" x2="227.151" y2="570.185" xlink:href="#H"><stop offset=".581" stop-color="#f4f6fe"/><stop offset="1" stop-color="#f1f4fe"/></linearGradient><linearGradient id="E" x1="572.5" y1="174" x2="572.5" y2="966" xlink:href="#H"><stop stop-color="#f0f4fe"/><stop offset="1" stop-color="#edf1fe"/></linearGradient><linearGradient id="F" x1="2459" y1="953" x2="3423" y2="1045" xlink:href="#H"><stop stop-color="#e3ebfc"/><stop offset="1" stop-color="#dde6fb"/></linearGradient><clipPath id="G"><path fill="#fff" d="M0 0h3461v1242H0z"/></clipPath><linearGradient id="H" gradientUnits="userSpaceOnUse"/></defs></svg>