<svg width="24" height="24" viewBox="0 0 24 24" fill="none" xmlns="http://www.w3.org/2000/svg">
<path d="M14.238 15.348C14.323 15.432 14.323 15.569 14.238 15.654C13.773 16.116 13.044 16.341 12.007 16.341L11.999 16.339L11.991 16.341C10.955 16.341 10.225 16.116 9.76 15.653C9.675 15.569 9.675 15.432 9.76 15.348C9.844 15.264 9.982 15.264 10.067 15.348C10.446 15.725 11.075 15.909 11.991 15.909L11.999 15.911L12.007 15.909C12.922 15.909 13.551 15.725 13.931 15.348C14.016 15.264 14.154 15.264 14.238 15.348ZM10.798 12.93C10.798 12.423 10.384 12.011 9.876 12.011C9.367 12.011 8.953 12.423 8.953 12.93C8.953 13.436 9.367 13.848 9.876 13.848C10.384 13.849 10.798 13.437 10.798 12.93ZM24 12C24 18.627 18.627 24 12 24C5.373 24 0 18.627 0 12C0 5.373 5.373 0 12 0C18.627 0 24 5.373 24 12ZM19 11.871C19 11.02 18.305 10.328 17.45 10.328C17.033 10.328 16.655 10.495 16.376 10.763C15.32 10.068 13.891 9.626 12.31 9.569L13.175 6.845L15.518 7.394L15.515 7.428C15.515 8.124 16.084 8.69 16.783 8.69C17.482 8.69 18.05 8.124 18.05 7.428C18.05 6.732 17.482 6.166 16.783 6.166C16.246 6.166 15.789 6.501 15.604 6.97L13.079 6.378C12.969 6.351 12.856 6.415 12.822 6.523L11.857 9.561C10.201 9.581 8.702 10.027 7.599 10.742C7.322 10.487 6.955 10.327 6.549 10.327C5.695 10.328 5 11.02 5 11.871C5 12.437 5.311 12.927 5.768 13.196C5.738 13.36 5.718 13.527 5.718 13.696C5.718 15.977 8.523 17.833 11.971 17.833C15.419 17.833 18.224 15.977 18.224 13.696C18.224 13.536 18.207 13.379 18.18 13.224C18.666 12.963 19 12.458 19 11.871ZM14.128 12.012C13.619 12.012 13.206 12.424 13.206 12.931C13.206 13.437 13.62 13.849 14.128 13.849C14.636 13.849 15.05 13.437 15.05 12.931C15.05 12.424 14.637 12.012 14.128 12.012Z" fill="#375BD2"/>
</svg>
