<svg width="24" height="24" viewBox="0 0 24 24" fill="none" xmlns="http://www.w3.org/2000/svg">
<path fill-rule="evenodd" clip-rule="evenodd" d="M17.2862 19.82C17.5746 20.0278 17.9351 20.0278 18.2235 19.9586C18.5119 19.82 18.7283 19.6122 18.8004 19.2659C19.5214 16.0104 21.2519 7.69832 21.973 4.78911C22.0451 4.58131 21.973 4.30424 21.7567 4.16571C21.5403 4.02717 21.324 3.95791 21.1077 4.02717C17.6467 5.27398 6.831 9.15293 2.43263 10.6768C2.14421 10.7461 2 11.0231 2 11.3002C2 11.5773 2.21631 11.8543 2.50473 11.9236C4.45155 12.4777 7.04732 13.3089 7.04732 13.3089C7.04732 13.3089 8.2731 16.8416 8.92204 18.5732C8.99414 18.781 9.21045 18.9888 9.42677 19.0581C9.64308 19.1274 9.9315 19.0581 10.0757 18.9196C11.0852 18.0191 12.6715 16.5645 12.6715 16.5645C12.6715 16.5645 15.6278 18.6425 17.2862 19.82ZM8.12889 12.8241L9.49888 17.2572L9.78729 14.4172C9.78729 14.4172 15.1951 9.70706 18.2956 7.07492C18.3677 7.00565 18.3677 6.86712 18.2956 6.79785C18.2235 6.72858 18.0793 6.65932 18.0072 6.72858C14.4741 8.94513 8.12889 12.8241 8.12889 12.8241Z" fill="#375BD2"/>
</svg>
