<svg width="24" height="24" viewBox="0 0 24 24" fill="none" xmlns="http://www.w3.org/2000/svg">
<path d="M8.25955 20C15.8168 20 19.9389 13.8692 19.9389 8.56077C19.9389 8.41124 19.9389 8.18693 19.9389 8.0374C20.7786 7.43927 21.4656 6.76638 22 5.94395C21.2366 6.24302 20.4733 6.46731 19.6336 6.54207C20.4733 6.01871 21.1603 5.27104 21.4656 4.29908C20.7023 4.74768 19.7863 5.1215 18.8702 5.27104C18.1069 4.52337 17.0382 4 15.8931 4C13.6031 4 11.771 5.79441 11.771 8.0374C11.771 8.33646 11.771 8.63554 11.8473 8.9346C8.41223 8.78507 5.4351 7.14018 3.37404 4.74766C2.99236 5.34579 2.83972 6.0187 2.83972 6.76636C2.83972 8.18692 3.60305 9.38318 4.67175 10.1308C3.98473 10.1308 3.37407 9.90654 2.83972 9.60747C2.83972 9.60747 2.83972 9.6075 2.83972 9.68226C2.83972 11.6262 4.29009 13.271 6.12215 13.6449C5.74047 13.7196 5.43511 13.7944 5.05343 13.7944C4.82443 13.7944 4.51908 13.7944 4.29008 13.7196C4.82443 15.2897 6.35114 16.486 8.10687 16.486C6.73282 17.5327 4.90075 18.2056 2.99236 18.2056C2.68701 18.2056 2.30534 18.2056 2 18.1308C3.83206 19.3271 5.96947 20 8.25955 20Z" fill="#375BD2"/>
</svg>
