<svg width="24" height="24" viewBox="0 0 24 24" fill="none" xmlns="http://www.w3.org/2000/svg">
<path fill-rule="evenodd" clip-rule="evenodd" d="M19.9167 18.2591C21.1667 17.3472 22 16.0207 22 14.4456C22 11.7098 19.3333 9.4715 16 9.4715C12.6667 9.4715 10 11.7098 10 14.4456C10 17.1813 12.6667 19.4197 16 19.4197C16.6667 19.4197 17.3333 19.3368 18 19.171H18.1667C18.25 19.171 18.4167 19.171 18.5 19.2539L19.8333 20H19.9167C20 20 20.0833 19.9171 20.0833 19.8342V19.6684L19.8333 18.6736V18.5078C19.75 18.5078 19.8333 18.342 19.9167 18.2591ZM9.25 4C5.25 4 2 6.65285 2 9.96891C2 11.7927 3 13.3679 4.5 14.5285C4.58333 14.6114 4.66667 14.7772 4.66667 14.943V15.1088L4.33333 16.3523V16.5181C4.33333 16.6839 4.41667 16.7668 4.58333 16.7668L4.75 16.6839L6.33333 15.772C6.41667 15.6891 6.5 15.6062 6.66667 15.6062H6.91667C7.66667 15.8549 8.41667 15.9378 9.25 15.9378H9.66667C9.5 15.4404 9.41667 14.943 9.41667 14.4456C9.41667 11.4611 12.3333 8.97409 16 8.97409H16.4167C15.8333 6.15544 12.8333 4 9.25 4ZM14 13.6995C13.5833 13.6995 13.1667 13.3679 13.1667 12.8705C13.1667 12.456 13.5 12.0415 14 12.0415C14.4167 12.0415 14.8333 12.3731 14.8333 12.8705C14.75 13.3679 14.4167 13.6995 14 13.6995ZM18 13.6995C17.5833 13.6995 17.1667 13.3679 17.1667 12.8705C17.1667 12.456 17.5 12.0415 18 12.0415C18.4167 12.0415 18.8333 12.3731 18.8333 12.8705C18.75 13.3679 18.4167 13.6995 18 13.6995ZM6.83333 9.05699C6.33333 9.05699 5.83333 8.64249 5.83333 8.06218C5.83333 7.56477 6.25 7.06736 6.83333 7.06736C7.41667 7.06736 7.83333 7.48187 7.83333 8.06218C7.75 8.64249 7.33333 9.05699 6.83333 9.05699ZM11.6667 9.05699C11.1667 9.05699 10.6667 8.64249 10.6667 8.06218C10.6667 7.56477 11.0833 7.06736 11.6667 7.06736C12.25 7.06736 12.6667 7.48187 12.6667 8.06218C12.5833 8.64249 12.1667 9.05699 11.6667 9.05699Z" fill="#375BD2"/>
</svg>
