<svg width="24" height="24" viewBox="0 0 24 24" fill="none" xmlns="http://www.w3.org/2000/svg">
<path d="M12.5 4C12.5 4 5.49999 4.00003 3.5 4.50003C2.5 5.00003 1.99999 5.5 1.49999 6.5C0.999992 8.49999 1 12 1 12C1 12 0.999992 15.5 1.49999 17.5C1.99999 18.5 2.5 19 3.5 19.5C5.49999 20 12.5 20 12.5 20C12.5 20 19.5 20 21.5 19.5C22.5 19 23 18.5 23.5 17.5C24 15.5 24 12 24 12C24 12 24 8.49999 23.5 6.5C23 5.5 22.5 5.00003 21.5 4.50003C19.5 4.00003 12.5 4 12.5 4ZM10.5 8.5L16.5 12L10.5 15.5V8.5Z" fill="#375BD2"/>
</svg>
