<?xml version="1.0" encoding="UTF-8" standalone="no"?>
<svg
   xmlns:dc="http://purl.org/dc/elements/1.1/"
   xmlns:cc="http://creativecommons.org/ns#"
   xmlns:rdf="http://www.w3.org/1999/02/22-rdf-syntax-ns#"
   xmlns:svg="http://www.w3.org/2000/svg"
   xmlns="http://www.w3.org/2000/svg"
   xmlns:sodipodi="http://sodipodi.sourceforge.net/DTD/sodipodi-0.dtd"
   xmlns:inkscape="http://www.inkscape.org/namespaces/inkscape"
   width="11.4929mm"
   height="11.209467mm"
   viewBox="0 0 11.4929 11.209467"
   version="1.1"
   id="svg302"
   inkscape:version="1.0.1 (3bc2e813f5, 2020-09-07)"
   sodipodi:docname="github.svg">
  <defs
     id="defs296" />
  <sodipodi:namedview
     id="base"
     pagecolor="#ffffff"
     bordercolor="#666666"
     borderopacity="1.0"
     inkscape:pageopacity="0.0"
     inkscape:pageshadow="2"
     inkscape:zoom="0.35"
     inkscape:cx="-203.99496"
     inkscape:cy="272.61181"
     inkscape:document-units="mm"
     inkscape:current-layer="layer1"
     inkscape:document-rotation="0"
     showgrid="false"
     fit-margin-top="0"
     fit-margin-left="0"
     fit-margin-right="0"
     fit-margin-bottom="0"
     inkscape:window-width="1343"
     inkscape:window-height="908"
     inkscape:window-x="0"
     inkscape:window-y="0"
     inkscape:window-maximized="0" />
  <metadata
     id="metadata299">
    <rdf:RDF>
      <cc:Work
         rdf:about="">
        <dc:format>image/svg+xml</dc:format>
        <dc:type
           rdf:resource="http://purl.org/dc/dcmitype/StillImage" />
        <dc:title></dc:title>
      </cc:Work>
    </rdf:RDF>
  </metadata>
  <g
     inkscape:label="Layer 1"
     inkscape:groupmode="layer"
     id="layer1"
     transform="translate(-159.807,-76.038124)">
    <path
       d="m 165.55304,76.038124 c -3.17288,0 -5.74604,2.572808 -5.74604,5.74675 0,2.538589 1.64641,4.69265 3.92994,5.452886 0.28752,0.05256 0.39229,-0.124884 0.39229,-0.277284 0,-0.136525 -0.005,-0.497769 -0.008,-0.977194 -1.59843,0.347133 -1.93569,-0.770467 -1.93569,-0.770467 -0.26141,-0.663927 -0.63818,-0.840669 -0.63818,-0.840669 -0.52175,-0.356306 0.0395,-0.34925 0.0395,-0.34925 0.57679,0.04057 0.88018,0.592314 0.88018,0.592314 0.51258,0.878064 1.34514,0.624416 1.67252,0.477308 0.0522,-0.371122 0.20073,-0.624416 0.36477,-0.767997 -1.276,-0.145344 -2.61761,-0.638175 -2.61761,-2.840214 0,-0.627591 0.22401,-1.140178 0.59161,-1.541991 -0.0593,-0.145345 -0.25647,-0.729545 0.0564,-1.520825 0,0 0.48225,-0.154517 1.58009,0.588786 0.45826,-0.127353 0.95003,-0.190853 1.43863,-0.193323 0.48824,0.0025 0.97966,0.06597 1.43863,0.193323 1.09714,-0.743303 1.57868,-0.588786 1.57868,-0.588786 0.31362,0.79128 0.11641,1.37548 0.0575,1.520825 0.3683,0.401813 0.59055,0.9144 0.59055,1.541991 0,2.207683 -1.34373,2.693458 -2.62361,2.835628 0.20602,0.177447 0.38982,0.528108 0.38982,1.06433 0,0.767998 -0.007,1.387828 -0.007,1.576211 0,0.153812 0.10372,0.33267 0.39511,0.276578 2.28177,-0.761647 3.92677,-2.913944 3.92677,-5.45218 0,-3.173942 -2.57316,-5.74675 -5.7471,-5.74675"
       style="fill:#1b1817;fill-opacity:1;fill-rule:evenodd;stroke:none;stroke-width:0.0352777"
       id="path16" />
  </g>
</svg>
