<svg xmlns="http://www.w3.org/2000/svg" width="35" height="35" viewBox="0 0 35 35" fill="none">
  <path d="M17.5003 0C7.8314 0 0 8.03465 0 17.9439C0 25.8737 5.01357 32.598 11.9659 34.969C12.8409 35.1381 13.1615 34.5824 13.1615 34.1059C13.1615 33.6801 13.1471 32.5509 13.1396 31.0551C8.27165 32.1372 7.24487 28.6477 7.24487 28.6477C6.44847 26.577 5.29796 26.0228 5.29796 26.0228C3.71267 24.9107 5.42032 24.9335 5.42032 24.9335C7.17787 25.0584 8.10074 26.7824 8.10074 26.7824C9.66142 29.5258 12.1976 28.7333 13.1977 28.2754C13.3549 27.1141 13.8061 26.3245 14.3058 25.8758C10.4195 25.4271 6.3343 23.8836 6.3343 17.0087C6.3343 15.05 7.01244 13.4493 8.13561 12.1939C7.93873 11.7403 7.34809 9.91564 8.28874 7.44475C8.28874 7.44475 9.75439 6.96399 13.1013 9.28436C14.5014 8.88563 15.9889 8.68804 17.4764 8.67877C18.9639 8.68804 20.4515 8.88563 21.8515 9.28436C25.1766 6.96399 26.6422 7.44475 26.6422 7.44475C27.5829 9.91635 26.9922 11.7403 26.8172 12.1939C27.9329 13.4493 28.611 15.05 28.611 17.0087C28.611 23.9021 24.5203 25.4193 20.6265 25.8608C21.239 26.3994 21.8078 27.5 21.8078 29.1813C21.8078 31.5822 21.7859 33.5117 21.7859 34.0952C21.7859 34.5653 22.0921 35.1266 22.989 34.9476C29.9905 32.5923 35 25.863 35 17.9453C35.0007 8.03465 27.1652 0 17.5003 0Z" fill="#DADADA"/>
</svg>