
<svg width="24" height="24" viewBox="0 0 24 24" fill="none" xmlns="http://www.w3.org/2000/svg">
<g clip-path="url(#clip0_165_28010)">
<path d="M23.41 20.5901L18.77 16.0001C20.0385 14.0994 20.6355 11.8293 20.4662 9.55051C20.2969 7.27169 19.3709 5.1148 17.8354 3.42248C16.2999 1.73016 14.2429 0.59947 11.9913 0.210027C9.73959 -0.179416 7.42235 0.194724 5.40765 1.27301C3.39296 2.3513 1.79635 4.07189 0.871476 6.16146C-0.053403 8.25103 -0.253513 10.5897 0.302934 12.8061C0.859382 15.0224 2.14047 16.9892 3.9427 18.3941C5.74492 19.799 7.96492 20.5613 10.25 20.5601C12.278 20.5621 14.26 19.956 15.94 18.8201L20.59 23.4701C20.9647 23.8426 21.4717 24.0517 22 24.0517C22.5284 24.0517 23.0353 23.8426 23.41 23.4701C23.6036 23.2835 23.7576 23.0598 23.8627 22.8124C23.9679 22.565 24.0221 22.2989 24.0221 22.0301C24.0221 21.7612 23.9679 21.4952 23.8627 21.2477C23.7576 21.0003 23.6036 20.7766 23.41 20.5901ZM10.25 3.00007C11.6835 3.00007 13.0848 3.42503 14.2769 4.22123C15.4689 5.01742 16.3982 6.14913 16.9472 7.47331C17.4962 8.79749 17.6404 10.2547 17.3614 11.6608C17.0825 13.0669 16.393 14.3587 15.3801 15.3731C14.3671 16.3874 13.0763 17.0787 11.6705 17.3595C10.2648 17.6404 8.80743 17.4983 7.48249 16.9511C6.15755 16.4039 5.02457 15.4762 4.22673 14.2852C3.42889 13.0943 3.002 11.6936 3.00002 10.2601C3.00002 8.33633 3.76354 6.49124 5.12289 5.13001C6.48224 3.76878 8.32628 3.00272 10.25 3.00007Z" fill="#375BD2"/>
</g>
<defs>
<clipPath id="clip0_165_28010">
<rect width="24" height="24" fill="white"/>
</clipPath>
</defs>
</svg>
