<svg width="20" height="20" viewBox="0 0 20 20" fill="none" xmlns="http://www.w3.org/2000/svg">
<path d="M17.9517 11.6697L18.5634 11.7981C18.602 11.6138 18.5556 11.4219 18.4369 11.2758C18.3182 11.1296 18.14 11.0447 17.9517 11.0447V11.6697ZM8.1131 2.09766L8.7381 2.09911C8.73854 1.90756 8.65113 1.72638 8.50091 1.60752C8.35069 1.48867 8.15427 1.44526 7.96796 1.48974L8.1131 2.09766ZM17.34 11.5413C17.0642 12.8554 16.4406 14.0713 15.5345 15.0621L16.4569 15.9057C17.5141 14.7497 18.2416 13.3312 18.5634 11.7981L17.34 11.5413ZM15.5345 15.0621C14.6283 16.0529 13.4728 16.7823 12.1885 17.1741L12.5533 18.3697C14.0516 17.9126 15.3997 17.0617 16.4569 15.9057L15.5345 15.0621ZM12.1885 17.1741C10.9042 17.5659 9.53834 17.6058 8.23342 17.2895L7.93899 18.5043C9.4614 18.8733 11.055 18.8268 12.5533 18.3697L12.1885 17.1741ZM8.23342 17.2895C6.9285 16.9732 5.7324 16.3124 4.77002 15.3761L3.89836 16.2721C5.02114 17.3644 6.41658 18.1353 7.93899 18.5043L8.23342 17.2895ZM4.77002 15.3761C3.80764 14.4398 3.11426 13.2623 2.76228 11.9666L1.55599 12.2943C1.96664 13.806 2.77558 15.1797 3.89836 16.2721L4.77002 15.3761ZM2.76228 11.9666C2.4103 10.6708 2.41263 9.30436 2.76902 8.00982L1.56385 7.67803C1.14807 9.18833 1.14535 10.7826 1.55599 12.2943L2.76228 11.9666ZM2.76902 8.00982C3.12541 6.71528 3.82279 5.54015 4.78835 4.60712L3.91975 3.70822C2.79325 4.79675 1.97964 6.16774 1.56385 7.67803L2.76902 8.00982ZM4.78835 4.60712C5.75392 3.6741 6.95225 3.01739 8.25825 2.70557L7.96796 1.48974C6.4443 1.85353 5.04624 2.61969 3.91975 3.70822L4.78835 4.60712ZM7.4881 2.09621C7.48416 3.79534 7.99812 6.32746 9.56884 8.45176C11.1625 10.6071 13.8113 12.2947 17.9517 12.2947V11.0447C14.2034 11.0447 11.9293 9.54164 10.5739 7.7086C9.19565 5.84455 8.73464 3.59065 8.7381 2.09911L7.4881 2.09621Z" fill="currentColor"/>
</svg>
