<svg width="20" height="20" viewBox="0 0 20 20" fill="none" xmlns="http://www.w3.org/2000/svg">
<path fill-rule="evenodd" clip-rule="evenodd" d="M10 1.25C10.3452 1.25 10.625 1.52982 10.625 1.875V3.75C10.625 4.09518 10.3452 4.375 10 4.375C9.65482 4.375 9.375 4.09518 9.375 3.75V1.875C9.375 1.52982 9.65482 1.25 10 1.25ZM10 13.125C11.7259 13.125 13.125 11.7259 13.125 10C13.125 8.27411 11.7259 6.875 10 6.875C8.27411 6.875 6.875 8.27411 6.875 10C6.875 11.7259 8.27411 13.125 10 13.125ZM10 14.375C12.4162 14.375 14.375 12.4162 14.375 10C14.375 7.58375 12.4162 5.625 10 5.625C7.58375 5.625 5.625 7.58375 5.625 10C5.625 12.4162 7.58375 14.375 10 14.375ZM10.625 16.25C10.625 15.9048 10.3452 15.625 10 15.625C9.65482 15.625 9.375 15.9048 9.375 16.25V18.125C9.375 18.4702 9.65482 18.75 10 18.75C10.3452 18.75 10.625 18.4702 10.625 18.125V16.25ZM1.25 10C1.25 9.65482 1.52982 9.375 1.875 9.375H3.75C4.09518 9.375 4.375 9.65482 4.375 10C4.375 10.3452 4.09518 10.625 3.75 10.625H1.875C1.52982 10.625 1.25 10.3452 1.25 10ZM16.25 9.375C15.9048 9.375 15.625 9.65482 15.625 10C15.625 10.3452 15.9048 10.625 16.25 10.625H18.125C18.4702 10.625 18.75 10.3452 18.75 10C18.75 9.65482 18.4702 9.375 18.125 9.375H16.25ZM13.9332 6.14263C13.6891 5.89855 13.6891 5.50282 13.9332 5.25874L15.259 3.93292C15.5031 3.68884 15.8988 3.68884 16.1429 3.93292C16.3869 4.17699 16.3869 4.57272 16.1429 4.8168L14.817 6.14263C14.573 6.3867 14.1772 6.3867 13.9332 6.14263ZM16.1428 15.259L14.8169 13.9332C14.5729 13.6891 14.1771 13.6891 13.9331 13.9332C13.689 14.1772 13.689 14.573 13.9331 14.817L15.2589 16.1429C15.503 16.3869 15.8987 16.3869 16.1428 16.1429C16.3868 15.8988 16.3868 15.5031 16.1428 15.259ZM3.93315 16.1426C3.68907 15.8985 3.68907 15.5028 3.93315 15.2587L5.25898 13.9329C5.50306 13.6888 5.89878 13.6888 6.14286 13.9329C6.38694 14.177 6.38694 14.5727 6.14286 14.8168L4.81704 16.1426C4.57296 16.3867 4.17723 16.3867 3.93315 16.1426ZM4.81694 3.93315C4.57286 3.68907 4.17714 3.68907 3.93306 3.93315C3.68898 4.17723 3.68898 4.57296 3.93306 4.81704L5.25888 6.14286C5.50296 6.38694 5.89869 6.38694 6.14277 6.14286C6.38684 5.89878 6.38684 5.50306 6.14277 5.25898L4.81694 3.93315Z" fill="currentColor"/>
</svg>
