<svg width="81" height="23" viewBox="0 0 81 23" fill="none" xmlns="http://www.w3.org/2000/svg">
<path d="M30.6132 6.10094C29.113 6.10094 27.9569 6.95987 27.9569 8.23498C27.9569 9.47467 28.9365 9.89971 30.1543 10.1299L31.6898 10.3779C33.7283 10.7144 35.1314 11.653 35.1314 13.8844C35.1314 16.2133 33.2253 17.5769 30.7985 17.5769C28.61 17.5769 26.545 16.2841 26.2449 13.7516C26.2185 13.5391 26.3861 13.3531 26.5979 13.3531H27.5157C27.6922 13.3531 27.8422 13.486 27.8687 13.6631C28.0628 15.4518 29.4483 16.1601 30.8073 16.1601C32.2899 16.1601 33.4636 15.4252 33.4636 13.9376C33.4636 12.6093 32.5193 12.1489 31.2662 11.9098L29.7484 11.6441C27.6216 11.2899 26.2891 10.2628 26.2891 8.31467C26.2891 6.05666 28.2482 4.67529 30.6043 4.67529C32.484 4.67529 34.5578 5.73789 34.9638 8.26154C34.9991 8.47406 34.8314 8.67773 34.6108 8.67773H33.6577C33.49 8.67773 33.34 8.55376 33.3135 8.38551C33.04 6.71193 31.8222 6.10094 30.6132 6.10094Z" fill="#FFF8F3"/>
<path d="M41.2371 7.48242C43.505 7.48242 45.12 8.69555 45.6936 10.6791C45.7553 10.9004 45.5877 11.1307 45.3494 11.1307H44.2816C44.1316 11.1307 43.9992 11.0333 43.9463 10.8916C43.5492 9.75814 42.6314 9.11173 41.2371 9.11173C39.3398 9.11173 38.2808 10.6613 38.2808 12.5297C38.2808 14.3893 39.3486 15.9477 41.2371 15.9477C42.6314 15.9477 43.5492 15.3013 43.9463 14.1679C43.9992 14.0262 44.1316 13.9288 44.2816 13.9288H45.3494C45.5877 13.9288 45.7553 14.159 45.6847 14.3804C45.0758 16.4525 43.5139 17.5771 41.2371 17.5771C38.3161 17.5771 36.4629 15.3102 36.4629 12.5297C36.4541 9.75814 38.3161 7.48242 41.2371 7.48242Z" fill="#FFF8F3"/>
<path d="M47.407 15.9652H49.6926V9.58961H47.6541C47.46 9.58961 47.3011 9.43022 47.3011 9.23541V8.33221C47.3011 8.1374 47.46 7.97801 47.6541 7.97801H50.4339C51.0163 7.97801 51.4929 8.45618 51.4929 9.04061V9.2974C51.9959 8.08427 53.0813 7.7832 54.7668 7.7832C55.411 7.7832 55.8434 7.88946 56.0905 7.97801C56.2317 8.03114 56.32 8.16396 56.32 8.30564V9.24427C56.32 9.48335 56.0905 9.66045 55.8611 9.58076C55.561 9.48335 55.1375 9.3948 54.5815 9.3948C52.7813 9.3948 51.5017 10.6256 51.5017 12.7597V15.9652H54.4403C54.6345 15.9652 54.7933 16.1246 54.7933 16.3194V17.2226C54.7933 17.4174 54.6345 17.5768 54.4403 17.5768H47.4158C47.2217 17.5768 47.0629 17.4174 47.0629 17.2226V16.3194C47.054 16.1246 47.2129 15.9652 47.407 15.9652Z" fill="#FFF8F3"/>
<path d="M57.6602 12.5297C57.6602 9.75814 59.4957 7.48242 62.4784 7.48242C65.4612 7.48242 67.2967 9.74929 67.2967 12.5297C67.2967 15.3102 65.4612 17.5771 62.4784 17.5771C59.4957 17.5771 57.6602 15.3102 57.6602 12.5297ZM62.4784 15.9477C64.3934 15.9477 65.4965 14.3981 65.4965 12.5297C65.4965 10.6702 64.3934 9.11173 62.4784 9.11173C60.5635 9.11173 59.4604 10.6613 59.4604 12.5297C59.4604 14.3981 60.5635 15.9477 62.4784 15.9477Z" fill="#FFF8F3"/>
<path d="M71.2855 16.0454H74.0476C74.2417 16.0454 74.4006 16.2047 74.4006 16.3996V17.2319C74.4006 17.4267 74.2417 17.5861 74.0476 17.5861H69.9088C69.7147 17.5861 69.5558 17.4267 69.5558 17.2319V6.30492H68.1792C67.985 6.30492 67.8262 6.14553 67.8262 5.95072V5.11836C67.8262 4.92355 67.985 4.76416 68.1792 4.76416H70.2177C70.8001 4.76416 71.2766 5.24233 71.2766 5.82675V16.0454H71.2855Z" fill="#FFF8F3"/>
<path d="M77.3929 16.0454H80.155C80.3492 16.0454 80.508 16.2047 80.508 16.3996V17.2319C80.508 17.4267 80.3492 17.5861 80.155 17.5861H76.0162C75.8221 17.5861 75.6632 17.4267 75.6632 17.2319V6.30492H74.2866C74.0924 6.30492 73.9336 6.14553 73.9336 5.95072V5.11836C73.9336 4.92355 74.0924 4.76416 74.2866 4.76416H76.3251C76.9075 4.76416 77.3841 5.24233 77.3841 5.82675V16.0454H77.3929Z" fill="#FFF8F3"/>
<path d="M2.78861 8.50953C1.93261 7.69488 1.33253 6.64114 1.33253 5.39259V5.25977C1.40313 3.12573 3.15042 1.40787 5.27718 1.34589H18.8143C19.1673 1.3636 19.4497 1.61153 19.4497 1.97458V13.4683C19.7585 13.5214 19.9085 13.5657 20.2086 13.672C20.4469 13.7605 20.7734 13.9465 20.7734 13.9465V1.97458C20.7557 0.885426 19.8909 0.00878906 18.8055 0.00878906H5.26835C2.34737 0.0530638 0 2.45275 0 5.39259C0 7.10159 0.776576 8.56266 2.04733 9.58983C2.13558 9.66067 2.215 9.74922 2.44445 9.74922C2.84156 9.74922 3.12395 9.43044 3.1063 9.0851C3.09747 8.79289 2.97393 8.68663 2.78861 8.50953Z" fill="#FFF8F3"/>
<path d="M18.4621 14.2208H7.84594C7.13113 14.2297 6.55753 14.8052 6.55753 15.5225V17.0544C6.57517 17.7628 7.17526 18.3649 7.89006 18.3649H8.67546V17.0544H7.89006V15.5579C7.89006 15.5579 8.0842 15.5579 8.32247 15.5579C9.66382 15.5579 10.6522 16.8064 10.6522 18.1435C10.6522 19.3301 9.57558 20.8443 7.77533 20.7203C6.17806 20.6141 5.31324 19.1884 5.31324 18.1435V5.1622C5.31324 4.57778 4.83671 4.09961 4.25428 4.09961H3.19531V5.42785H3.98071V18.1524C3.93659 20.738 5.81625 22.0397 7.77533 22.0397L18.4709 22.0751C20.6241 22.0751 22.3714 20.3219 22.3714 18.1524C22.3714 15.9829 20.6153 14.2208 18.4621 14.2208ZM21.0389 18.2321C20.9948 19.6223 19.8564 20.738 18.4621 20.738L11.0228 20.7115C11.6141 20.0208 11.9759 19.1264 11.9759 18.1524C11.9759 16.6205 11.067 15.5668 11.067 15.5668H18.4709C19.8917 15.5668 21.0477 16.7268 21.0477 18.1524L21.0389 18.2321Z" fill="#FFF8F3"/>
<path d="M15.6017 5.66711H7.59766V4.33887H15.6017C15.9635 4.33887 16.2635 4.63108 16.2635 5.00299C16.2635 5.36604 15.9723 5.66711 15.6017 5.66711Z" fill="#FFF8F3"/>
<path d="M15.6017 11.9186H7.59766V10.5903H15.6017C15.9635 10.5903 16.2635 10.8825 16.2635 11.2545C16.2635 11.6175 15.9723 11.9186 15.6017 11.9186Z" fill="#FFF8F3"/>
<path d="M17.0136 8.79308H7.59766V7.46484H17.0048C17.3666 7.46484 17.6667 7.75706 17.6667 8.12896C17.6755 8.49202 17.3754 8.79308 17.0136 8.79308Z" fill="#FFF8F3"/>
</svg>
