<svg width="144" height="22" viewBox="0 0 144 22" fill="none" xmlns="http://www.w3.org/2000/svg">
<g clip-path="url(#clip0_3249_8926)">
<path d="M21.3912 14.9314V1.95909C21.373 0.873646 20.4825 0 19.3648 0H5.42505C2.41719 0.0441235 0 2.43562 0 5.36542C0 6.35379 0.272615 7.20096 0.690626 7.94224C1.04503 8.55997 1.59934 9.1424 2.14457 9.57481C2.29906 9.69836 2.22636 9.64541 2.69889 9.9278C3.35317 10.3161 4.09832 10.5102 4.09832 10.5102L4.08923 18.2671C4.10741 18.6378 4.14375 18.9908 4.24371 19.3173C4.55268 20.4116 5.33418 21.2499 6.39738 21.6558C6.84265 21.8235 7.34244 21.9382 7.87858 21.9471L19.0104 21.9824C21.2277 21.9824 23.0269 20.2351 23.0269 18.073C23.036 16.7934 22.3817 15.6462 21.3912 14.9314Z" fill="#FFEEDA"/>
<path d="M31.5225 6.0802C29.9777 6.0802 28.7872 6.9362 28.7872 8.20696C28.7872 9.47772 29.7959 9.866 31.0499 10.0954L32.6311 10.3425C34.7303 10.6779 36.1751 11.6133 36.1751 13.8371C36.1751 16.0609 34.2123 17.517 31.7133 17.517C29.4597 17.517 27.3333 16.2286 27.0243 13.7048C26.9971 13.493 27.1697 13.3076 27.3878 13.3076H28.3329C28.5146 13.3076 28.6691 13.44 28.6964 13.6165C28.8963 15.3991 30.323 16.1051 31.7224 16.1051C33.249 16.1051 34.4576 15.3726 34.4576 13.8901C34.4576 12.5664 33.4853 12.1075 32.1949 11.8692L30.6319 11.6045C28.4419 11.2515 27.0698 10.2278 27.0698 8.28638C27.0698 6.03608 29.0871 4.65942 31.5134 4.65942C33.449 4.65942 35.5844 5.71839 36.0025 8.23343C36.0388 8.44522 35.8662 8.64819 35.639 8.64819H34.6576C34.4849 8.64819 34.3304 8.52465 34.3032 8.35698C34.0215 6.68911 32.7674 6.0802 31.5225 6.0802Z" fill="#101010"/>
<path d="M42.465 7.45691C44.8004 7.45691 46.4634 8.66589 47.054 10.6426C47.1177 10.8632 46.945 11.0927 46.6997 11.0927H45.6001C45.4456 11.0927 45.3093 10.9956 45.2548 10.8544C44.8459 9.72486 43.9008 9.08066 42.465 9.08066C40.5113 9.08066 39.4208 10.625 39.4208 12.487C39.4208 14.349 40.5204 15.8933 42.465 15.8933C43.9008 15.8933 44.8459 15.2491 45.2548 14.1196C45.3093 13.9784 45.4456 13.8813 45.6001 13.8813H46.6997C46.945 13.8813 47.1177 14.1107 47.045 14.3314C46.4179 16.3963 44.8095 17.5171 42.465 17.5171C39.4572 17.5171 37.5489 15.258 37.5489 12.487C37.5398 9.72486 39.4572 7.45691 42.465 7.45691Z" fill="#101010"/>
<path d="M48.8157 15.911H51.1693V9.5572H49.0701C48.8702 9.5572 48.7067 9.39835 48.7067 9.20421V8.30409C48.7067 8.10995 48.8702 7.9511 49.0701 7.9511H51.9326C52.5324 7.9511 53.0231 8.42764 53.0231 9.01007V9.26598C53.541 8.057 54.6588 7.75696 56.3944 7.75696C57.0578 7.75696 57.503 7.86285 57.7575 7.9511C57.9029 8.00405 57.9938 8.13642 57.9938 8.27762V9.21303C57.9938 9.4513 57.7575 9.6278 57.5212 9.54837C57.2123 9.4513 56.7761 9.36305 56.2036 9.36305C54.3498 9.36305 53.0321 10.5897 53.0321 12.7164V15.911H56.0582C56.2581 15.911 56.4217 16.0698 56.4217 16.264V17.1641C56.4217 17.3582 56.2581 17.5171 56.0582 17.5171H48.8248C48.6249 17.5171 48.4613 17.3582 48.4613 17.1641V16.264C48.4522 16.0698 48.6158 15.911 48.8157 15.911Z" fill="#101010"/>
<path d="M59.375 12.487C59.375 9.72486 61.2651 7.45691 64.3366 7.45691C67.4081 7.45691 69.2982 9.71603 69.2982 12.487C69.2982 15.258 67.4081 17.5171 64.3366 17.5171C61.2651 17.5171 59.375 15.258 59.375 12.487ZM64.3366 15.8933C66.3085 15.8933 67.4444 14.349 67.4444 12.487C67.4444 10.625 66.3085 9.08066 64.3366 9.08066C62.3647 9.08066 61.2288 10.625 61.2288 12.487C61.2288 14.349 62.3647 15.8933 64.3366 15.8933Z" fill="#101010"/>
<path d="M113.809 12.487C113.809 9.72486 115.699 7.45691 118.77 7.45691C121.842 7.45691 123.732 9.71603 123.732 12.487C123.732 15.258 121.842 17.5171 118.77 17.5171C115.699 17.5171 113.809 15.258 113.809 12.487ZM118.77 15.8933C120.742 15.8933 121.878 14.349 121.878 12.487C121.878 10.625 120.742 9.08066 118.77 9.08066C116.798 9.08066 115.662 10.625 115.662 12.487C115.662 14.349 116.798 15.8933 118.77 15.8933Z" fill="#101010"/>
<path d="M73.4059 15.9904H76.2502C76.4501 15.9904 76.6137 16.1492 76.6137 16.3433V17.1729C76.6137 17.367 76.4501 17.5259 76.2502 17.5259H71.9883C71.7884 17.5259 71.6248 17.367 71.6248 17.1729V6.28318H70.2072C70.0073 6.28318 69.8438 6.12434 69.8438 5.93019V5.10067C69.8438 4.90653 70.0073 4.74768 70.2072 4.74768H72.3064C72.9061 4.74768 73.3968 5.22422 73.3968 5.80665V15.9904H73.4059Z" fill="#101010"/>
<path d="M79.695 15.9904H82.5393C82.7392 15.9904 82.9028 16.1492 82.9028 16.3433V17.1729C82.9028 17.367 82.7392 17.5259 82.5393 17.5259H78.2774C78.0775 17.5259 77.9139 17.367 77.9139 17.1729V6.28318H76.4963C76.2964 6.28318 76.1328 6.12434 76.1328 5.93019V5.10067C76.1328 4.90653 76.2964 4.74768 76.4963 4.74768H78.5954C79.1952 4.74768 79.6859 5.22422 79.6859 5.80665V15.9904H79.695Z" fill="#101010"/>
<path d="M21.6636 18.17C21.6181 19.5555 20.4459 20.6674 19.0101 20.6674L11.3496 20.6409C11.9585 19.9526 12.331 19.0613 12.331 18.0906C12.331 16.5639 11.395 15.5138 11.395 15.5138H19.0192C20.4822 15.5138 21.6726 16.6698 21.6726 18.0906L21.6636 18.17Z" fill="#EBC28E"/>
<path d="M2.87155 8.48051C1.99009 7.66864 1.37216 6.6185 1.37216 5.37421V5.24184C1.44486 3.11509 3.24412 1.40309 5.43413 1.34132H19.3739C19.7374 1.35897 20.0281 1.60606 20.0281 1.96787V13.4223C20.3462 13.4753 20.5007 13.5194 20.8096 13.6253C21.055 13.7136 21.3912 13.8989 21.3912 13.8989V1.96787C21.373 0.882435 20.4825 0.00878906 19.3648 0.00878906H5.42505C2.41719 0.0529126 0 2.44441 0 5.37421C0 7.07738 0.799672 8.53346 2.10823 9.55713C2.1991 9.62772 2.28088 9.71597 2.51715 9.71597C2.92607 9.71597 3.21686 9.39828 3.19869 9.05412C3.1896 8.7629 3.06238 8.657 2.87155 8.48051Z" fill="#101010"/>
<path d="M19.0099 14.1725H8.07801C7.34195 14.1813 6.75128 14.7549 6.75128 15.4697V16.9964C6.76945 17.7023 7.38738 18.3024 8.12344 18.3024H8.9322V16.9964H8.12344V15.505H8.56871C9.94997 15.505 10.9677 16.7493 10.9677 18.0818C10.9677 19.2643 9.85909 20.7733 8.00531 20.6498C6.36053 20.5439 5.46999 19.1231 5.46999 18.0818V5.14478C5.46999 4.56235 4.97928 4.08582 4.37952 4.08582H3.28906V5.40952H4.09782V18.0906C4.05239 20.6674 5.98795 21.9647 8.00531 21.9647L19.019 22C21.2362 22 23.0355 20.2527 23.0355 18.0906C23.0355 15.9286 21.2272 14.1725 19.0099 14.1725ZM21.6633 18.1701C21.6179 19.5555 20.4457 20.6674 19.0099 20.6674L11.3494 20.641C11.9582 19.9526 12.3308 19.0613 12.3308 18.0906C12.3308 16.564 11.3948 15.5138 11.3948 15.5138H19.019C20.482 15.5138 21.6724 16.6699 21.6724 18.0906L21.6633 18.1701Z" fill="#101010"/>
<path d="M16.0663 5.6478H7.82422V4.3241H16.0663C16.4389 4.3241 16.7478 4.61531 16.7478 4.98595C16.7478 5.35659 16.448 5.6478 16.0663 5.6478Z" fill="#101010"/>
<path d="M16.0663 11.878H7.82422V10.5543H16.0663C16.4389 10.5543 16.7478 10.8455 16.7478 11.2162C16.7478 11.5868 16.448 11.878 16.0663 11.878Z" fill="#101010"/>
<path d="M17.5202 8.76292H7.82422V7.43921H17.5112C17.8837 7.43921 18.1927 7.73042 18.1927 8.10106C18.2018 8.46288 17.8928 8.76292 17.5202 8.76292Z" fill="#101010"/>
<path d="M92.5 17.1729C92.5 17.367 92.3364 17.5259 92.1365 17.5259H91.3635C91.1636 17.5259 91 17.367 91 17.1729V5.10067C91 4.90653 91.1636 4.74768 91.3635 4.74768H92.1365C92.3364 4.74768 92.5 4.90653 92.5 5.10067V17.1729Z" fill="#101010"/>
<path d="M106.583 4.74768H101.363C101.164 4.74768 101 4.90653 101 5.10067V5.93019C101 6.12434 101.164 6.28318 101.363 6.28318H103.463V15.9921H101.363C101.164 15.9921 101 16.151 101 16.3451V17.1746C101 17.3688 101.164 17.5276 101.363 17.5276H103.463V17.5259H106.583C110.738 17.5259 112.429 14.6596 112.429 11.1368C112.429 7.61395 110.737 4.74768 106.583 4.74768ZM106.583 15.9921H105.211V6.28053H106.583C109.647 6.28053 110.681 8.43464 110.681 11.1359C110.681 13.8371 109.646 15.9921 106.583 15.9921Z" fill="#101010"/>
<path d="M130.029 7.46387C132.365 7.46387 134.028 8.67285 134.619 10.6496C134.682 10.8702 134.509 11.0996 134.264 11.0996H133.165C133.01 11.0996 132.874 11.0026 132.819 10.8614C132.41 9.73182 131.465 9.08761 130.029 9.08761C128.076 9.08761 126.985 10.6319 126.985 12.494C126.985 14.356 128.085 15.9003 130.029 15.9003C131.465 15.9003 132.41 15.2561 132.819 14.1265C132.874 13.9853 133.01 13.8883 133.165 13.8883H134.264C134.509 13.8883 134.682 14.1177 134.609 14.3383C133.982 16.4033 132.374 17.524 130.029 17.524C127.022 17.524 125.113 15.2649 125.113 12.494C125.104 9.73182 127.022 7.46387 130.029 7.46387Z" fill="#101010"/>
<path d="M137.877 14.2652C138.016 15.543 138.993 16.0848 140.129 16.0848C141.264 16.0848 142.181 15.5818 142.181 14.6137C142.181 13.7233 141.384 13.433 140.508 13.2591L139.272 13.0465C137.538 12.7367 136.302 11.8851 136.302 10.3179C136.302 8.57587 138.076 7.45337 140.029 7.45337C141.981 7.45337 143.653 8.47704 143.894 10.4476C143.93 10.6559 143.76 10.8571 143.536 10.8571H142.57C142.4 10.8571 142.249 10.7353 142.221 10.5703C142.042 9.44687 141.105 8.88562 140.069 8.88562C139.032 8.88562 138.076 9.42746 138.076 10.2985C138.076 11.053 138.754 11.3433 139.69 11.518L140.946 11.7307C142.659 12.021 144.054 12.8726 144.054 14.5952C144.054 16.3178 142.38 17.5179 140.168 17.5179C137.836 17.5179 136.341 16.2984 136.122 14.3631C136.094 14.1416 136.274 13.9475 136.503 13.9475H137.492C137.682 13.9475 137.848 14.0816 137.877 14.266V14.2652Z" fill="#101010"/>
</g>
<defs>
<clipPath id="clip0_3249_8926">
<rect width="144" height="22" fill="white"/>
</clipPath>
</defs>
</svg>
