<svg enable-background="new 0 0 183 40" viewBox="0 0 183 40" xmlns="http://www.w3.org/2000/svg"><path d="m33.5 33.1c-.3-1.2-1.4-2.4-3.3-2.4 0-7.6 0-15.1 0-22.8 0-1.1-.4-2-1.2-2.8-.7-.7-1.6-1.1-2.7-1.1-7.5.1-14.8 0-22.3 0-3.3-.5-5.2 3.8-2.8 5.9.9.9 2 1 3.2 1 .8 0 1.6-.1 2.4 0v22.6c-.1 2.9 2.3 4.5 5.1 4.1h19c2.1-.5 3.2-2.8 2.6-4.5zm-31.8-23.2c-1.2-.9-1.6-2.3-1.1-3.7 1-2.6 4.5-2.4 5.6-.2-.6 0-2 0-2.3 0h-.1c-.6 0-1.1 0-1.6.4-.5.2-.8 1.1-.2 1.4.9.4 2 .1 2.9.2-.2 1.6-1.6 2.2-3.2 1.9zm5 0v.7c-1.4-.1-3 .2-4.4-.3 1.5 0 2.7-.8 2.9-2.3 0-.1 0-.2 0-.4 0-.6-.4-1-.7-1.3h1.8c.7 1.1.4 2.5.4 3.6zm5.1 27.4c-2.7.3-4.8-1.1-4.8-3.8 0-5.6 0-11.2 0-16.6 0-2.4 0-4.9 0-7.3 0-2.2.1-4.1-2.2-5.2 7.3-.1 14.2 0 21.5 0 .9 0 1.8.4 2.5 1.1s1.1 1.6 1.1 2.6c-.1 7.7 0 15.1 0 22.7-6.9 0-12.6 0-18 0-3-.6-4.9 3.6-2.3 5.5.7.8 1.8.7 2.8.7-.2 0-.5.1-.6.3zm1.3-4.8c-.7 0-1 0-1.3 0-1.7-.4-2.7 1.6-1.2 1.5h1.8c0 1.4-1.2 2.1-2.6 1.9 0 0-.1-.1-.1-.1-2.3-1.8-.8-5.5 2.2-5 .1.4.5.4.8.6.3.3.6.6.9 1-.1.1-.3.1-.5.1zm.5.3c.7 1.1.3 2.8-.8 3.7-.8-.1-1.8.1-2.5-.2 1.8 0 3-2 2-3.4 0 0-.1-.1-.1-.1zm18.2 4.1c-.3.2-.6.3-.9.4h-18.7c2.7-1 2.9-5.2.2-6.3h17.8c3.4.1 4.3 4.2 1.6 5.9z" fill="#2b2129"/><path d="m4.9 8c-.2 1.6-1.6 2.1-3.2 1.9-1.2-.9-1.6-2.3-1.1-3.7 1-2.6 4.5-2.4 5.6-.2-.6 0-2 0-2.3 0h-.1c-.6 0-1.1 0-1.6.4-.5.2-.8 1.1-.2 1.4.9.5 1.9.1 2.9.2z" fill="#cba68d"/><path d="m6.7 9.9v.7c-1.4-.1-3 .2-4.4-.3 1.5 0 2.7-.8 2.9-2.3 0-.1 0-.2 0-.4 0-.6-.4-1-.7-1.3h1.8c.7 1.1.4 2.5.4 3.6z" fill="#bb9168"/><path d="m12.8 36.5c-.8-.1-1.8.1-2.5-.2 1.8 0 3-2 2-3.4 0 0-.1-.1-.1-.1h1.4c.7 1.1.4 2.8-.8 3.7z" fill="#bb9168"/><path d="m10.6 34.1h1.8c0 1.4-1.2 2.1-2.6 1.9 0 0-.1-.1-.1-.1-2.3-1.8-.8-5.5 2.2-5 .1.4.5.4.8.6.3.3.6.6.9 1-.1 0-.3 0-.5 0-.7 0-1 0-1.3 0-1.8-.4-2.8 1.7-1.2 1.6z" fill="#cba58c"/><path d="m29.9 7.9c0-1-.4-1.9-1.1-2.6s-1.6-1.1-2.5-1.1c-7.3.1-14.2 0-21.5 0 2.3 1.1 2.3 3.1 2.2 5.2v7.3 16.6c0 2.7 2 4.1 4.7 3.9.2-.2.4-.3.6-.4-1 0-2.1.1-2.8-.7-2.6-2-.7-6.2 2.3-5.5h18c.1-7.5.1-15 .1-22.7zm-19.6 11.3c-.1-.5.5-.6.8-.5h15.9c.4 0 .9.1.8.6 0 .2 0 .3-.2.4-5.5.3-11 0-16.5.1-.4 0-.9-.1-.8-.6zm16.6 3.6c-5.3 0-10.5 0-15.9 0-.4 0-.9-.1-.8-.5 0-.4.1-.6.8-.6h16c.7 0 .8.2.8.6 0 .5-.5.6-.9.5zm-16.6 2.6c0-.4.1-.6.8-.6h16c.7 0 .8.2.8.6.1.5-.5.6-.8.5-5.3 0-10.6 0-15.9 0-.5.1-1-.1-.9-.5zm17.3 3.5c-5.5.3-11 0-16.5.1-.4 0-.9-.1-.8-.5 0-.4.1-.6.8-.6h15.9c.9-.1.9.7.6 1zm0-12.3c-5.5.3-11 0-16.5.1-.4 0-.9-.1-.8-.5 0-.4.1-.6.8-.6h15.9c.9-.1.9.7.6 1zm0-3.1c-5.5.3-11 0-16.5.1-.4 0-.9-.1-.8-.5 0-.4.1-.6.8-.6h15.9c.9-.1.9.7.6 1zm0-3.1c-5.5.3-11 0-16.5.1-.4 0-.9-.1-.8-.5 0-.4.1-.6.8-.6h15.9c.9 0 .9.8.6 1z" fill="#e5d1b8"/><path d="m31.8 36.9c-.3.2-.6.3-.9.4h-18.7c2.7-1 2.9-5.2.2-6.3h17.8c3.4.1 4.3 4.2 1.6 5.9z" fill="#d7af94"/><path d="m27.8 19.2c0 .2 0 .3-.2.4-5.5.3-11 0-16.5.1-.4 0-.9-.1-.8-.6-.1-.5.5-.6.8-.5h15.9c.3 0 .8.2.8.6z" fill="#c2956d"/><path d="m21.8 19.9c-1.3 0-2.6 0-3.8 0-2.3 0-4.6 0-6.9 0-.3 0-.6 0-.8-.2-.1-.1-.2-.3-.1-.5 0-.2 0-.3.1-.4.2-.2.7-.2.8-.2h15.9c.2 0 .6 0 .8.2.1.1.2.3.1.4 0 .2-.1.4-.2.5-2 .2-4 .2-5.9.2zm-7.7-.3h3.8c3.1 0 6.4.1 9.6-.1.1-.1.1-.2.1-.3s0-.2-.1-.3-.4-.2-.6-.2c-5.1 0-10.2 0-15.9 0-.2 0-.5 0-.7.2-.1.1-.1.2-.1.3s0 .2.1.3c.1.2.4.2.6.2 1.2-.1 2.2-.1 3.2-.1z"/><path d="m26.9 25.9c-5.3 0-10.6 0-15.9 0-.4 0-.9-.1-.8-.5 0-.4.1-.6.8-.6h16c.7 0 .8.2.8.6s-.5.6-.9.5z" fill="#c2956d"/><path d="m10.9 26c-.2 0-.5-.1-.6-.2s-.2-.3-.1-.4c0-.5.2-.7.9-.7h16c.6 0 .9.2.9.7 0 .2 0 .3-.1.4-.2.2-.5.2-.8.2-5.6 0-10.8 0-15.9 0-.2 0-.2 0-.3 0zm8-.2h8c.2 0 .5 0 .6-.2.1-.1.1-.2.1-.3 0-.3 0-.5-.7-.5-5.2 0-10.6 0-16 0-.6 0-.7.2-.7.5 0 .1 0 .2.1.3s.4.2.6.2z"/><path d="m26.9 22.8c-5.3 0-10.5 0-15.9 0-.4 0-.9-.1-.8-.5 0-.4.1-.6.8-.6h16c.7 0 .8.2.8.6 0 .5-.5.6-.9.5z" fill="#c2956d"/><path d="m10.9 23c-.2 0-.5-.1-.7-.2-.1-.1-.2-.3-.1-.4 0-.5.2-.7.9-.7h16c.6 0 .9.2.9.7 0 .2 0 .3-.1.4-.2.2-.6.2-.8.2-5.6 0-10.8 0-15.9 0-.1 0-.1 0-.2 0zm.1-1.2c-.6 0-.7.2-.7.5 0 .1 0 .2.1.3s.4.2.6.2h15.9c.2 0 .5 0 .6-.2.1-.1.1-.2.1-.3 0-.3 0-.5-.7-.5-5.2.1-10.5.1-15.9 0z"/><path d="m27.6 28.9c-5.5.3-11 0-16.5.1-.4 0-.9-.1-.8-.5 0-.4.1-.6.8-.6h15.9c.9-.1.9.7.6 1z" fill="#c2956d"/><path d="m21.8 29.1c-1.3 0-2.6 0-3.9 0-2.2 0-4.6-.1-6.9 0-.3 0-.6 0-.8-.2-.1-.1-.2-.3-.1-.4 0-.5.2-.7.9-.7h15.9c.6-.1.8.2.9.4.1.3 0 .6-.2.8-1.9.1-3.9.1-5.8.1zm-7.7-.2h3.9c3.2 0 6.4.1 9.6-.1.1-.1.2-.3.1-.5s-.4-.3-.7-.3c-5 0-10.4 0-16 0-.6 0-.7.2-.7.5 0 .1 0 .2.1.3s.4.2.6.2c1.1-.1 2.1-.1 3.1-.1z"/><path d="m27.6 16.6c-5.5.3-11 0-16.5.1-.4 0-.9-.1-.8-.5 0-.4.1-.6.8-.6h15.9c.9-.1.9.7.6 1z" fill="#c2956d"/><path d="m21.8 16.8c-1.3 0-2.6 0-3.9 0-2.2 0-4.6-.1-6.9 0-.3 0-.6 0-.8-.2-.1-.1-.2-.3-.1-.4 0-.5.2-.7.9-.7h15.9c.6-.1.8.2.9.4.1.3 0 .6-.2.8-1.9.1-3.9.1-5.8.1zm-7.7-.2h3.9c3.2 0 6.4.1 9.6-.1.1-.1.2-.3.1-.5s-.3-.3-.7-.3c-5.3 0-10.7 0-16 0-.6 0-.7.2-.7.5 0 .1 0 .2.1.3s.4.2.6.2c1.1-.1 2.1-.1 3.1-.1z"/><path d="m27.6 13.5c-5.5.3-11 0-16.5.1-.4 0-.9-.1-.8-.5 0-.4.1-.6.8-.6h15.9c.9-.1.9.7.6 1z" fill="#c2956d"/><path d="m21.8 13.8c-1.3 0-2.6 0-3.9 0-2.2 0-4.6-.1-6.9 0-.3 0-.6 0-.8-.2-.1-.1-.2-.3-.1-.4 0-.5.2-.7.9-.7h15.9c.6-.1.8.2.9.4.1.3 0 .6-.2.8-1.9 0-3.9.1-5.8.1zm-7.7-.3h3.9c3.2 0 6.4.1 9.6-.1.1-.1.2-.3.1-.5s-.3-.3-.7-.3c-5.3 0-10.7 0-16 0-.6 0-.7.2-.7.5 0 .1 0 .2.1.3s.4.2.6.2c1.1-.1 2.1-.1 3.1-.1z"/><path d="m27.6 10.4c-5.5.3-11 0-16.5.1-.4 0-.9-.1-.8-.5 0-.4.1-.6.8-.6h15.9c.9 0 .9.8.6 1z" fill="#c2956d"/><path d="m21.8 10.7c-1.3 0-2.6 0-3.9 0-2.2 0-4.6-.1-6.9 0-.3 0-.6 0-.8-.2-.1-.1-.2-.3-.1-.4 0-.5.2-.7.9-.7h15.9c.6-.1.8.2.9.4.1.3 0 .6-.2.8-1.9 0-3.9.1-5.8.1zm-7.7-.3h3.9c3.2 0 6.4.1 9.6-.1.1-.1.2-.3.1-.5s-.3-.3-.7-.3c-5 0-10.4 0-16 0-.6 0-.7.2-.7.5 0 .1 0 .2.1.3s.4.2.6.2c1.1-.1 2.1-.1 3.1-.1z"/><g fill="#2b2129"><path d="m44.9 22.3c0 2.7-2.4 4.3-5.1 4.3-3.4 0-5.2-1-5.8-3.1l3-.8c.3 1.2 1.6 2.3 2.9 2.3 1 0 2.4-.5 2.4-1.6 0-.9-.6-1.7-1.5-2l-2.1-.5c-2.7-.6-4.3-2.1-4.3-4.1 0-3 2.4-4.3 4.7-4.3 4.1 0 5 1.5 5.5 3.3l-3.1.5c-.3-1.9-1.8-2.2-2.3-2.2-3.6.1-2.4 3.8.4 4.4l1.8.4c2.1.4 3.5 1.8 3.5 3.4z"/><path d="m53.8 23.6.2 1.3c-.5.8-1.6 1.6-3.5 1.6-2.7 0-4.6-1.8-4.6-4.5-.2-5.6 7.8-6.8 8.2-2.4l-1.9.4c0-.8.1-1.8-1.5-1.8-3.6.2-2.8 6.6.5 6.4.9-.1 1.8-.4 2.6-1z"/><path d="m62.7 18.7s0 .1 0 0v.3l-2.2 1.3c-.1-.6-.3-1.3-.5-1.2-.6.6-.9 1.4-.9 2.5v4.9h-2.5v-8.4l1.9-1.3.4 2.1c.5-1.1 1.4-1.8 2.3-1.8.7.1 1.5.8 1.5 1.6z"/><path d="m67.7 17.1c-6.3-.1-6.5 9.7 0 9.5 6.5.1 6.4-9.6 0-9.5zm0 8.3c-1.3 0-1.9-1.2-1.9-3.6 0-1.6.3-2.6.8-3.2.3-.3.7-.4 1.1-.4 1.3 0 1.9 1.2 1.9 3.6.1 2.4-.6 3.6-1.9 3.6z"/><path d="m77.2 11.8v14.7h-2.5v-13z"/><path d="m82.9 11.8v14.7h-2.5v-13z"/></g><path d="m98.5 10.4c.3 0 .5.2.5.5v19c0 .3-.2.5-.5.5s-.5-.2-.5-.5v-19c0-.3.2-.5.5-.5z" fill="#d7af94"/><g fill="#2b2129"><path d="m116.2 24.4v-8.8h2.3c2.2 0 4 1.4 4 4.4s-1.8 4.4-4.1 4.4zm2.3 2c3.5 0 6.2-2.3 6.2-6.4s-2.7-6.4-6.2-6.4h-4.5v12.8z"/><path d="m130.7 24.8c-1.3 0-2.4-1-2.4-2.8s1.2-2.8 2.4-2.8c1.3 0 2.4.9 2.4 2.8 0 1.8-1.1 2.8-2.4 2.8zm0-7.5c-2.6 0-4.5 2-4.5 4.6 0 2.7 1.9 4.7 4.5 4.7s4.6-2 4.6-4.7c0-2.6-2-4.6-4.6-4.6z"/><path d="m141.1 19.3c1.3 0 1.9.9 2.1 1.6l1.9-.7c-.4-1.4-1.7-2.9-4-2.9-2.5 0-4.5 1.9-4.5 4.6s2 4.7 4.5 4.7c2.3 0 3.6-1.5 4-2.9l-1.8-.7c-.2.7-.8 1.6-2.2 1.6-1.3 0-2.4-1-2.4-2.8s1.1-2.5 2.4-2.5z"/><path d="m146.2 24c.1 1 1.1 2.6 3.6 2.6 2.2 0 3.3-1.5 3.3-2.8s-.9-2.3-2.5-2.7l-1.3-.3c-.5-.1-.9-.5-.9-.9 0-.5.5-1 1.3-1 1.2 0 1.5.8 1.6 1.3l1.8-.5c-.1-.9-.9-2.4-3.4-2.4-1.8 0-3.2 1.3-3.2 2.8 0 1.2.8 2.2 2.4 2.6l1.3.3c.7.1 1 .5 1 1s-.5 1-1.3 1c-1.1 0-1.7-.7-1.8-1.5z"/></g></svg>