<?xml version="1.0" encoding="utf-8"?>
<!-- Generator: Adobe Illustrator 26.4.1, SVG Export Plug-In . SVG Version: 6.00 Build 0)  -->
<svg version="1.1" id="Layer_2" xmlns="http://www.w3.org/2000/svg" xmlns:xlink="http://www.w3.org/1999/xlink" x="0px" y="0px"
	 viewBox="0 0 183 40" style="enable-background:new 0 0 183 40;" xml:space="preserve">
<style type="text/css">
	.st0{fill:#2B2129;}
	.st1{fill:#CBA68D;}
	.st2{fill:#BB9168;}
	.st3{fill:#CBA58C;}
	.st4{fill:#E5D1B8;}
	.st5{fill:#D7AF94;}
	.st6{fill:#C2956D;}
</style>
<path class="st0" d="M33.5,33.1c-0.3-1.2-1.4-2.4-3.3-2.4c0-7.6,0-15.1,0-22.8c0-1.1-0.4-2-1.2-2.8C28.3,4.4,27.4,4,26.3,4
	C18.8,4.1,11.5,4,4,4C0.7,3.5-1.2,7.8,1.2,9.9c0.9,0.9,2,1,3.2,1c0.8,0,1.6-0.1,2.4,0c0,7.5,0,14.9,0,22.6c-0.1,2.9,2.3,4.5,5.1,4.1
	h19C33,37.1,34.1,34.8,33.5,33.1z M1.7,9.9C0.5,9,0.1,7.6,0.6,6.2c1-2.6,4.5-2.4,5.6-0.2c-0.6,0-2,0-2.3,0v0c0,0-0.1,0-0.1,0l0,0h0
	c-0.6,0-1.1,0-1.6,0.4C1.7,6.6,1.4,7.5,2,7.8c0.9,0.4,2,0.1,2.9,0.2C4.7,9.6,3.3,10.2,1.7,9.9z M6.7,9.9v0.7c-1.4-0.1-3,0.2-4.4-0.3
	c1.5,0,2.7-0.8,2.9-2.3h0c0-0.1,0-0.2,0-0.4h0c0-0.6-0.4-1-0.7-1.3l1.8,0C7,7.4,6.7,8.8,6.7,9.9z M11.8,37.3L11.8,37.3
	C9.1,37.6,7,36.2,7,33.5c0-5.6,0-11.2,0-16.6c0-2.4,0-4.9,0-7.3c0-2.2,0.1-4.1-2.2-5.2c7.3-0.1,14.2,0,21.5,0c0.9,0,1.8,0.4,2.5,1.1
	c0.7,0.7,1.1,1.6,1.1,2.6c-0.1,7.7,0,15.1,0,22.7c-6.9,0-12.6,0-18,0c-3-0.6-4.9,3.6-2.3,5.5c0.7,0.8,1.8,0.7,2.8,0.7
	C12.2,37,11.9,37.1,11.8,37.3z M13.1,32.5c-0.7,0-1,0-1.3,0c-1.7-0.4-2.7,1.6-1.2,1.5c0.6,0,1.2,0,1.8,0c0,1.4-1.2,2.1-2.6,1.9
	c0,0-0.1-0.1-0.1-0.1l0,0c-2.3-1.8-0.8-5.5,2.2-5c0.1,0.4,0.5,0.4,0.8,0.6c0.3,0.3,0.6,0.6,0.9,1C13.5,32.5,13.3,32.5,13.1,32.5z
	 M13.6,32.8c0.7,1.1,0.3,2.8-0.8,3.7c-0.8-0.1-1.8,0.1-2.5-0.2c1.8,0,3-2,2-3.4c0,0-0.1-0.1-0.1-0.1L13.6,32.8z M31.8,36.9
	c-0.3,0.2-0.6,0.3-0.9,0.4H12.2c2.7-1,2.9-5.2,0.2-6.3c6.1,0,11.8,0,17.8,0C33.6,31.1,34.5,35.2,31.8,36.9z"/>
<path class="st1" d="M4.9,8c-0.2,1.6-1.6,2.1-3.2,1.9C0.5,9,0.1,7.6,0.6,6.2c1-2.6,4.5-2.4,5.6-0.2c-0.6,0-2,0-2.3,0v0
	c0,0-0.1,0-0.1,0l0,0h0c-0.6,0-1.1,0-1.6,0.4C1.7,6.6,1.4,7.5,2,7.8C2.9,8.3,3.9,7.9,4.9,8z"/>
<path class="st2" d="M6.7,9.9v0.7c-1.4-0.1-3,0.2-4.4-0.3c1.5,0,2.7-0.8,2.9-2.3h0c0-0.1,0-0.2,0-0.4h0c0-0.6-0.4-1-0.7-1.3l1.8,0
	C7,7.4,6.7,8.8,6.7,9.9z"/>
<path class="st2" d="M12.8,36.5c-0.8-0.1-1.8,0.1-2.5-0.2c1.8,0,3-2,2-3.4c0,0-0.1-0.1-0.1-0.1l1.4,0C14.3,33.9,14,35.6,12.8,36.5z"
	/>
<path class="st3" d="M10.6,34.1c0.6,0,1.2,0,1.8,0c0,1.4-1.2,2.1-2.6,1.9c0,0-0.1-0.1-0.1-0.1l0,0c-2.3-1.8-0.8-5.5,2.2-5
	c0.1,0.4,0.5,0.4,0.8,0.6c0.3,0.3,0.6,0.6,0.9,1c-0.1,0-0.3,0-0.5,0c-0.7,0-1,0-1.3,0C10,32.1,9,34.2,10.6,34.1z"/>
<path class="st4" d="M29.9,7.9c0-1-0.4-1.9-1.1-2.6c-0.7-0.7-1.6-1.1-2.5-1.1c-7.3,0.1-14.2,0-21.5,0c2.3,1.1,2.3,3.1,2.2,5.2
	c0,2.4,0,4.9,0,7.3c0,5.4,0,11,0,16.6c0,2.7,2,4.1,4.7,3.9l0,0c0.2-0.2,0.4-0.3,0.6-0.4c-1,0-2.1,0.1-2.8-0.7
	c-2.6-2-0.7-6.2,2.3-5.5c5.4,0,11.2,0,18,0C29.9,23.1,29.9,15.6,29.9,7.9z M10.3,19.2c-0.1-0.5,0.5-0.6,0.8-0.5c5.6,0,10.8,0,15.9,0
	c0.4,0,0.9,0.1,0.8,0.6c0,0.2,0,0.3-0.2,0.4c-5.5,0.3-11,0-16.5,0.1C10.7,19.8,10.2,19.7,10.3,19.2z M26.9,22.8
	c-5.3,0-10.5,0-15.9,0c-0.4,0-0.9-0.1-0.8-0.5c0-0.4,0.1-0.6,0.8-0.6c5.3,0,10.7,0,16,0c0.7,0,0.8,0.2,0.8,0.6
	C27.8,22.8,27.3,22.9,26.9,22.8z M10.3,25.4c0-0.4,0.1-0.6,0.8-0.6c5.3,0,10.7,0,16,0c0.7,0,0.8,0.2,0.8,0.6
	c0.1,0.5-0.5,0.6-0.8,0.5c-5.3,0-10.6,0-15.9,0C10.7,26,10.2,25.8,10.3,25.4z M27.6,28.9c-5.5,0.3-11,0-16.5,0.1
	c-0.4,0-0.9-0.1-0.8-0.5c0-0.4,0.1-0.6,0.8-0.6c5.3,0,10.7,0,15.9,0C27.9,27.8,27.9,28.6,27.6,28.9z M27.6,16.6
	c-5.5,0.3-11,0-16.5,0.1c-0.4,0-0.9-0.1-0.8-0.5c0-0.4,0.1-0.6,0.8-0.6c5.3,0,10.7,0,15.9,0C27.9,15.5,27.9,16.3,27.6,16.6z
	 M27.6,13.5c-5.5,0.3-11,0-16.5,0.1c-0.4,0-0.9-0.1-0.8-0.5c0-0.4,0.1-0.6,0.8-0.6c5.3,0,10.7,0,15.9,0
	C27.9,12.4,27.9,13.2,27.6,13.5z M27.6,10.4c-5.5,0.3-11,0-16.5,0.1c-0.4,0-0.9-0.1-0.8-0.5c0-0.4,0.1-0.6,0.8-0.6
	c5.3,0,10.7,0,15.9,0C27.9,9.4,27.9,10.2,27.6,10.4z"/>
<path class="st5" d="M31.8,36.9c-0.3,0.2-0.6,0.3-0.9,0.4H12.2c2.7-1,2.9-5.2,0.2-6.3c6.1,0,11.8,0,17.8,0
	C33.6,31.1,34.5,35.2,31.8,36.9z"/>
<path class="st6" d="M27.8,19.2c0,0.2,0,0.3-0.2,0.4c-5.5,0.3-11,0-16.5,0.1c-0.4,0-0.9-0.1-0.8-0.6c-0.1-0.5,0.5-0.6,0.8-0.5
	c5.6,0,10.8,0,15.9,0C27.3,18.6,27.8,18.8,27.8,19.2z"/>
<path d="M21.8,19.9c-1.3,0-2.6,0-3.8,0c-2.3,0-4.6,0-6.9,0c-0.3,0-0.6,0-0.8-0.2c-0.1-0.1-0.2-0.3-0.1-0.5c0-0.2,0-0.3,0.1-0.4
	c0.2-0.2,0.7-0.2,0.8-0.2c5.6,0,10.8,0,15.9,0c0.2,0,0.6,0,0.8,0.2c0.1,0.1,0.2,0.3,0.1,0.4c0,0.2-0.1,0.4-0.2,0.5l0,0l0,0
	C25.7,19.9,23.7,19.9,21.8,19.9z M14.1,19.6c1.3,0,2.6,0,3.8,0c3.1,0,6.4,0.1,9.6-0.1c0.1-0.1,0.1-0.2,0.1-0.3l0,0l0,0
	c0-0.1,0-0.2-0.1-0.3c-0.1-0.1-0.4-0.2-0.6-0.2c-5.1,0-10.2,0-15.9,0c-0.2,0-0.5,0-0.7,0.2c-0.1,0.1-0.1,0.2-0.1,0.3l0,0l0,0
	c0,0.1,0,0.2,0.1,0.3c0.1,0.2,0.4,0.2,0.6,0.2C12.1,19.6,13.1,19.6,14.1,19.6z"/>
<path class="st6" d="M26.9,25.9c-5.3,0-10.6,0-15.9,0c-0.4,0-0.9-0.1-0.8-0.5c0-0.4,0.1-0.6,0.8-0.6c5.3,0,10.7,0,16,0
	c0.7,0,0.8,0.2,0.8,0.6C27.8,25.8,27.3,26,26.9,25.9z"/>
<path d="M10.9,26c-0.2,0-0.5-0.1-0.6-0.2c-0.1-0.1-0.2-0.3-0.1-0.4c0-0.5,0.2-0.7,0.9-0.7c5.3,0,10.7,0,16,0c0.6,0,0.9,0.2,0.9,0.7
	c0,0.2,0,0.3-0.1,0.4c-0.2,0.2-0.5,0.2-0.8,0.2c-5.6,0-10.8,0-15.9,0C11,26,11,26,10.9,26z M18.9,25.8c2.6,0,5.3,0,8,0l0,0
	c0.2,0,0.5,0,0.6-0.2c0.1-0.1,0.1-0.2,0.1-0.3l0,0c0-0.3,0-0.5-0.7-0.5c-5.2,0-10.6,0-16,0c-0.6,0-0.7,0.2-0.7,0.5l0,0
	c0,0.1,0,0.2,0.1,0.3c0.1,0.1,0.4,0.2,0.6,0.2C13.6,25.8,16.2,25.8,18.9,25.8z"/>
<path class="st6" d="M26.9,22.8c-5.3,0-10.5,0-15.9,0c-0.4,0-0.9-0.1-0.8-0.5c0-0.4,0.1-0.6,0.8-0.6c5.3,0,10.7,0,16,0
	c0.7,0,0.8,0.2,0.8,0.6C27.8,22.8,27.3,22.9,26.9,22.8z"/>
<path d="M10.9,23c-0.2,0-0.5-0.1-0.7-0.2c-0.1-0.1-0.2-0.3-0.1-0.4c0-0.5,0.2-0.7,0.9-0.7c5.3,0,10.7,0,16,0c0.6,0,0.9,0.2,0.9,0.7
	c0,0.2,0,0.3-0.1,0.4c-0.2,0.2-0.6,0.2-0.8,0.2c-5.6,0-10.8,0-15.9,0C11,23,11,23,10.9,23z M11,21.8c-0.6,0-0.7,0.2-0.7,0.5l0,0
	c0,0.1,0,0.2,0.1,0.3c0.1,0.1,0.4,0.2,0.6,0.2c5.1,0,10.3,0,15.9,0l0,0c0.2,0,0.5,0,0.6-0.2c0.1-0.1,0.1-0.2,0.1-0.3
	c0-0.3,0-0.5-0.7-0.5C21.7,21.9,16.4,21.9,11,21.8z"/>
<path class="st6" d="M27.6,28.9c-5.5,0.3-11,0-16.5,0.1c-0.4,0-0.9-0.1-0.8-0.5c0-0.4,0.1-0.6,0.8-0.6c5.3,0,10.7,0,15.9,0
	C27.9,27.8,27.9,28.6,27.6,28.9z"/>
<path d="M21.8,29.1c-1.3,0-2.6,0-3.9,0c-2.2,0-4.6-0.1-6.9,0c-0.3,0-0.6,0-0.8-0.2c-0.1-0.1-0.2-0.3-0.1-0.4c0-0.5,0.2-0.7,0.9-0.7
	c5.6,0,10.9,0,15.9,0c0.6-0.1,0.8,0.2,0.9,0.4c0.1,0.3,0,0.6-0.2,0.8l0,0l0,0C25.7,29.1,23.7,29.1,21.8,29.1z M14.1,28.9
	c1.3,0,2.6,0,3.9,0c3.2,0,6.4,0.1,9.6-0.1c0.1-0.1,0.2-0.3,0.1-0.5C27.6,28.1,27.3,28,27,28c-5,0-10.4,0-16,0
	c-0.6,0-0.7,0.2-0.7,0.5l0,0c0,0.1,0,0.2,0.1,0.3c0.1,0.1,0.4,0.2,0.6,0.2C12.1,28.9,13.1,28.9,14.1,28.9z"/>
<path class="st6" d="M27.6,16.6c-5.5,0.3-11,0-16.5,0.1c-0.4,0-0.9-0.1-0.8-0.5c0-0.4,0.1-0.6,0.8-0.6c5.3,0,10.7,0,15.9,0
	C27.9,15.5,27.9,16.3,27.6,16.6z"/>
<path d="M21.8,16.8c-1.3,0-2.6,0-3.9,0c-2.2,0-4.6-0.1-6.9,0c-0.3,0-0.6,0-0.8-0.2c-0.1-0.1-0.2-0.3-0.1-0.4c0-0.5,0.2-0.7,0.9-0.7
	c5.3,0,10.7,0,15.9,0c0.6-0.1,0.8,0.2,0.9,0.4c0.1,0.3,0,0.6-0.2,0.8l0,0l0,0C25.7,16.8,23.7,16.8,21.8,16.8z M14.1,16.6
	c1.3,0,2.6,0,3.9,0c3.2,0,6.4,0.1,9.6-0.1c0.1-0.1,0.2-0.3,0.1-0.5c-0.1-0.2-0.3-0.3-0.7-0.3c-5.3,0-10.7,0-16,0
	c-0.6,0-0.7,0.2-0.7,0.5l0,0c0,0.1,0,0.2,0.1,0.3c0.1,0.1,0.4,0.2,0.6,0.2C12.1,16.6,13.1,16.6,14.1,16.6z"/>
<path class="st6" d="M27.6,13.5c-5.5,0.3-11,0-16.5,0.1c-0.4,0-0.9-0.1-0.8-0.5c0-0.4,0.1-0.6,0.8-0.6c5.3,0,10.7,0,15.9,0
	C27.9,12.4,27.9,13.2,27.6,13.5z"/>
<path d="M21.8,13.8c-1.3,0-2.6,0-3.9,0c-2.2,0-4.6-0.1-6.9,0c-0.3,0-0.6,0-0.8-0.2c-0.1-0.1-0.2-0.3-0.1-0.4c0-0.5,0.2-0.7,0.9-0.7
	c5.3,0,10.7,0,15.9,0c0.6-0.1,0.8,0.2,0.9,0.4c0.1,0.3,0,0.6-0.2,0.8l0,0l0,0C25.7,13.7,23.7,13.8,21.8,13.8z M14.1,13.5
	c1.3,0,2.6,0,3.9,0c3.2,0,6.4,0.1,9.6-0.1c0.1-0.1,0.2-0.3,0.1-0.5c-0.1-0.2-0.3-0.3-0.7-0.3c-5.3,0-10.7,0-16,0
	c-0.6,0-0.7,0.2-0.7,0.5l0,0c0,0.1,0,0.2,0.1,0.3c0.1,0.1,0.4,0.2,0.6,0.2C12.1,13.5,13.1,13.5,14.1,13.5z"/>
<path class="st6" d="M27.6,10.4c-5.5,0.3-11,0-16.5,0.1c-0.4,0-0.9-0.1-0.8-0.5c0-0.4,0.1-0.6,0.8-0.6c5.3,0,10.7,0,15.9,0
	C27.9,9.4,27.9,10.2,27.6,10.4z"/>
<path d="M21.8,10.7c-1.3,0-2.6,0-3.9,0c-2.2,0-4.6-0.1-6.9,0c-0.3,0-0.6,0-0.8-0.2c-0.1-0.1-0.2-0.3-0.1-0.4c0-0.5,0.2-0.7,0.9-0.7
	c5.6,0,10.9,0,15.9,0c0.6-0.1,0.8,0.2,0.9,0.4c0.1,0.3,0,0.6-0.2,0.8l0,0l0,0C25.7,10.6,23.7,10.7,21.8,10.7z M14.1,10.4
	c1.3,0,2.6,0,3.9,0c3.2,0,6.4,0.1,9.6-0.1c0.1-0.1,0.2-0.3,0.1-0.5c-0.1-0.2-0.3-0.3-0.7-0.3c-5,0-10.4,0-16,0
	c-0.6,0-0.7,0.2-0.7,0.5l0,0c0,0.1,0,0.2,0.1,0.3c0.1,0.1,0.4,0.2,0.6,0.2C12.1,10.4,13.1,10.4,14.1,10.4z"/>
<g>
	<path class="st0" d="M44.9,22.3c0,2.7-2.4,4.3-5.1,4.3c-3.4,0-5.2-1-5.8-3.1l3-0.8c0.3,1.2,1.6,2.3,2.9,2.3c1,0,2.4-0.5,2.4-1.6
		c0-0.9-0.6-1.7-1.5-2l-2.1-0.5c-2.7-0.6-4.3-2.1-4.3-4.1c0-3,2.4-4.3,4.7-4.3c4.1,0,5,1.5,5.5,3.3l-3.1,0.5
		c-0.3-1.9-1.8-2.2-2.3-2.2c-3.6,0.1-2.4,3.8,0.4,4.4l1.8,0.4C43.5,19.3,44.9,20.7,44.9,22.3z"/>
</g>
<g>
	<path class="st0" d="M53.8,23.6l0.2,1.3c-0.5,0.8-1.6,1.6-3.5,1.6c-2.7,0-4.6-1.8-4.6-4.5c-0.2-5.6,7.8-6.8,8.2-2.4L52.2,20
		c0-0.8,0.1-1.8-1.5-1.8c-3.6,0.2-2.8,6.6,0.5,6.4C52.1,24.5,53,24.2,53.8,23.6z"/>
</g>
<g>
	<path class="st0" d="M62.7,18.7C62.7,18.7,62.7,18.8,62.7,18.7l0,0.3l-2.2,1.3c-0.1-0.6-0.3-1.3-0.5-1.2c-0.6,0.6-0.9,1.4-0.9,2.5
		v4.9h-2.5v-8.4l1.9-1.3l0.4,2.1c0.5-1.1,1.4-1.8,2.3-1.8C61.9,17.2,62.7,17.9,62.7,18.7z"/>
</g>
<g>
	<path class="st0" d="M67.7,17.1c-6.3-0.1-6.5,9.7,0,9.5C74.2,26.7,74.1,17,67.7,17.1z M67.7,25.4c-1.3,0-1.9-1.2-1.9-3.6
		c0-1.6,0.3-2.6,0.8-3.2c0.3-0.3,0.7-0.4,1.1-0.4c1.3,0,1.9,1.2,1.9,3.6C69.7,24.2,69,25.4,67.7,25.4z"/>
</g>
<g>
	<polygon class="st0" points="77.2,11.8 77.2,26.5 74.7,26.5 74.7,13.5 	"/>
</g>
<g>
	<polygon class="st0" points="82.9,11.8 82.9,26.5 80.4,26.5 80.4,13.5 	"/>
</g>
<path class="st5" d="M98.5,10.4L98.5,10.4c0.3,0,0.5,0.2,0.5,0.5v19c0,0.3-0.2,0.5-0.5,0.5l0,0c-0.3,0-0.5-0.2-0.5-0.5v-19
	C98,10.6,98.2,10.4,98.5,10.4z"/>
<path class="st0" d="M116.2,24.4v-8.8h2.3c2.2,0,4,1.4,4,4.4c0,3-1.8,4.4-4.1,4.4H116.2z M118.5,26.4c3.5,0,6.2-2.3,6.2-6.4
	c0-4.1-2.7-6.4-6.2-6.4H114v12.8H118.5z"/>
<path class="st0" d="M130.7,24.8c-1.3,0-2.4-1-2.4-2.8c0-1.8,1.2-2.8,2.4-2.8c1.3,0,2.4,0.9,2.4,2.8C133.1,23.8,132,24.8,130.7,24.8
	z M130.7,17.3c-2.6,0-4.5,2-4.5,4.6c0,2.7,1.9,4.7,4.5,4.7c2.6,0,4.6-2,4.6-4.7C135.3,19.3,133.3,17.3,130.7,17.3z"/>
<path class="st0" d="M141.1,19.3c1.3,0,1.9,0.9,2.1,1.6l1.9-0.7c-0.4-1.4-1.7-2.9-4-2.9c-2.5,0-4.5,1.9-4.5,4.6c0,2.7,2,4.7,4.5,4.7
	c2.3,0,3.6-1.5,4-2.9l-1.8-0.7c-0.2,0.7-0.8,1.6-2.2,1.6c-1.3,0-2.4-1-2.4-2.8S139.8,19.3,141.1,19.3z"/>
<path class="st0" d="M146.2,24c0.1,1,1.1,2.6,3.6,2.6c2.2,0,3.3-1.5,3.3-2.8c0-1.3-0.9-2.3-2.5-2.7l-1.3-0.3
	c-0.5-0.1-0.9-0.5-0.9-0.9c0-0.5,0.5-1,1.3-1c1.2,0,1.5,0.8,1.6,1.3l1.8-0.5c-0.1-0.9-0.9-2.4-3.4-2.4c-1.8,0-3.2,1.3-3.2,2.8
	c0,1.2,0.8,2.2,2.4,2.6l1.3,0.3c0.7,0.1,1,0.5,1,1c0,0.5-0.5,1-1.3,1c-1.1,0-1.7-0.7-1.8-1.5L146.2,24z"/>
</svg>
