<svg width="144" height="22" viewBox="0 0 144 22" fill="none" xmlns="http://www.w3.org/2000/svg">
<g clip-path="url(#clip0_3449_5072)">
<path d="M31.5225 6.08045C29.9777 6.08045 28.7872 6.93644 28.7872 8.2072C28.7872 9.47796 29.7959 9.86625 31.0499 10.0957L32.6311 10.3428C34.7303 10.6781 36.1751 11.6135 36.1751 13.8374C36.1751 16.0612 34.2123 17.5173 31.7133 17.5173C29.4597 17.5173 27.3333 16.2289 27.0243 13.705C26.9971 13.4932 27.1697 13.3079 27.3878 13.3079H28.3329C28.5146 13.3079 28.6691 13.4403 28.6964 13.6167C28.8963 15.3993 30.323 16.1053 31.7224 16.1053C33.249 16.1053 34.4576 15.3729 34.4576 13.8903C34.4576 12.5666 33.4853 12.1077 32.1949 11.8695L30.6319 11.6047C28.4419 11.2517 27.0698 10.2281 27.0698 8.28662C27.0698 6.03632 29.0871 4.65967 31.5134 4.65967C33.449 4.65967 35.5844 5.71863 36.0025 8.23368C36.0388 8.44547 35.8662 8.64844 35.639 8.64844H34.6576C34.4849 8.64844 34.3304 8.52489 34.3032 8.35722C34.0215 6.68935 32.7674 6.08045 31.5225 6.08045Z" fill="#DADADA"/>
<path d="M42.465 7.45703C44.8004 7.45703 46.4634 8.66602 47.054 10.6428C47.1177 10.8634 46.945 11.0928 46.6997 11.0928H45.6001C45.4456 11.0928 45.3093 10.9957 45.2548 10.8545C44.8459 9.72498 43.9008 9.08078 42.465 9.08078C40.5113 9.08078 39.4208 10.6251 39.4208 12.4871C39.4208 14.3491 40.5204 15.8935 42.465 15.8935C43.9008 15.8935 44.8459 15.2492 45.2548 14.1197C45.3093 13.9785 45.4456 13.8814 45.6001 13.8814H46.6997C46.945 13.8814 47.1177 14.1109 47.045 14.3315C46.4179 16.3965 44.8095 17.5172 42.465 17.5172C39.4572 17.5172 37.5489 15.2581 37.5489 12.4871C37.5398 9.72498 39.4572 7.45703 42.465 7.45703Z" fill="#DADADA"/>
<path d="M48.8157 15.9109H51.1693V9.55708H49.0701C48.8702 9.55708 48.7067 9.39823 48.7067 9.20409V8.30397C48.7067 8.10982 48.8702 7.95098 49.0701 7.95098H51.9326C52.5324 7.95098 53.0231 8.42751 53.0231 9.00994V9.26586C53.541 8.05688 54.6588 7.75684 56.3944 7.75684C57.0578 7.75684 57.503 7.86273 57.7575 7.95098C57.9029 8.00393 57.9938 8.1363 57.9938 8.27749V9.21291C57.9938 9.45118 57.7575 9.62767 57.5212 9.54825C57.2123 9.45118 56.7761 9.36293 56.2036 9.36293C54.3498 9.36293 53.0321 10.5896 53.0321 12.7163V15.9109H56.0582C56.2581 15.9109 56.4217 16.0697 56.4217 16.2639V17.164C56.4217 17.3581 56.2581 17.517 56.0582 17.517H48.8248C48.6249 17.517 48.4613 17.3581 48.4613 17.164V16.2639C48.4522 16.0697 48.6158 15.9109 48.8157 15.9109Z" fill="#DADADA"/>
<path d="M59.375 12.4871C59.375 9.72498 61.2651 7.45703 64.3366 7.45703C67.4081 7.45703 69.2982 9.71616 69.2982 12.4871C69.2982 15.2581 67.4081 17.5172 64.3366 17.5172C61.2651 17.5172 59.375 15.2581 59.375 12.4871ZM64.3366 15.8935C66.3085 15.8935 67.4444 14.3491 67.4444 12.4871C67.4444 10.6251 66.3085 9.08078 64.3366 9.08078C62.3647 9.08078 61.2288 10.6251 61.2288 12.4871C61.2288 14.3491 62.3647 15.8935 64.3366 15.8935Z" fill="#DADADA"/>
<path d="M113.809 12.4871C113.809 9.72498 115.699 7.45703 118.77 7.45703C121.842 7.45703 123.732 9.71616 123.732 12.4871C123.732 15.2581 121.842 17.5172 118.77 17.5172C115.699 17.5172 113.809 15.2581 113.809 12.4871ZM118.77 15.8935C120.742 15.8935 121.878 14.3491 121.878 12.4871C121.878 10.6251 120.742 9.08078 118.77 9.08078C116.798 9.08078 115.662 10.6251 115.662 12.4871C115.662 14.3491 116.798 15.8935 118.77 15.8935Z" fill="#DADADA"/>
<path d="M73.4059 15.9902H76.2502C76.4501 15.9902 76.6137 16.1491 76.6137 16.3432V17.1727C76.6137 17.3669 76.4501 17.5257 76.2502 17.5257H71.9883C71.7884 17.5257 71.6248 17.3669 71.6248 17.1727V6.28306H70.2072C70.0073 6.28306 69.8438 6.12421 69.8438 5.93007V5.10055C69.8438 4.9064 70.0073 4.74756 70.2072 4.74756H72.3064C72.9061 4.74756 73.3968 5.22409 73.3968 5.80652V15.9902H73.4059Z" fill="#DADADA"/>
<path d="M79.695 15.9902H82.5393C82.7392 15.9902 82.9028 16.1491 82.9028 16.3432V17.1727C82.9028 17.3669 82.7392 17.5257 82.5393 17.5257H78.2774C78.0775 17.5257 77.9139 17.3669 77.9139 17.1727V6.28306H76.4963C76.2964 6.28306 76.1328 6.12421 76.1328 5.93007V5.10055C76.1328 4.9064 76.2964 4.74756 76.4963 4.74756H78.5954C79.1952 4.74756 79.6859 5.22409 79.6859 5.80652V15.9902H79.695Z" fill="#DADADA"/>
<path d="M2.87155 8.48051C1.99009 7.66864 1.37216 6.6185 1.37216 5.37421V5.24184C1.44486 3.11509 3.24412 1.40309 5.43413 1.34132H19.3739C19.7374 1.35897 20.0281 1.60606 20.0281 1.96787V13.4223C20.3462 13.4753 20.5007 13.5194 20.8096 13.6253C21.055 13.7136 21.3912 13.8989 21.3912 13.8989V1.96787C21.373 0.882435 20.4825 0.00878906 19.3648 0.00878906H5.42505C2.41719 0.0529126 0 2.44441 0 5.37421C0 7.07738 0.799672 8.53346 2.10823 9.55713C2.1991 9.62772 2.28088 9.71597 2.51715 9.71597C2.92607 9.71597 3.21686 9.39828 3.19869 9.05412C3.1896 8.7629 3.06238 8.657 2.87155 8.48051Z" fill="#DADADA"/>
<path d="M19.0099 14.1726H8.07801C7.34195 14.1814 6.75128 14.755 6.75128 15.4698V16.9965C6.76945 17.7025 7.38738 18.3025 8.12344 18.3025H8.9322V16.9965H8.12344V15.5051H8.56871C9.94997 15.5051 10.9677 16.7494 10.9677 18.0819C10.9677 19.2644 9.85909 20.7735 8.00531 20.6499C6.36053 20.544 5.46999 19.1232 5.46999 18.0819V5.1449C5.46999 4.56247 4.97928 4.08594 4.37952 4.08594H3.28906V5.40964H4.09782V18.0908C4.05239 20.6676 5.98795 21.9648 8.00531 21.9648L19.019 22.0001C21.2362 22.0001 23.0355 20.2528 23.0355 18.0908C23.0355 15.9287 21.2272 14.1726 19.0099 14.1726ZM21.6633 18.1702C21.6179 19.5557 20.4457 20.6676 19.0099 20.6676L11.3494 20.6411C11.9582 19.9528 12.3308 19.0615 12.3308 18.0908C12.3308 16.5641 11.3948 15.5139 11.3948 15.5139H19.019C20.482 15.5139 21.6724 16.67 21.6724 18.0908L21.6633 18.1702Z" fill="#DADADA"/>
<path d="M16.0663 5.64793H7.82422V4.32422H16.0663C16.4389 4.32422 16.7478 4.61543 16.7478 4.98607C16.7478 5.35671 16.448 5.64793 16.0663 5.64793Z" fill="#DADADA"/>
<path d="M16.0663 11.8779H7.82422V10.5542H16.0663C16.4389 10.5542 16.7478 10.8454 16.7478 11.2161C16.7478 11.5867 16.448 11.8779 16.0663 11.8779Z" fill="#DADADA"/>
<path d="M17.5202 8.76316H7.82422V7.43945H17.5112C17.8837 7.43945 18.1927 7.73067 18.1927 8.10131C18.2018 8.46312 17.8928 8.76316 17.5202 8.76316Z" fill="#DADADA"/>
<path d="M92.5 17.1727C92.5 17.3669 92.3364 17.5257 92.1365 17.5257H91.3635C91.1636 17.5257 91 17.3669 91 17.1727V5.10055C91 4.9064 91.1636 4.74756 91.3635 4.74756H92.1365C92.3364 4.74756 92.5 4.9064 92.5 5.10055V17.1727Z" fill="#DADADA"/>
<path d="M106.583 4.74756H101.363C101.164 4.74756 101 4.9064 101 5.10055V5.93007C101 6.12421 101.164 6.28306 101.363 6.28306H103.463V15.992H101.363C101.164 15.992 101 16.1508 101 16.345V17.1745C101 17.3687 101.164 17.5275 101.363 17.5275H103.463V17.5257H106.583C110.738 17.5257 112.429 14.6595 112.429 11.1366C112.429 7.61382 110.737 4.74756 106.583 4.74756ZM106.583 15.992H105.211V6.28041H106.583C109.647 6.28041 110.681 8.43452 110.681 11.1358C110.681 13.837 109.646 15.992 106.583 15.992Z" fill="#DADADA"/>
<path d="M130.029 7.46387C132.365 7.46387 134.028 8.67285 134.619 10.6496C134.682 10.8702 134.509 11.0996 134.264 11.0996H133.165C133.01 11.0996 132.874 11.0026 132.819 10.8614C132.41 9.73182 131.465 9.08761 130.029 9.08761C128.076 9.08761 126.985 10.6319 126.985 12.494C126.985 14.356 128.085 15.9003 130.029 15.9003C131.465 15.9003 132.41 15.2561 132.819 14.1265C132.874 13.9853 133.01 13.8883 133.165 13.8883H134.264C134.509 13.8883 134.682 14.1177 134.609 14.3383C133.982 16.4033 132.374 17.524 130.029 17.524C127.022 17.524 125.113 15.2649 125.113 12.494C125.104 9.73182 127.022 7.46387 130.029 7.46387Z" fill="#DADADA"/>
<path d="M137.877 14.2649C138.016 15.5427 138.993 16.0846 140.129 16.0846C141.264 16.0846 142.181 15.5816 142.181 14.6135C142.181 13.7231 141.384 13.4327 140.508 13.2589L139.272 13.0462C137.538 12.7365 136.302 11.8849 136.302 10.3176C136.302 8.57563 138.076 7.45312 140.029 7.45312C141.981 7.45312 143.653 8.47679 143.894 10.4473C143.93 10.6556 143.76 10.8568 143.536 10.8568H142.57C142.4 10.8568 142.249 10.735 142.221 10.57C142.042 9.44663 141.105 8.88538 140.069 8.88538C139.032 8.88538 138.076 9.42721 138.076 10.2982C138.076 11.0527 138.754 11.3431 139.69 11.5178L140.946 11.7305C142.659 12.0208 144.054 12.8724 144.054 14.595C144.054 16.3175 142.38 17.5177 140.168 17.5177C137.836 17.5177 136.341 16.2981 136.122 14.3629C136.094 14.1414 136.274 13.9472 136.503 13.9472H137.492C137.682 13.9472 137.848 14.0814 137.877 14.2658V14.2649Z" fill="#DADADA"/>
</g>
<defs>
<clipPath id="clip0_3449_5072">
<rect width="144" height="22" fill="white"/>
</clipPath>
</defs>
</svg>
