<?xml version="1.0" encoding="utf-8"?>
<svg version="1.1" id="Layer_2" xmlns="http://www.w3.org/2000/svg" xmlns:xlink="http://www.w3.org/1999/xlink" x="0px" y="0px"
	 viewBox="0 0 84.6 34.8" style="enable-background:new 0 0 84.6 34.8;" xml:space="preserve">
<style type="text/css">
	.st0{fill:#FFFFFF;}
</style>
<g>
	<path class="st0" d="M45.3,18.7c0,2.7-2.4,4.3-5.1,4.3c-3.4,0-5.2-1-5.8-3.1l3-0.8c0.3,1.2,1.6,2.3,2.9,2.3c1,0,2.4-0.5,2.4-1.6
		c0-0.9-0.6-1.7-1.5-2l-2.1-0.5c-2.7-0.6-4.3-2.1-4.3-4.1c0-3,2.4-4.3,4.7-4.3c4.1,0,5,1.5,5.5,3.3l-3.1,0.5
		c-0.3-1.9-1.8-2.2-2.3-2.2c-3.6,0.1-2.4,3.8,0.4,4.4l1.8,0.4C43.8,15.8,45.3,17.2,45.3,18.7z"/>
</g>
<g>
	<path class="st0" d="M54.2,20.1l0.2,1.3c-0.5,0.8-1.6,1.6-3.5,1.6c-2.7,0-4.6-1.8-4.6-4.5c-0.2-5.6,7.8-6.8,8.2-2.4l-1.9,0.4
		c0-0.8,0.1-1.8-1.5-1.8c-3.6,0.2-2.8,6.6,0.5,6.4C52.5,21,53.4,20.7,54.2,20.1z"/>
</g>
<g>
	<path class="st0" d="M63,15.2C63,15.2,63,15.2,63,15.2l0,0.3l-2.2,1.3c-0.1-0.6-0.3-1.3-0.5-1.2c-0.6,0.6-0.9,1.4-0.9,2.5V23h-2.5
		v-8.4l1.9-1.3l0.4,2.1c0.5-1.1,1.4-1.8,2.3-1.8C62.3,13.6,63,14.4,63,15.2z"/>
</g>
<g>
	<path class="st0" d="M68.1,13.6c-6.3-0.1-6.5,9.7,0,9.5C74.6,23.2,74.4,13.5,68.1,13.6z M68.1,21.9c-1.3,0-1.9-1.2-1.9-3.6
		c0-1.6,0.3-2.6,0.8-3.2c0.3-0.3,0.7-0.4,1.1-0.4c1.3,0,1.9,1.2,1.9,3.6C70,20.7,69.4,21.9,68.1,21.9z"/>
</g>
<g>
	<polygon class="st0" points="77.6,8.3 77.5,23 75,23 75,10 	"/>
</g>
<g>
	<polygon class="st0" points="83.3,8.3 83.2,23 80.7,23 80.7,10 	"/>
</g>
<g>
	<path class="st0" d="M33.8,29.6c-0.3-1.2-1.4-2.4-3.3-2.4c0-7.6,0-15,0-22.7c0-1.1-0.4-2-1.2-2.8c-0.7-0.7-1.7-1.1-2.7-1.2
		c-7.5,0-14.8,0-22.3,0C1.1,0-0.8,4.3,1.6,6.4l0,0c1.4,1.4,3.7,0.9,5.6,1c0,7.5,0,14.9,0,22.5c-0.1,2.9,2.3,4.5,5.1,4.1h19
		C33.3,33.6,34.4,31.3,33.8,29.6z M1,2.8c1-2.6,4.5-2.4,5.6-0.2c-0.6,0-2,0-2.3,0v0c0,0-0.1,0-0.1,0l0,0l0,0c-0.6,0-1.1,0-1.6,0.4
		C2.1,3.1,1.8,4,2.3,4.4c0.9,0.4,2,0.1,2.9,0.2C5,6.1,3.7,6.7,2.1,6.4C0.9,5.6,0.5,4.1,1,2.8z M7.1,6.4v0.7c-1.4-0.1-3,0.2-4.4-0.3
		c1.5,0,2.7-0.8,2.9-2.3h0c0-0.1,0-0.2,0-0.4h0c0-0.6-0.4-1-0.7-1.3l1.8,0C7.4,3.9,7,5.3,7.1,6.4z M12.1,33.8L12.1,33.8
		c-2.7,0.3-4.7-1.1-4.7-3.8c0-5.6,0-11.2,0-16.6c0-2.4,0-4.9,0-7.3c0-2.2,0.1-4.1-2.2-5.2c7.2-0.1,14.2,0,21.5,0
		c0.9,0,1.8,0.4,2.5,1.1c0.7,0.7,1.1,1.6,1.1,2.6c-0.1,7.7,0,15.1,0,22.7c-6.8,0-12.6,0-18,0c-3-0.6-4.9,3.6-2.3,5.5
		c0.7,0.8,1.8,0.7,2.8,0.7C12.5,33.4,12.3,33.5,12.1,33.8z M12.7,29.4c0,0-0.1-0.1-0.1-0.1l1.4,0c0.7,1.1,0.3,2.8-0.8,3.7
		c-0.8-0.1-1.8,0.1-2.5-0.2C12.5,32.8,13.7,30.8,12.7,29.4z M13.4,29c-0.7,0-1,0-1.3,0c-1.7-0.4-2.7,1.6-1.2,1.5c0.6,0,1.2,0,1.8,0
		c0,1.4-1.2,2.1-2.6,1.9c0,0-0.1-0.1-0.1-0.1l0,0c-2.3-1.8-0.8-5.5,2.2-5c0.1,0.4,0.5,0.4,0.8,0.6c0.3,0.3,0.6,0.6,0.9,1
		C13.9,29,13.7,29,13.4,29z M32.1,33.4c-0.3,0.2-0.6,0.3-0.9,0.4H12.6c2.7-1,2.9-5.2,0.2-6.3c6,0,11.7,0,17.8,0
		C34,27.5,34.8,31.6,32.1,33.4z"/>
	<path class="st0" d="M27.9,16.2c-5.5,0.3-11,0-16.5,0.1c-0.4,0-0.9-0.1-0.8-0.6c-0.1-0.5,0.5-0.6,0.8-0.5c5.6,0,10.8,0,15.8,0
		c0.4,0,0.9,0.1,0.8,0.6C28.1,15.9,28.1,16,27.9,16.2z"/>
	<path class="st0" d="M11.4,21.3c5.3,0,10.7,0,15.9,0c0.7,0,0.8,0.2,0.8,0.6c0.1,0.5-0.5,0.6-0.8,0.5c-5.3,0-10.5,0-15.8,0
		c-0.4,0-0.9-0.1-0.8-0.5C10.6,21.5,10.8,21.3,11.4,21.3z"/>
	<path class="st0" d="M11.4,18.2c5.3,0,10.7,0,15.9,0c0.7,0,0.8,0.2,0.8,0.6c0.1,0.5-0.5,0.6-0.8,0.5c-5.3,0-10.5,0-15.8,0
		c-0.4,0-0.9-0.1-0.8-0.5C10.6,18.4,10.8,18.2,11.4,18.2z"/>
	<path class="st0" d="M27.9,25.4c-5.5,0.3-11,0-16.5,0.1c-0.4,0-0.9-0.1-0.8-0.5c0-0.4,0.1-0.6,0.8-0.6c5.3,0,10.6,0,15.9,0
		C28.3,24.3,28.2,25.1,27.9,25.4z"/>
	<path class="st0" d="M27.9,13.1c-5.5,0.3-11,0-16.5,0.1c-0.4,0-0.9-0.1-0.8-0.5c0-0.4,0.1-0.6,0.8-0.6c5.3,0,10.6,0,15.9,0
		C28.3,12,28.2,12.8,27.9,13.1z"/>
	<path class="st0" d="M27.9,10c-5.5,0.3-11,0-16.5,0.1c-0.4,0-0.9-0.1-0.8-0.5c0-0.4,0.1-0.6,0.8-0.6c5.3,0,10.6,0,15.9,0
		C28.3,8.9,28.2,9.7,27.9,10z"/>
	<path class="st0" d="M27.9,6.9c-5.5,0.3-11,0-16.5,0.1c-0.4,0-0.9-0.1-0.8-0.5c0-0.4,0.1-0.6,0.8-0.6c5.3,0,10.6,0,15.9,0
		C28.3,5.9,28.2,6.7,27.9,6.9z"/>
</g>
</svg>
