<svg width="81" height="23" viewBox="0 0 81 23" fill="none" xmlns="http://www.w3.org/2000/svg">
<path d="M30.6132 6.22875C29.113 6.22875 27.9569 7.10565 27.9569 8.40743C27.9569 9.67305 28.9365 10.107 30.1543 10.342L31.6898 10.5951C33.7283 10.9387 35.1314 11.8969 35.1314 14.175C35.1314 16.5526 33.2253 17.9448 30.7985 17.9448C28.61 17.9448 26.545 16.6249 26.2449 14.0394C26.2185 13.8225 26.3861 13.6326 26.5979 13.6326H27.5157C27.6922 13.6326 27.8422 13.7682 27.8687 13.949C28.0628 15.7752 29.4483 16.4984 30.8073 16.4984C32.2899 16.4984 33.4636 15.748 33.4636 14.2293C33.4636 12.8733 32.5193 12.4032 31.2662 12.1591L29.7484 11.8879C27.6216 11.5263 26.2891 10.4776 26.2891 8.48879C26.2891 6.18355 28.2482 4.77328 30.6043 4.77328C32.484 4.77328 34.5578 5.8581 34.9638 8.43455C34.9991 8.65151 34.8314 8.85944 34.6108 8.85944H33.6577C33.49 8.85944 33.34 8.73287 33.3135 8.56111C33.04 6.85252 31.8222 6.22875 30.6132 6.22875Z" fill="#101010"/>
<path d="M41.2381 7.63901C43.506 7.63901 45.1209 8.87751 45.6945 10.9025C45.7563 11.1285 45.5886 11.3636 45.3504 11.3636H44.2826C44.1326 11.3636 44.0002 11.2641 43.9473 11.1195C43.5501 9.96233 42.6324 9.3024 41.2381 9.3024C39.3408 9.3024 38.2818 10.8844 38.2818 12.7919C38.2818 14.6903 39.3496 16.2814 41.2381 16.2814C42.6324 16.2814 43.5501 15.6215 43.9473 14.4643C44.0002 14.3197 44.1326 14.2202 44.2826 14.2202H45.3504C45.5886 14.2202 45.7563 14.4553 45.6857 14.6813C45.0768 16.7967 43.5148 17.9448 41.2381 17.9448C38.3171 17.9448 36.4639 15.6305 36.4639 12.7919C36.4551 9.96233 38.3171 7.63901 41.2381 7.63901Z" fill="#101010"/>
<path d="M47.406 16.2993H49.6916V9.79036H47.6531C47.459 9.79036 47.3001 9.62764 47.3001 9.42875V8.50666C47.3001 8.30777 47.459 8.14505 47.6531 8.14505H50.4329C51.0153 8.14505 51.4919 8.63322 51.4919 9.22987V9.49203C51.9949 8.25353 53.0803 7.94617 54.7658 7.94617C55.41 7.94617 55.8425 8.05465 56.0896 8.14505C56.2307 8.19929 56.319 8.33489 56.319 8.47954V9.43779C56.319 9.68188 56.0896 9.86268 55.8601 9.78132C55.5601 9.68188 55.1365 9.59148 54.5805 9.59148C52.7803 9.59148 51.5007 10.8481 51.5007 13.0267V16.2993H54.4393C54.6335 16.2993 54.7923 16.462 54.7923 16.6609V17.583C54.7923 17.7819 54.6335 17.9446 54.4393 17.9446H47.4149C47.2207 17.9446 47.0619 17.7819 47.0619 17.583V16.6609C47.053 16.462 47.2119 16.2993 47.406 16.2993Z" fill="#101010"/>
<path d="M57.6611 12.7919C57.6611 9.96233 59.4967 7.63901 62.4794 7.63901C65.4622 7.63901 67.2977 9.95329 67.2977 12.7919C67.2977 15.6305 65.4622 17.9448 62.4794 17.9448C59.4967 17.9448 57.6611 15.6305 57.6611 12.7919ZM62.4794 16.2814C64.3944 16.2814 65.4975 14.6994 65.4975 12.7919C65.4975 10.8935 64.3944 9.3024 62.4794 9.3024C60.5645 9.3024 59.4614 10.8844 59.4614 12.7919C59.4614 14.6994 60.5645 16.2814 62.4794 16.2814Z" fill="#101010"/>
<path d="M71.2855 16.3809H74.0476C74.2417 16.3809 74.4006 16.5436 74.4006 16.7425V17.5923C74.4006 17.7912 74.2417 17.9539 74.0476 17.9539H69.9088C69.7147 17.9539 69.5558 17.7912 69.5558 17.5923V6.43673H68.1792C67.985 6.43673 67.8262 6.27401 67.8262 6.07512V5.22535C67.8262 5.02646 67.985 4.86374 68.1792 4.86374H70.2177C70.8001 4.86374 71.2766 5.35191 71.2766 5.94856V16.3809H71.2855Z" fill="#101010"/>
<path d="M77.3929 16.3809H80.155C80.3492 16.3809 80.508 16.5436 80.508 16.7425V17.5923C80.508 17.7912 80.3492 17.9539 80.155 17.9539H76.0162C75.8221 17.9539 75.6632 17.7912 75.6632 17.5923V6.43673H74.2866C74.0924 6.43673 73.9336 6.27401 73.9336 6.07512V5.22535C73.9336 5.02646 74.0924 4.86374 74.2866 4.86374H76.3251C76.9075 4.86374 77.3841 5.35191 77.3841 5.94856V16.3809H77.3929Z" fill="#101010"/>
<path d="M20.7734 15.2959V2.00692C20.7557 0.894976 19.8909 0 18.8055 0H5.26835C2.34737 0.0452008 0 2.49508 0 5.49641C0 6.50891 0.264742 7.37677 0.670679 8.13614C1.01484 8.76895 1.55315 9.3656 2.08263 9.80857C2.23265 9.93513 2.16206 9.88089 2.62094 10.1702C3.25632 10.5679 3.97994 10.7668 3.97994 10.7668L3.97112 18.7131C3.98877 19.0928 4.02407 19.4544 4.12114 19.7889C4.42118 20.9099 5.1801 21.7687 6.2126 22.1845C6.64501 22.3563 7.13037 22.4738 7.65103 22.4829L18.4613 22.519C20.6145 22.519 22.3618 20.7291 22.3618 18.5142C22.3706 17.2034 21.7353 16.0282 20.7734 15.2959Z" fill="#FFEEDA"/>
<path d="M21.0375 18.6137C20.9934 20.033 19.855 21.172 18.4607 21.172L11.0215 21.1449C11.6127 20.4398 11.9746 19.5267 11.9746 18.5323C11.9746 16.9684 11.0656 15.8926 11.0656 15.8926H18.4695C19.8903 15.8926 21.0464 17.0768 21.0464 18.5323L21.0375 18.6137Z" fill="#CCCCCC"/>
<path d="M2.78861 8.68764C1.93261 7.85595 1.33253 6.78017 1.33253 5.50551V5.36991C1.40313 3.19123 3.15042 1.43744 5.27718 1.37416H18.8143C19.1673 1.39224 19.4497 1.64536 19.4497 2.01601V13.7501C19.7585 13.8044 19.9085 13.8496 20.2086 13.9581C20.4469 14.0485 20.7734 14.2383 20.7734 14.2383V2.01601C20.7557 0.904068 19.8909 0.00909424 18.8055 0.00909424H5.26835C2.34737 0.054295 0 2.50418 0 5.50551C0 7.25026 0.776576 8.74188 2.04733 9.79054C2.13558 9.86286 2.215 9.95327 2.44445 9.95327C2.84156 9.95327 3.12395 9.62782 3.1063 9.27525C3.09747 8.97693 2.97393 8.86845 2.78861 8.68764Z" fill="#101010"/>
<path d="M18.4611 14.5185H7.84496C7.13016 14.5275 6.55655 15.1152 6.55655 15.8474V17.4114C6.5742 18.1346 7.17428 18.7493 7.88908 18.7493H8.67448V17.4114H7.88908V15.8836C7.88908 15.8836 8.08322 15.8836 8.32149 15.8836C9.66285 15.8836 10.6512 17.1582 10.6512 18.5233C10.6512 19.7347 9.5746 21.2805 7.77436 21.154C6.17709 21.0455 5.31227 19.59 5.31227 18.5233V5.27043C5.31227 4.67378 4.83573 4.18561 4.2533 4.18561H3.19434V5.54163H3.97973V18.5323C3.93561 21.1721 5.81527 22.501 7.77436 22.501L18.4699 22.5371C20.6231 22.5371 22.3704 20.7472 22.3704 18.5323C22.3704 16.3175 20.6143 14.5185 18.4611 14.5185ZM21.0379 18.6137C20.9938 20.033 19.8554 21.1721 18.4611 21.1721L11.0219 21.1449C11.6131 20.4398 11.9749 19.5268 11.9749 18.5323C11.9749 16.9684 11.066 15.8926 11.066 15.8926H18.4699C19.8907 15.8926 21.0467 17.0769 21.0467 18.5323L21.0379 18.6137Z" fill="#101010"/>
<path d="M15.6017 5.78589H7.59766V4.42987H15.6017C15.9635 4.42987 16.2635 4.7282 16.2635 5.10788C16.2635 5.47853 15.9723 5.78589 15.6017 5.78589Z" fill="#101010"/>
<path d="M15.6017 12.168H7.59766V10.812H15.6017C15.9635 10.812 16.2635 11.1103 16.2635 11.49C16.2635 11.8606 15.9723 12.168 15.6017 12.168Z" fill="#101010"/>
<path d="M17.0136 8.97693H7.59766V7.62091H17.0048C17.3666 7.62091 17.6667 7.91924 17.6667 8.29892C17.6755 8.66957 17.3754 8.97693 17.0136 8.97693Z" fill="#101010"/>
</svg>
