<svg width="71" height="72" viewBox="0 0 71 72" fill="none" xmlns="http://www.w3.org/2000/svg">
<g clip-path="url(#clip0_315_48)">
<path d="M51.4286 43.6692L51.39 44.1257L51.3514 44.5821C50.9079 44.6378 50.4611 44.6796 50.0111 44.7075C49.5579 44.7332 49.1046 44.7492 48.645 44.7492C48.3846 44.7492 48.1243 44.7492 47.8671 44.7492C47.61 44.7492 47.3529 44.7235 47.0957 44.7042C46.8386 44.685 46.5879 44.6592 46.3339 44.6335C46.08 44.6078 45.8293 44.5725 45.5786 44.5371H45.5529C45.3921 44.5146 45.2314 44.4889 45.0739 44.46L44.6014 44.3764H44.5468H44.4986L44.055 44.2864L43.6114 44.1835L43.5343 44.1642L43.4571 44.145L43.0425 44.0389L42.6343 43.92L42.5379 43.8942L42.4414 43.8685L42.0461 43.7432L41.6571 43.6114L41.5511 43.576L41.445 43.5407L41.3679 43.515L41.2971 43.4892C37.9925 42.2824 35.0268 40.298 32.6507 37.7035C30.2329 35.0688 28.4786 31.8952 27.5336 28.4464C27.5336 28.4464 27.5336 28.4271 27.5336 28.4175V28.395L27.4082 27.9096C27.3696 27.7457 27.3311 27.5882 27.2957 27.4178V27.3953C27.2942 27.3857 27.2942 27.376 27.2957 27.3664C27.2571 27.2025 27.2218 27.045 27.1896 26.8714C27.1575 26.6978 27.1254 26.55 27.0964 26.37C27.0964 26.37 27.0964 26.37 27.0964 26.3507C27.0949 26.3422 27.0949 26.3335 27.0964 26.325C27.0675 26.1578 27.0386 26.0035 27.0129 25.8203C26.9871 25.6371 26.9646 25.4764 26.9421 25.3028C26.9406 25.2965 26.9406 25.2899 26.9421 25.2835C26.9196 25.11 26.9004 24.9364 26.8811 24.7628L26.8329 24.2357C26.8329 24.0846 26.8104 23.9335 26.8007 23.7825C26.7911 23.6314 26.7846 23.4803 26.775 23.3293C26.7654 23.1782 26.775 23.0078 26.7589 22.8728C26.7429 22.7378 26.7589 22.5514 26.7589 22.4164C26.7589 21.9407 26.7589 21.4682 26.8007 20.9989C26.8425 20.5296 26.8714 20.0668 26.9261 19.6071L27.9868 19.5878L28.0382 23.2457H28.1443L28.2504 23.2618L28.35 23.281H28.4561L28.7357 23.3132L29.0154 23.3518H29.0346H29.1118H29.1954L29.3496 23.3807L29.5104 23.4096H29.5907H29.6711L31.0821 19.9735L38.8286 22.77L37.2857 26.4343L37.4593 26.5435L37.6329 26.6593L37.6779 26.6882L37.7229 26.7171C37.7547 26.7435 37.788 26.7682 37.8225 26.791L37.9221 26.8585L38.0925 26.971L38.2564 27.0835L40.8279 24.6471L46.7679 30.0471L43.83 32.8243L43.9714 33.0364L44.1064 33.2485L44.1354 33.2935L44.1643 33.3385L44.2029 33.406L44.2414 33.4735L44.2896 33.5507L44.3379 33.6278L44.4729 33.8432L44.6014 34.065L48.0536 32.8628L50.9721 40.0821L47.295 41.3678V41.4192V41.4771C47.295 41.4771 47.295 41.5028 47.295 41.5157C47.2935 41.5285 47.2935 41.5414 47.295 41.5542C47.3207 41.7085 47.3432 41.8757 47.3689 42.0171L47.4364 42.48C47.4364 42.5282 47.4364 42.5732 47.4525 42.6214C47.4686 42.6696 47.4525 42.7146 47.4525 42.7628C47.4525 42.811 47.4718 42.9492 47.4846 43.0425C47.4975 43.1357 47.5071 43.2289 47.5168 43.3221L51.4286 43.6692Z" fill="#23337B"/>
<path d="M50.805 50.6829L51.345 44.5757C50.9014 44.6314 50.4546 44.6732 50.0046 44.7011C49.5514 44.7268 49.0982 44.7429 48.6386 44.7429C45.748 44.741 42.8871 44.1598 40.225 43.0336C37.5629 41.9074 35.1535 40.2589 33.1393 38.1857C29.0033 33.9601 26.6944 28.2779 26.7107 22.365C26.7107 21.8893 26.7107 21.4168 26.7525 20.9475C26.7943 20.4782 26.8232 20.0154 26.8779 19.5557L21.0407 19.6457L21.0986 23.5864C20.7193 23.67 19.2375 24.0879 18.8743 24.21L17.3571 20.8414L11.0957 23.805L12.7543 27.45C12.4329 27.6814 11.2789 28.6618 10.9993 28.9222L8.19643 26.4279L3.65786 31.7314L6.69214 34.4314C6.50893 34.7529 5.84036 36.1222 5.68929 36.4693L2.05714 35.3314L0.0257143 42.0557L3.94714 43.29C3.915 43.6468 3.84429 45.09 3.84429 45.4564V45.54L0 46.0093L0.822857 52.9972L4.95643 52.4893C5.06893 52.8461 5.59929 54.2282 5.74071 54.5657L2.36571 56.6229L5.90143 62.6657L9.50143 60.4672C9.74571 60.7436 10.7679 61.7882 11.0379 62.0357L8.75571 65.3336L14.4 69.39L16.8236 65.8929C17.145 66.0439 18.4982 66.5775 18.8421 66.6964L18.0771 70.6436L24.8464 72L25.65 67.8214H25.7593C26.1096 67.8214 27.495 67.7507 27.8357 67.7186L28.7036 71.6014L35.4279 70.0329L34.515 65.9572C34.8557 65.8061 36.1736 65.1375 36.495 64.9543L38.7964 68.085L44.3121 63.8614L41.9014 60.5764C42.1554 60.2968 43.1132 59.1204 43.335 58.815L46.6136 60.6793L49.9693 54.5336L46.5364 52.5729C46.6586 52.2097 47.0636 50.715 47.1471 50.3229L50.805 50.6829ZM25.7529 53.6111C24.7089 53.6106 23.6755 53.4011 22.7139 52.9948C21.7522 52.5884 20.8816 51.9936 20.1536 51.2454C18.6675 49.7141 17.8363 47.6642 17.8363 45.5304C17.8363 43.3965 18.6675 41.3466 20.1536 39.8154C20.8815 39.067 21.752 38.4721 22.7137 38.0658C23.6754 37.6596 24.7089 37.4503 25.7529 37.4503C26.7969 37.4503 27.8303 37.6596 28.792 38.0658C29.7537 38.4721 30.6243 39.067 31.3521 39.8154C32.8382 41.3466 33.6694 43.3965 33.6694 45.5304C33.6694 47.6642 32.8382 49.7141 31.3521 51.2454C30.6241 51.9936 29.7535 52.5884 28.7919 52.9948C27.8302 53.4011 26.7969 53.6106 25.7529 53.6111Z" fill="url(#paint0_linear_315_48)"/>
<path d="M48.6386 1.88555e-06C43.2487 -0.0022491 38.0527 2.01101 34.0714 5.64428C30.0802 9.2697 27.5258 14.2096 26.8746 19.5621L27.9354 19.5429L27.9868 23.2007H28.0929L28.1989 23.2168H28.2407H28.2825L28.6264 23.2586L28.9671 23.3068H29.0025H29.0411L29.2564 23.3421L29.475 23.3839H29.5393H29.6036L31.0821 19.9736L38.8286 22.77L37.2857 26.4343L37.4593 26.5436L37.6329 26.6593L37.8257 26.7911L38.0121 26.9196L38.1279 26.9968L38.2404 27.0739L40.8118 24.6375L46.7518 30.0375L43.8139 32.8146L43.9554 33.0268L44.0904 33.2389L44.1193 33.2839L44.1482 33.3289C44.1707 33.3675 44.1964 33.4061 44.2189 33.4478C44.2414 33.4896 44.2671 33.5282 44.2896 33.5668L44.4246 33.7821L44.5532 34.0039L48.0054 32.8018L50.9239 40.0211L47.2468 41.3068V41.355V41.4064C47.2468 41.4064 47.2468 41.4321 47.2468 41.445C47.2452 41.4578 47.2452 41.4707 47.2468 41.4836V41.5157C47.2725 41.6507 47.295 41.7889 47.3143 41.9271C47.3336 42.0653 47.3561 42.2003 47.3754 42.3386C47.3754 42.3386 47.3754 42.3611 47.3754 42.3739C47.3754 42.3868 47.3754 42.3964 47.3754 42.4093C47.3754 42.4221 47.3754 42.5025 47.3914 42.5507C47.4075 42.5989 47.3914 42.6439 47.3914 42.6921C47.3914 42.7403 47.4107 42.8786 47.4236 42.9718C47.4364 43.065 47.4461 43.1582 47.4557 43.2514L51.3129 43.605L51.2357 44.5178C56.5371 43.8353 61.4013 41.2241 64.8996 37.1828C68.6217 32.8857 70.5969 27.3489 70.4351 21.6661C70.2732 15.9834 67.986 10.568 64.0254 6.48964C62.019 4.44174 59.6254 2.81334 56.9839 1.69921C54.3423 0.585079 51.5055 0.00747099 48.6386 1.88555e-06Z" fill="url(#paint1_linear_315_48)"/>
</g>
<defs>
<linearGradient id="paint0_linear_315_48" x1="0" y1="45.7811" x2="51.345" y2="45.7811" gradientUnits="userSpaceOnUse">
<stop stop-color="#8B9CDF"/>
<stop offset="1" stop-color="#375BD2"/>
</linearGradient>
<linearGradient id="paint1_linear_315_48" x1="3671.04" y1="3087.31" x2="9590.41" y2="3087.31" gradientUnits="userSpaceOnUse">
<stop stop-color="#8B9CDF"/>
<stop offset="1" stop-color="#375BD2"/>
</linearGradient>
<clipPath id="clip0_315_48">
<rect width="70.5536" height="72" fill="white"/>
</clipPath>
</defs>
</svg>
