<svg width="29" height="23" viewBox="0 0 29 23" fill="none" xmlns="http://www.w3.org/2000/svg">
<path fill-rule="evenodd" clip-rule="evenodd" d="M8.27943 9.15199C8.70937 8.5657 9.38602 8.09899 10.2266 8.09899C11.0673 8.09899 11.7439 8.5657 12.1738 9.15199C12.6042 9.73886 12.84 10.5012 12.84 11.299C12.84 12.0968 12.6042 12.8591 12.1738 13.446C11.7439 14.0323 11.0673 14.499 10.2266 14.499C9.38602 14.499 8.70937 14.0323 8.27943 13.446C7.84905 12.8591 7.6133 12.0968 7.6133 11.299C7.6133 10.5012 7.84905 9.73886 8.27943 9.15199ZM9.89224 10.3347C9.73871 10.5441 9.6133 10.8817 9.6133 11.299C9.6133 11.7162 9.73871 12.0539 9.89224 12.2633C10.0462 12.4732 10.1762 12.499 10.2266 12.499C10.277 12.499 10.4071 12.4732 10.561 12.2633C10.7146 12.0539 10.84 11.7162 10.84 11.299C10.84 10.8817 10.7146 10.5441 10.561 10.3347C10.4071 10.1248 10.277 10.099 10.2266 10.099C10.1762 10.099 10.0462 10.1248 9.89224 10.3347Z" fill="#375BD2"/>
<path fill-rule="evenodd" clip-rule="evenodd" d="M19.0266 8.09899C18.186 8.09899 17.5094 8.5657 17.0794 9.15199C16.6491 9.73886 16.4133 10.5012 16.4133 11.299C16.4133 12.0968 16.6491 12.8591 17.0794 13.446C17.5094 14.0323 18.186 14.499 19.0266 14.499C19.8673 14.499 20.5439 14.0323 20.9738 13.446C21.4042 12.8591 21.64 12.0968 21.64 11.299C21.64 10.5012 21.4042 9.73886 20.9738 9.15199C20.5439 8.5657 19.8673 8.09899 19.0266 8.09899ZM18.4133 11.299C18.4133 10.8817 18.5387 10.5441 18.6922 10.3347C18.8462 10.1248 18.9762 10.099 19.0266 10.099C19.077 10.099 19.2071 10.1248 19.361 10.3347C19.5146 10.5441 19.64 10.8817 19.64 11.299C19.64 11.7162 19.5146 12.0539 19.361 12.2633C19.2071 12.4732 19.077 12.499 19.0266 12.499C18.9762 12.499 18.8462 12.4732 18.6922 12.2633C18.5387 12.0539 18.4133 11.7162 18.4133 11.299Z" fill="#375BD2"/>
<path fill-rule="evenodd" clip-rule="evenodd" d="M10.3504 0.816969C10.8744 0.642321 11.4407 0.925481 11.6153 1.44942L12.1714 3.11769C12.8326 3.02247 13.5552 2.96565 14.3333 2.96565C15.1114 2.96565 15.834 3.02247 16.4952 3.11769L17.0513 1.44942C17.2259 0.925481 17.7923 0.642321 18.3162 0.816969C18.8357 0.990127 19.315 1.1211 19.7831 1.24668L19.8893 1.27517C20.3141 1.38893 20.7451 1.50438 21.1579 1.64197C22.087 1.95167 22.9691 2.38724 23.8404 3.25855C24.4303 3.84843 24.9965 4.80557 25.5064 5.87691C26.029 6.97501 26.5366 8.28909 26.9811 9.67208C27.8635 12.4181 28.5333 15.5503 28.5333 17.899C28.5333 18.2137 28.3851 18.5101 28.1333 18.699C26.6498 19.8116 25.4937 20.5868 24.3139 21.1767C23.1257 21.7708 21.9499 22.1589 20.4425 22.5358C20.0325 22.6383 19.6023 22.472 19.3679 22.1204L17.9179 19.9454C16.7756 20.2027 15.5631 20.3657 14.3333 20.3657C13.1035 20.3657 11.891 20.2027 10.7487 19.9454L9.29869 22.1204C9.06426 22.472 8.6341 22.6383 8.2241 22.5358C6.71669 22.1589 5.54086 21.7708 4.35275 21.1767C3.17288 20.5868 2.01679 19.8116 0.533301 18.699C0.281495 18.5101 0.133301 18.2137 0.133301 17.899C0.133301 15.5503 0.803135 12.4181 1.68555 9.67208C2.12997 8.28909 2.63757 6.97501 3.16018 5.87691C3.67006 4.80557 4.23631 3.84843 4.82619 3.25855C5.6975 2.38724 6.57964 1.95167 7.50874 1.64197C7.9215 1.50438 8.35253 1.38893 8.77727 1.27517L8.88355 1.24668C9.35163 1.1211 9.83093 0.990127 10.3504 0.816969ZM19.9423 19.3764L20.6367 20.418C21.7234 20.1199 22.5757 19.8098 23.4194 19.3879C24.3406 18.9273 25.2812 18.3188 26.5225 17.4044C26.4379 15.3962 25.8642 12.7338 25.077 10.284C24.6533 8.96552 24.1768 7.73721 23.7005 6.73639C23.2115 5.7088 22.7639 5.01048 22.4262 4.67276C21.8308 4.0774 21.2463 3.77964 20.5254 3.53934C20.1723 3.42162 19.7978 3.32124 19.3577 3.20329L19.2648 3.17837C19.0666 3.1252 18.8583 3.06893 18.6402 3.0072L18.4591 3.55054C19.5713 3.88908 20.3708 4.31047 20.8 4.63232C21.2418 4.96369 21.3313 5.59049 21 6.03232C20.6686 6.47415 20.0418 6.56369 19.6 6.23232C19.1467 5.8924 17.2801 4.96565 14.3333 4.96565C11.3865 4.96565 9.51986 5.8924 9.06663 6.23232C8.6248 6.56369 7.998 6.47415 7.66663 6.03232C7.33526 5.59049 7.4248 4.96369 7.86663 4.63232C8.29577 4.31046 9.09528 3.88907 10.2075 3.55054L10.0264 3.0072C9.80833 3.06893 9.59999 3.1252 9.4018 3.17837L9.30895 3.20327C8.86889 3.32122 8.49437 3.42161 8.1412 3.53934C7.42029 3.77964 6.83577 4.0774 6.24041 4.67276C5.90269 5.01048 5.45514 5.7088 4.96609 6.73639C4.48978 7.73721 4.01333 8.96552 3.58965 10.284C2.80239 12.7338 2.22872 15.3962 2.14411 17.4044C3.38544 18.3188 4.32601 18.9273 5.24718 19.3879C6.09095 19.8098 6.94325 20.1199 8.02991 20.418L8.72432 19.3764C6.71804 18.7022 5.0972 17.8323 4.24527 17.2644C3.78574 16.958 3.66157 16.3371 3.96792 15.8776C4.27427 15.4181 4.89514 15.2939 5.35467 15.6003C6.72468 16.5136 10.4921 18.3657 14.3333 18.3657C18.1745 18.3657 21.9419 16.5136 23.3119 15.6003C23.7715 15.2939 24.3923 15.4181 24.6987 15.8776C25.005 16.3371 24.8809 16.958 24.4213 17.2644C23.5694 17.8323 21.9486 18.7022 19.9423 19.3764Z" fill="#375BD2"/>
</svg>
