<svg width="24" height="24" viewBox="0 0 24 24" fill="none" xmlns="http://www.w3.org/2000/svg">
<path d="M12 24C18.6274 24 24 18.6274 24 12C24 5.37258 18.6274 0 12 0C5.37258 0 0 5.37258 0 12C0 18.6274 5.37258 24 12 24Z" fill="#627EEA"/>
<path d="M12.3735 3V9.65246L17.9961 12.1649L12.3735 3Z" fill="white" fill-opacity="0.602"/>
<path d="M12.3736 3L6.75 12.1649L12.3736 9.65246V3Z" fill="white"/>
<path d="M12.3735 16.4761V20.9964L17.9999 13.212L12.3735 16.4761Z" fill="white" fill-opacity="0.602"/>
<path d="M12.3736 20.9964V16.4753L6.75 13.212L12.3736 20.9964Z" fill="white"/>
<path d="M12.3735 15.4297L17.9961 12.165L12.3735 9.65399V15.4297Z" fill="white" fill-opacity="0.2"/>
<path d="M6.75 12.165L12.3736 15.4297V9.65399L6.75 12.165Z" fill="white" fill-opacity="0.602"/>
</svg>
