<svg width="72" height="69" viewBox="0 0 72 69" fill="none" xmlns="http://www.w3.org/2000/svg">
<g clip-path="url(#clip0_315_90)">
<path d="M25.6082 0.430633C25.1196 0.14852 24.5653 0 24.0011 0C23.4368 0 22.8826 0.14852 22.3939 0.430633L1.60714 12.4328C1.11752 12.7135 0.711469 13.1196 0.430714 13.6092C0.148573 14.0978 2.48261e-05 14.6521 0 15.2163L0 39.2142C1.43332e-05 39.7784 0.148541 40.3327 0.430653 40.8213C0.712765 41.3099 1.11852 41.7157 1.60714 41.9978L24.0011 54.9256V30.7928L20.8929 29.0056V25.4281L23.9914 23.6378L27.09 25.4281L47.9829 13.3585L25.6082 0.430633Z" fill="url(#paint0_linear_315_90)"/>
<path d="M70.3929 26.2864L47.9989 13.3585V37.4946L51.0975 39.285V42.8592L47.9989 44.6496L44.9036 42.8592L34.4539 48.8957L24.0011 54.9289L46.3918 67.8567C46.8804 68.1389 47.4347 68.2874 47.9989 68.2874C48.5632 68.2874 49.1174 68.1389 49.6061 67.8567L70.3929 55.8578C70.882 55.5754 71.288 55.1692 71.5702 54.6799C71.8523 54.1907 72.0006 53.6358 72 53.071V29.07C72 28.5057 71.8515 27.9515 71.5693 27.4629C71.2872 26.9742 70.8815 26.5685 70.3929 26.2864Z" fill="url(#paint1_linear_315_90)"/>
<path d="M44.9004 42.8592L32.9014 35.9324V32.355L36 30.5678L47.9989 37.4946V13.3585L27.0996 25.4282L24.0011 23.6378L20.9025 25.4282V29.0025L24.0011 30.7928V54.9289L44.9004 42.8592Z" fill="#23337B"/>
</g>
<defs>
<linearGradient id="paint0_linear_315_90" x1="28.3725" y1="1.32099" x2="11.4075" y2="50.5928" gradientUnits="userSpaceOnUse">
<stop stop-color="#8B9CDF"/>
<stop offset="1" stop-color="#375BD2"/>
</linearGradient>
<linearGradient id="paint1_linear_315_90" x1="3727.6" y1="6782.24" x2="10866.8" y2="7109.19" gradientUnits="userSpaceOnUse">
<stop stop-color="#8B9CDF"/>
<stop offset="1" stop-color="#375BD2"/>
</linearGradient>
<clipPath id="clip0_315_90">
<rect width="72" height="68.2875" fill="white"/>
</clipPath>
</defs>
</svg>
