<svg width="49" height="48" viewBox="0 0 49 48" fill="none" xmlns="http://www.w3.org/2000/svg">
<circle cx="24.5" cy="24" r="23.5" fill="white" stroke="#DFE7FB"/>
<g clip-path="url(#clip0_410_10575)">
<g filter="url(#filter0_i_410_10575)">
<path d="M28.4887 13.9246C27.3409 14.1182 26.2134 14.4174 25.1207 14.8183C24.7198 14.9618 24.2816 14.9618 23.8807 14.8183C20.3716 13.443 16.4875 13.362 12.9241 14.5897C12.5519 14.7078 12.2271 14.9414 11.9967 15.2567C11.7663 15.5719 11.6424 15.9524 11.643 16.3429V32.728C11.6419 33.0086 11.7051 33.2858 11.8278 33.5382C11.9505 33.7906 12.1294 34.0115 12.3507 34.184C12.5721 34.3564 12.83 34.4759 13.1048 34.5332C13.3795 34.5904 13.6637 34.584 13.9355 34.5143C17.2169 33.5955 20.7088 33.7753 23.8784 35.0263C24.2791 35.1707 24.7177 35.1707 25.1184 35.0263C28.288 33.775 31.7799 33.5952 35.0612 34.5143C35.3327 34.5836 35.6164 34.59 35.8907 34.5329C36.165 34.4758 36.4226 34.3567 36.6438 34.1848C36.865 34.0129 37.044 33.7926 37.1671 33.5409C37.2901 33.2892 37.354 33.0127 37.3538 32.7326V16.3429C37.3536 15.9536 37.2298 15.5745 37.0001 15.2602C36.7705 14.9459 36.4469 14.7127 36.0761 14.5943C35.1921 14.3102 34.2888 14.0902 33.3732 13.936" fill="white"/>
</g>
<path d="M28.4887 13.9246C27.3409 14.1182 26.2134 14.4174 25.1207 14.8183C24.7198 14.9618 24.2816 14.9618 23.8807 14.8183C20.3716 13.443 16.4875 13.362 12.9241 14.5897C12.5519 14.7078 12.2271 14.9414 11.9967 15.2567C11.7663 15.5719 11.6424 15.9524 11.643 16.3429V32.728C11.6419 33.0086 11.7051 33.2858 11.8278 33.5382C11.9505 33.7906 12.1294 34.0115 12.3507 34.184C12.5721 34.3564 12.83 34.4759 13.1048 34.5332C13.3795 34.5904 13.6637 34.584 13.9355 34.5143C17.2169 33.5955 20.7088 33.7753 23.8784 35.0263C24.2791 35.1707 24.7177 35.1707 25.1184 35.0263C28.288 33.775 31.7799 33.5952 35.0612 34.5143C35.3327 34.5836 35.6164 34.59 35.8907 34.5329C36.165 34.4758 36.4226 34.3567 36.6438 34.1848C36.865 34.0129 37.044 33.7926 37.1671 33.5409C37.2901 33.2892 37.354 33.0127 37.3538 32.7326V16.3429C37.3536 15.9536 37.2298 15.5745 37.0001 15.2602C36.7705 14.9459 36.4469 14.7127 36.0761 14.5943C35.1921 14.3102 34.2888 14.0902 33.3732 13.936" stroke="#375BD2" stroke-width="1.5" stroke-linecap="round" stroke-linejoin="round"/>
<path d="M24.5 14.9223V35.1303" stroke="#375BD2" stroke-width="1.5" stroke-linecap="round" stroke-linejoin="round"/>
<g filter="url(#filter1_i_410_10575)">
<path d="M33.5 23.1554L30.9286 20.584L28.3572 23.1554V14.584C28.3572 14.1293 28.5378 13.6933 28.8593 13.3718C29.1808 13.0503 29.6168 12.8697 30.0715 12.8697H31.7857C32.2404 12.8697 32.6764 13.0503 32.9979 13.3718C33.3194 13.6933 33.5 14.1293 33.5 14.584V23.1554Z" fill="white"/>
</g>
<path d="M33.5 23.1554L30.9286 20.584L28.3572 23.1554V14.584C28.3572 14.1293 28.5378 13.6933 28.8593 13.3718C29.1808 13.0503 29.6168 12.8697 30.0715 12.8697H31.7857C32.2404 12.8697 32.6764 13.0503 32.9979 13.3718C33.3194 13.6933 33.5 14.1293 33.5 14.584V23.1554Z" stroke="#375BD2" stroke-width="1.5" stroke-linecap="round" stroke-linejoin="round"/>
</g>
<defs>
<filter id="filter0_i_410_10575" x="10.8929" y="12.9744" width="27.2108" height="22.9102" filterUnits="userSpaceOnUse" color-interpolation-filters="sRGB">
<feFlood flood-opacity="0" result="BackgroundImageFix"/>
<feBlend mode="normal" in="SourceGraphic" in2="BackgroundImageFix" result="shape"/>
<feColorMatrix in="SourceAlpha" type="matrix" values="0 0 0 0 0 0 0 0 0 0 0 0 0 0 0 0 0 0 127 0" result="hardAlpha"/>
<feOffset dx="-3" dy="1"/>
<feComposite in2="hardAlpha" operator="arithmetic" k2="-1" k3="1"/>
<feColorMatrix type="matrix" values="0 0 0 0 0.87451 0 0 0 0 0.905882 0 0 0 0 0.984314 0 0 0 1 0"/>
<feBlend mode="normal" in2="shape" result="effect1_innerShadow_410_10575"/>
</filter>
<filter id="filter1_i_410_10575" x="27.6072" y="12.1197" width="6.64282" height="11.7857" filterUnits="userSpaceOnUse" color-interpolation-filters="sRGB">
<feFlood flood-opacity="0" result="BackgroundImageFix"/>
<feBlend mode="normal" in="SourceGraphic" in2="BackgroundImageFix" result="shape"/>
<feColorMatrix in="SourceAlpha" type="matrix" values="0 0 0 0 0 0 0 0 0 0 0 0 0 0 0 0 0 0 127 0" result="hardAlpha"/>
<feOffset dx="-3" dy="1"/>
<feComposite in2="hardAlpha" operator="arithmetic" k2="-1" k3="1"/>
<feColorMatrix type="matrix" values="0 0 0 0 0.87451 0 0 0 0 0.905882 0 0 0 0 0.984314 0 0 0 1 0"/>
<feBlend mode="normal" in2="shape" result="effect1_innerShadow_410_10575"/>
</filter>
<clipPath id="clip0_410_10575">
<rect width="27.4286" height="27.4286" fill="white" transform="translate(10.7858 10.2857)"/>
</clipPath>
</defs>
</svg>
