<svg fill="none" height="70" viewBox="0 0 70 70" width="70" xmlns="http://www.w3.org/2000/svg" xmlns:xlink="http://www.w3.org/1999/xlink"><clipPath id="a"><path d="m20 23h30.19v23.54h-30.19z"/></clipPath><circle cx="35" cy="35" fill="#101010" r="35"/><g clip-path="url(#a)" fill="#fff8f3"><path d="m35.09 46.54c-.54 0-.97-.44-.97-.97 0-1.56-1.27-2.83-2.83-2.83h-10.32c-.54 0-.97-.44-.97-.97v-17.8c0-.53.44-.97.97-.97h10.32c1.41 0 2.74.62 3.65 1.7l.15.18.15-.18c.91-1.08 2.24-1.7 3.65-1.7h10.32c.54 0 .97.44.97.97v17.79c0 .54-.44.97-.97.97h-10.32c-1.56 0-2.83 1.27-2.83 2.83 0 .54-.44.97-.97.97zm-13.14-5.75h9.35c.89 0 1.77.25 2.52.72l.31.19v-13.92c0-1.56-1.27-2.83-2.83-2.83h-9.35v15.85zm16.95-15.84c-1.56 0-2.83 1.27-2.83 2.83v13.93l.31-.19c.75-.47 1.63-.72 2.52-.72h9.34v-15.85z"/><path d="m26.1099 31.4c-.54 0-.97-.44-.97-.97s.44-.97.97-.97h3.31c.54 0 .97.44.97.97s-.44.97-.97.97z"/><path d="m26.1099 36.52c-.54 0-.97-.44-.97-.97s.44-.97.97-.97h3.31c.54 0 .97.44.97.97s-.44.97-.97.97z"/><path d="m40.7701 31.4c-.54 0-.9701-.44-.9701-.97s.4401-.97.9701-.97h3.3099c.54 0 .97.44.97.97s-.44.97-.97.97z"/><path d="m40.7701 36.52c-.54 0-.9701-.44-.9701-.97s.4401-.97.9701-.97h3.3099c.54 0 .97.44.97.97s-.44.97-.97.97z"/></g></svg>