<svg width="80" height="80" viewBox="0 0 80 80" fill="none" xmlns="http://www.w3.org/2000/svg">
<circle cx="40" cy="40" r="39.5" fill="#F5F7FD" stroke="#DFE7FB"/>
<g clip-path="url(#clip0_6_8431)">
<g filter="url(#filter0_i_6_8431)">
<path d="M42.8572 44.2818C46.802 44.2818 50 41.0838 50 37.139C50 33.1941 46.802 29.9961 42.8572 29.9961C38.9123 29.9961 35.7143 33.1941 35.7143 37.139C35.7143 41.0838 38.9123 44.2818 42.8572 44.2818Z" fill="white"/>
</g>
<path d="M42.8572 44.2818C46.802 44.2818 50 41.0838 50 37.139C50 33.1941 46.802 29.9961 42.8572 29.9961C38.9123 29.9961 35.7143 33.1941 35.7143 37.139C35.7143 41.0838 38.9123 44.2818 42.8572 44.2818Z" stroke="#375BD2" stroke-width="1.5" stroke-linecap="round" stroke-linejoin="round"/>
<g filter="url(#filter1_i_6_8431)">
<path d="M57.1429 27.1391C59.5098 27.1391 61.4286 25.2203 61.4286 22.8533C61.4286 20.4864 59.5098 18.5676 57.1429 18.5676C54.776 18.5676 52.8572 20.4864 52.8572 22.8533C52.8572 25.2203 54.776 27.1391 57.1429 27.1391Z" fill="white"/>
</g>
<path d="M57.1429 27.1391C59.5098 27.1391 61.4286 25.2203 61.4286 22.8533C61.4286 20.4864 59.5098 18.5676 57.1429 18.5676C54.776 18.5676 52.8572 20.4864 52.8572 22.8533C52.8572 25.2203 54.776 27.1391 57.1429 27.1391Z" stroke="#375BD2" stroke-width="1.5" stroke-linecap="round" stroke-linejoin="round"/>
<g filter="url(#filter2_i_6_8431)">
<path d="M57.1429 51.4247C59.5098 51.4247 61.4286 49.5059 61.4286 47.139C61.4286 44.7721 59.5098 42.8533 57.1429 42.8533C54.776 42.8533 52.8572 44.7721 52.8572 47.139C52.8572 49.5059 54.776 51.4247 57.1429 51.4247Z" fill="white"/>
</g>
<path d="M57.1429 51.4247C59.5098 51.4247 61.4286 49.5059 61.4286 47.139C61.4286 44.7721 59.5098 42.8533 57.1429 42.8533C54.776 42.8533 52.8572 44.7721 52.8572 47.139C52.8572 49.5059 54.776 51.4247 57.1429 51.4247Z" stroke="#375BD2" stroke-width="1.5" stroke-linecap="round" stroke-linejoin="round"/>
<g filter="url(#filter3_i_6_8431)">
<path d="M42.8572 61.4247C45.2241 61.4247 47.1429 59.5059 47.1429 57.139C47.1429 54.7721 45.2241 52.8533 42.8572 52.8533C40.4903 52.8533 38.5715 54.7721 38.5715 57.139C38.5715 59.5059 40.4903 61.4247 42.8572 61.4247Z" fill="white"/>
</g>
<path d="M42.8572 61.4247C45.2241 61.4247 47.1429 59.5059 47.1429 57.139C47.1429 54.7721 45.2241 52.8533 42.8572 52.8533C40.4903 52.8533 38.5715 54.7721 38.5715 57.139C38.5715 59.5059 40.4903 61.4247 42.8572 61.4247Z" stroke="#375BD2" stroke-width="1.5" stroke-linecap="round" stroke-linejoin="round"/>
<g filter="url(#filter4_i_6_8431)">
<path d="M22.8572 61.4247C25.2241 61.4247 27.1429 59.5059 27.1429 57.139C27.1429 54.7721 25.2241 52.8533 22.8572 52.8533C20.4903 52.8533 18.5715 54.7721 18.5715 57.139C18.5715 59.5059 20.4903 61.4247 22.8572 61.4247Z" fill="white"/>
</g>
<path d="M22.8572 61.4247C25.2241 61.4247 27.1429 59.5059 27.1429 57.139C27.1429 54.7721 25.2241 52.8533 22.8572 52.8533C20.4903 52.8533 18.5715 54.7721 18.5715 57.139C18.5715 59.5059 20.4903 61.4247 22.8572 61.4247Z" stroke="#375BD2" stroke-width="1.5" stroke-linecap="round" stroke-linejoin="round"/>
<g filter="url(#filter5_i_6_8431)">
<path d="M24.2857 31.4247C26.6526 31.4247 28.5714 29.5059 28.5714 27.139C28.5714 24.7721 26.6526 22.8533 24.2857 22.8533C21.9188 22.8533 20 24.7721 20 27.139C20 29.5059 21.9188 31.4247 24.2857 31.4247Z" fill="white"/>
</g>
<path d="M24.2857 31.4247C26.6526 31.4247 28.5714 29.5059 28.5714 27.139C28.5714 24.7721 26.6526 22.8533 24.2857 22.8533C21.9188 22.8533 20 24.7721 20 27.139C20 29.5059 21.9188 31.4247 24.2857 31.4247Z" stroke="#375BD2" stroke-width="1.5" stroke-linecap="round" stroke-linejoin="round"/>
<path d="M47.9067 32.0914L54.1162 25.8818" stroke="#375BD2" stroke-width="1.5" stroke-linecap="round" stroke-linejoin="round"/>
<path d="M49.1315 40.5562L53.4838 44.9085" stroke="#375BD2" stroke-width="1.5" stroke-linecap="round" stroke-linejoin="round"/>
<path d="M42.8572 44.2819V52.8533" stroke="#375BD2" stroke-width="1.5" stroke-linecap="round" stroke-linejoin="round"/>
<path d="M37.8115 42.1847L25.8857 54.1104" stroke="#375BD2" stroke-width="1.5" stroke-linecap="round" stroke-linejoin="round"/>
<path d="M36.1924 34.5695L27.8286 29.5504" stroke="#375BD2" stroke-width="1.5" stroke-linecap="round" stroke-linejoin="round"/>
</g>
<defs>
<filter id="filter0_i_6_8431" x="34.9643" y="29.2461" width="15.7857" height="15.7858" filterUnits="userSpaceOnUse" color-interpolation-filters="sRGB">
<feFlood flood-opacity="0" result="BackgroundImageFix"/>
<feBlend mode="normal" in="SourceGraphic" in2="BackgroundImageFix" result="shape"/>
<feColorMatrix in="SourceAlpha" type="matrix" values="0 0 0 0 0 0 0 0 0 0 0 0 0 0 0 0 0 0 127 0" result="hardAlpha"/>
<feOffset dx="-3" dy="1"/>
<feComposite in2="hardAlpha" operator="arithmetic" k2="-1" k3="1"/>
<feColorMatrix type="matrix" values="0 0 0 0 0.87451 0 0 0 0 0.905882 0 0 0 0 0.984314 0 0 0 1 0"/>
<feBlend mode="normal" in2="shape" result="effect1_innerShadow_6_8431"/>
</filter>
<filter id="filter1_i_6_8431" x="52.1072" y="17.8176" width="10.0714" height="10.0714" filterUnits="userSpaceOnUse" color-interpolation-filters="sRGB">
<feFlood flood-opacity="0" result="BackgroundImageFix"/>
<feBlend mode="normal" in="SourceGraphic" in2="BackgroundImageFix" result="shape"/>
<feColorMatrix in="SourceAlpha" type="matrix" values="0 0 0 0 0 0 0 0 0 0 0 0 0 0 0 0 0 0 127 0" result="hardAlpha"/>
<feOffset dx="-3" dy="1"/>
<feComposite in2="hardAlpha" operator="arithmetic" k2="-1" k3="1"/>
<feColorMatrix type="matrix" values="0 0 0 0 0.87451 0 0 0 0 0.905882 0 0 0 0 0.984314 0 0 0 1 0"/>
<feBlend mode="normal" in2="shape" result="effect1_innerShadow_6_8431"/>
</filter>
<filter id="filter2_i_6_8431" x="52.1072" y="42.1033" width="10.0714" height="10.0714" filterUnits="userSpaceOnUse" color-interpolation-filters="sRGB">
<feFlood flood-opacity="0" result="BackgroundImageFix"/>
<feBlend mode="normal" in="SourceGraphic" in2="BackgroundImageFix" result="shape"/>
<feColorMatrix in="SourceAlpha" type="matrix" values="0 0 0 0 0 0 0 0 0 0 0 0 0 0 0 0 0 0 127 0" result="hardAlpha"/>
<feOffset dx="-3" dy="1"/>
<feComposite in2="hardAlpha" operator="arithmetic" k2="-1" k3="1"/>
<feColorMatrix type="matrix" values="0 0 0 0 0.87451 0 0 0 0 0.905882 0 0 0 0 0.984314 0 0 0 1 0"/>
<feBlend mode="normal" in2="shape" result="effect1_innerShadow_6_8431"/>
</filter>
<filter id="filter3_i_6_8431" x="37.8215" y="52.1033" width="10.0714" height="10.0714" filterUnits="userSpaceOnUse" color-interpolation-filters="sRGB">
<feFlood flood-opacity="0" result="BackgroundImageFix"/>
<feBlend mode="normal" in="SourceGraphic" in2="BackgroundImageFix" result="shape"/>
<feColorMatrix in="SourceAlpha" type="matrix" values="0 0 0 0 0 0 0 0 0 0 0 0 0 0 0 0 0 0 127 0" result="hardAlpha"/>
<feOffset dx="-3" dy="1"/>
<feComposite in2="hardAlpha" operator="arithmetic" k2="-1" k3="1"/>
<feColorMatrix type="matrix" values="0 0 0 0 0.87451 0 0 0 0 0.905882 0 0 0 0 0.984314 0 0 0 1 0"/>
<feBlend mode="normal" in2="shape" result="effect1_innerShadow_6_8431"/>
</filter>
<filter id="filter4_i_6_8431" x="17.8215" y="52.1033" width="10.0714" height="10.0714" filterUnits="userSpaceOnUse" color-interpolation-filters="sRGB">
<feFlood flood-opacity="0" result="BackgroundImageFix"/>
<feBlend mode="normal" in="SourceGraphic" in2="BackgroundImageFix" result="shape"/>
<feColorMatrix in="SourceAlpha" type="matrix" values="0 0 0 0 0 0 0 0 0 0 0 0 0 0 0 0 0 0 127 0" result="hardAlpha"/>
<feOffset dx="-3" dy="1"/>
<feComposite in2="hardAlpha" operator="arithmetic" k2="-1" k3="1"/>
<feColorMatrix type="matrix" values="0 0 0 0 0.87451 0 0 0 0 0.905882 0 0 0 0 0.984314 0 0 0 1 0"/>
<feBlend mode="normal" in2="shape" result="effect1_innerShadow_6_8431"/>
</filter>
<filter id="filter5_i_6_8431" x="19.25" y="22.1033" width="10.0714" height="10.0714" filterUnits="userSpaceOnUse" color-interpolation-filters="sRGB">
<feFlood flood-opacity="0" result="BackgroundImageFix"/>
<feBlend mode="normal" in="SourceGraphic" in2="BackgroundImageFix" result="shape"/>
<feColorMatrix in="SourceAlpha" type="matrix" values="0 0 0 0 0 0 0 0 0 0 0 0 0 0 0 0 0 0 127 0" result="hardAlpha"/>
<feOffset dx="-3" dy="1"/>
<feComposite in2="hardAlpha" operator="arithmetic" k2="-1" k3="1"/>
<feColorMatrix type="matrix" values="0 0 0 0 0.87451 0 0 0 0 0.905882 0 0 0 0 0.984314 0 0 0 1 0"/>
<feBlend mode="normal" in2="shape" result="effect1_innerShadow_6_8431"/>
</filter>
<clipPath id="clip0_6_8431">
<rect width="45.7143" height="45.7143" fill="white" transform="translate(17.1429 17.1428)"/>
</clipPath>
</defs>
</svg>
