<svg width="28" height="32" viewBox="0 0 28 32" fill="none" xmlns="http://www.w3.org/2000/svg">
<path fill-rule="evenodd" clip-rule="evenodd" d="M21.7185 0.550786C21.4416 0.0729348 20.8298 -0.0899643 20.3519 0.186941C19.8741 0.463846 19.7112 1.0757 19.9881 1.55355L25.3348 10.7802C25.6117 11.2581 26.2235 11.421 26.7014 11.1441C27.1792 10.8672 27.3421 10.2553 27.0652 9.77745L21.7185 0.550786ZM15.3833 3.64292C15.7933 3.27293 16.4256 3.30538 16.7956 3.71541L23.9423 11.6354C24.3123 12.0454 24.2798 12.6778 23.8698 13.0478C23.4598 13.4178 22.8274 13.3853 22.4574 12.9753L15.3108 5.05527C14.9408 4.64525 14.9732 4.01291 15.3833 3.64292ZM12.6262 7.8289C12.1788 7.50509 11.5536 7.60528 11.2298 8.05268C10.906 8.50007 11.0062 9.12526 11.4536 9.44907L20.0936 15.7024C20.541 16.0262 21.1662 15.926 21.49 15.4786C21.8138 15.0312 21.7136 14.406 21.2662 14.0822L12.6262 7.8289ZM8.09901 13.2336C8.3228 12.7287 8.91353 12.5008 9.41844 12.7246L19.1651 17.0446C19.67 17.2684 19.8979 17.8591 19.6741 18.3641C19.4503 18.869 18.8596 19.0969 18.3547 18.8731L8.60802 14.5531C8.10311 14.3293 7.87522 13.7385 8.09901 13.2336ZM21.7999 17.9456C22.3522 17.9456 22.7999 18.3933 22.7999 18.9456V27.6656C22.7999 28.638 22.4136 29.5707 21.726 30.2583C21.0384 30.9459 20.1057 31.3322 19.1333 31.3322H4.46659C3.49413 31.3322 2.5615 30.9459 1.87387 30.2583C1.18624 29.5707 0.799927 28.638 0.799927 27.6656V18.9989C0.799927 18.4466 1.24764 17.9989 1.79993 17.9989C2.35221 17.9989 2.79993 18.4466 2.79993 18.9989V27.6656C2.79993 28.1076 2.97552 28.5315 3.28808 28.8441C3.60064 29.1566 4.02457 29.3322 4.46659 29.3322H19.1333C19.5753 29.3322 19.9992 29.1566 20.3118 28.8441C20.6243 28.5315 20.7999 28.1076 20.7999 27.6656V18.9456C20.7999 18.3933 21.2476 17.9456 21.7999 17.9456ZM5.33329 24.9456C5.33329 24.3933 5.78101 23.9456 6.33329 23.9456H17C17.5522 23.9456 18 24.3933 18 24.9456C18 25.4978 17.5522 25.9456 17 25.9456H6.33329C5.78101 25.9456 5.33329 25.4978 5.33329 24.9456ZM7.28757 18.1674C6.74732 18.0527 6.2164 18.3977 6.10171 18.938C5.98703 19.4782 6.33202 20.0092 6.87227 20.1238L17.2989 22.3372C17.8392 22.4519 18.3701 22.1069 18.4848 21.5666C18.5995 21.0264 18.2545 20.4954 17.7142 20.3808L7.28757 18.1674Z" fill="#375BD2"/>
</svg>
