<svg width="72" height="72" viewBox="0 0 72 72" fill="none" xmlns="http://www.w3.org/2000/svg">
<path d="M24.0012 47.9988V28.332C23.1468 28.332 22.3116 28.0786 21.6011 27.6039C20.8907 27.1293 20.337 26.4546 20.01 25.6652C19.6831 24.8758 19.5975 24.0072 19.7642 23.1692C19.9309 22.3312 20.3423 21.5615 20.9465 20.9573C21.5507 20.3531 22.3204 19.9417 23.1584 19.775C23.9964 19.6083 24.865 19.6939 25.6544 20.0208C26.4438 20.3478 27.1185 20.9015 27.5931 21.6119C28.0678 22.3224 28.3212 23.1576 28.3212 24.012H47.988V3.6C47.988 2.64522 47.6087 1.72955 46.9336 1.05442C46.2584 0.379285 45.3428 0 44.388 0L3.6 0C2.64522 0 1.72955 0.379285 1.05442 1.05442C0.379285 1.72955 0 2.64522 0 3.6L0 44.3988C0 45.3536 0.379285 46.2692 1.05442 46.9444C1.72955 47.6195 2.64522 47.9988 3.6 47.9988H24.0012Z" fill="url(#paint0_linear_315_67)"/>
<path d="M68.4 24.0012H47.9988V43.668C48.9113 43.6669 49.8018 43.9486 50.5476 44.4744C51.2914 44.9956 51.8429 45.747 52.1172 46.6128C52.3358 47.2787 52.392 47.9871 52.2812 48.6791C52.1703 49.3711 51.8956 50.0266 51.48 50.5908C50.9398 51.3283 50.1795 51.8754 49.3086 52.1534C48.4377 52.4313 47.5011 52.4259 46.6335 52.1377C45.7659 51.8496 45.012 51.2937 44.4805 50.5499C43.9489 49.8062 43.6669 48.913 43.6752 47.9988H24.0012V68.4C24.0012 69.3548 24.3805 70.2705 25.0556 70.9456C25.7308 71.6207 26.6464 72 27.6012 72H68.4C69.3548 72 70.2705 71.6207 70.9456 70.9456C71.6207 70.2705 72 69.3548 72 68.4V27.6012C72 26.6464 71.6207 25.7308 70.9456 25.0556C70.2705 24.3805 69.3548 24.0012 68.4 24.0012Z" fill="url(#paint1_linear_315_67)"/>
<path d="M47.9988 43.668V24.0012H28.332C28.3273 25.1455 27.8706 26.2416 27.0615 27.0507C26.2523 27.8598 25.1563 28.3165 24.012 28.3212V47.988H43.668C43.6727 46.8437 44.1294 45.7477 44.9385 44.9386C45.7477 44.1294 46.8437 43.6728 47.988 43.668H47.9988Z" fill="#23337B"/>
<defs>
<linearGradient id="paint0_linear_315_67" x1="0.2808" y1="1.8828" x2="36.8388" y2="35.9712" gradientUnits="userSpaceOnUse">
<stop stop-color="#8B9CDF"/>
<stop offset="1" stop-color="#375BD2"/>
</linearGradient>
<linearGradient id="paint1_linear_315_67" x1="2965.37" y1="8695.46" x2="10387.4" y2="5234.75" gradientUnits="userSpaceOnUse">
<stop stop-color="#8B9CDF"/>
<stop offset="1" stop-color="#375BD2"/>
</linearGradient>
</defs>
</svg>
