<svg width="98" height="69" viewBox="0 0 98 69" fill="none" xmlns="http://www.w3.org/2000/svg">
<path d="M97.785 61.5304V56.7776C97.785 55.8939 96.2986 55.0494 93.6386 54.2834L93.6973 48.372C93.6973 39.2593 90.8808 30.3626 85.6196 22.88C80.3388 15.3974 72.926 9.72156 64.3203 6.59889L64.1247 5.42052C64.0269 4.79206 63.7531 4.18324 63.3228 3.71189C62.8925 3.22091 62.3448 2.8674 61.7385 2.69064C53.4848 0.274994 44.7226 0.274994 36.4688 2.69064C35.843 2.8674 35.2953 3.22091 34.865 3.71189C34.4347 4.20288 34.1609 4.79206 34.0631 5.42052L33.8871 6.52033C25.2422 9.60372 17.7513 15.2795 12.4509 22.7818C7.17005 30.2448 4.3145 39.2003 4.3145 48.3523V54.3031C1.69365 55.069 0.226752 55.9135 0.226752 56.7776V61.5304C0.187635 61.8053 0.226752 62.0999 0.402779 62.3356C1.7132 61.3733 3.19966 60.6859 4.80346 60.352C8.85209 59.37 12.979 58.6827 17.1254 58.2899C19.4724 58.0346 21.839 58.7809 23.5993 60.3717C26.8264 63.2979 31.012 64.9084 35.354 64.9084H62.6578C66.9998 64.9084 71.1853 63.2979 74.4125 60.3717C76.1728 58.7809 78.5198 58.0149 80.8864 58.2702C85.0328 58.663 89.1597 59.3308 93.2083 60.3127C94.7143 60.6073 96.1421 61.2162 97.3743 62.1196C97.433 62.1785 97.5307 62.257 97.5894 62.316C97.7459 62.0803 97.8046 61.8053 97.785 61.5304Z" fill="#FFF100"/>
<path d="M23.6579 51.5339C23.6188 50.4341 23.5993 49.3343 23.5993 48.2541C23.5993 31.7177 27.4914 16.9096 33.8871 6.53997C25.2422 9.62336 17.7513 15.2992 12.4509 22.8014C7.17005 30.2644 4.3145 39.2003 4.3145 48.372V54.3227C10.671 52.8105 17.1449 51.8874 23.6579 51.5339Z" fill="url(#paint0_linear_3449_4723)"/>
<path d="M93.6973 48.372C93.6973 38.0416 90.0985 28.0255 83.4877 20.0912C86.3432 29.1842 87.771 38.6897 87.7123 48.2148C87.7123 49.8253 87.6732 51.4161 87.595 52.9872C89.6291 53.3015 91.6241 53.7335 93.5995 54.2638L93.6777 48.3523L93.6973 48.372Z" fill="url(#paint1_linear_3449_4723)"/>
<path d="M93.2083 60.3324C89.1597 59.3504 85.0328 58.663 80.8864 58.2702C78.5394 58.0149 76.1728 58.7612 74.4125 60.352C71.1853 63.2783 66.9998 64.8887 62.6578 64.8887H35.354C31.012 64.8887 26.8264 63.2783 23.5993 60.352C21.839 58.7612 19.492 57.9953 17.1254 58.2506C12.979 58.6434 8.85209 59.3308 4.80346 60.2931C3.21922 60.6466 1.7132 61.3143 0.402779 62.2767C2.47599 65.4386 23.4428 68.7577 49.0059 68.7577C74.569 68.7577 95.5162 65.4386 97.5894 62.2963C97.5112 62.2374 97.4329 62.1785 97.3743 62.0999C96.1225 61.2161 94.6947 60.6073 93.1887 60.3127L93.2083 60.3324Z" fill="url(#paint2_radial_3449_4723)"/>
<path d="M49.0059 14.8475L38.542 32.5622L49.0059 39.0236V14.8475Z" fill="#0A0A0A"/>
<path d="M49.0059 14.8475V39.0236L59.4502 32.5819L49.0059 14.8671V14.8475ZM49.0059 42.5194V50.9447C49.2015 50.6698 59.4502 36.058 59.4502 36.058L49.0059 42.5194Z" fill="#4B4D4D"/>
<path d="M49.0059 42.5391L38.542 36.0777L49.0059 50.9644V42.5391Z" fill="#0A0A0A"/>
<defs>
<linearGradient id="paint0_linear_3449_4723" x1="49.0008" y1="68.7577" x2="49.0008" y2="0.878906" gradientUnits="userSpaceOnUse">
<stop stop-color="#EDCF00"/>
<stop offset="0.33" stop-color="#F0D500"/>
<stop offset="0.77" stop-color="#F9E500"/>
<stop offset="1" stop-color="#FFF100"/>
</linearGradient>
<linearGradient id="paint1_linear_3449_4723" x1="49.0008" y1="69.5769" x2="49.0008" y2="0.917915" gradientUnits="userSpaceOnUse">
<stop stop-color="#EDCF00"/>
<stop offset="0.59" stop-color="#F7E100"/>
<stop offset="1" stop-color="#FFF100"/>
</linearGradient>
<radialGradient id="paint2_radial_3449_4723" cx="0" cy="0" r="1" gradientUnits="userSpaceOnUse" gradientTransform="translate(5.42178 204.872) scale(36.4068 232.511)">
<stop stop-color="#FFF100"/>
<stop offset="0.23" stop-color="#F9E500"/>
<stop offset="0.67" stop-color="#F0D500"/>
<stop offset="1" stop-color="#EDCF00"/>
</radialGradient>
</defs>
</svg>
