<svg width="97" height="85" viewBox="0 0 97 85" fill="none" xmlns="http://www.w3.org/2000/svg">
<path d="M86.2829 30.143C86.2829 30.143 86.2514 30.143 86.2198 30.143C86.2198 30.143 86.2198 30.143 86.1883 30.0795C84.0751 21.6626 79.2178 14.1986 72.4049 8.86256C65.5921 3.52656 57.2022 0.63623 48.5916 0.63623C39.9809 0.63623 31.591 3.52656 24.7782 8.86256C17.9653 14.1986 13.108 21.6626 10.9948 30.0795C10.9948 30.0795 10.9948 30.1113 10.9633 30.143C10.9633 30.143 10.9317 30.143 10.9002 30.143C8.34537 30.143 0.333984 30.4607 0.333984 37.3212C0.333984 45.484 1.28021 52.5669 6.01135 56.696C8.0615 58.4746 11.4995 58.8875 14.7797 58.824C16.8299 58.7605 18.88 58.5382 20.8671 58.1888C20.8671 58.1888 20.8671 58.1888 20.8986 58.1888C20.8986 58.1888 20.8986 58.1888 20.8986 58.157C20.8986 58.1253 20.8986 58.157 20.8986 58.1253C20.8986 58.1253 20.8986 58.1253 20.8986 58.0935C17.3345 52.6622 15.4105 46.2781 15.4421 39.7669V39.481C15.4421 30.6512 18.9431 22.139 25.1567 15.9137C31.3702 9.65661 39.7916 6.13104 48.56 6.13104C57.3284 6.13104 65.7813 9.65661 71.9634 15.9137C78.1769 22.1708 81.678 30.6512 81.678 39.481V39.7669C81.678 46.2781 79.7855 52.6622 76.2214 58.0935C76.2214 58.0935 76.2214 58.0935 76.2214 58.1253V58.157C76.2214 58.157 76.2214 58.157 76.2214 58.1888C76.2214 58.1888 76.2214 58.1888 76.2529 58.1888C78.2715 58.5382 80.3217 58.7605 82.3403 58.824C85.6206 58.8875 89.0585 58.4746 91.1087 56.696C95.8398 52.6305 96.786 45.484 96.786 37.3212C96.786 30.4924 88.8062 30.143 86.2198 30.143H86.2829Z" fill="#2F6DF2"/>
<path d="M48.5916 67.3045L23.4219 58.8558C23.4219 58.8558 23.3904 58.8558 23.3588 58.8558C23.3588 58.8558 23.3273 58.8558 23.2958 58.8876C23.2958 58.8876 23.2958 58.9193 23.2958 58.9511C23.2958 58.9828 23.2958 58.9828 23.3273 59.0146L48.5285 84.3924C48.5285 84.3924 48.56 84.3924 48.5916 84.3924C48.6231 84.3924 48.6546 84.3924 48.6546 84.3924L73.8558 59.0146C73.8558 59.0146 73.8558 58.9828 73.8874 58.9511C73.9189 58.9193 73.8874 58.9193 73.8874 58.8876C73.8874 58.8876 73.8874 58.8558 73.8243 58.8558C73.8243 58.8558 73.7927 58.8558 73.7612 58.8558L48.5916 67.3045Z" fill="#2F6DF2"/>
<path d="M70.9856 41.482L76.9784 39.6716C76.9784 39.6716 77.0099 39.6716 77.0414 39.6716C77.0414 39.6716 77.0414 39.6398 77.0414 39.6081C77.0414 37.3847 76.7576 35.1614 76.2214 33.0016C76.2214 33.0016 76.2214 32.9698 76.2214 32.9381C76.2214 32.9381 76.1898 32.9381 76.1583 32.9381L70.0709 32.3981C70.0709 32.3981 70.0394 32.3981 70.0078 32.3981C70.0078 32.3981 70.0078 32.3981 69.9763 32.3664C69.9763 32.3664 69.9763 32.3346 69.9763 32.3028C69.9763 32.3028 69.9763 32.2711 70.0078 32.2393L74.5182 28.2691C74.5182 28.2691 74.5182 28.2373 74.5182 28.2056C74.5182 28.1738 74.5182 28.1738 74.5182 28.142C73.6035 26.0775 72.4365 24.14 71.0802 22.3614C71.0802 22.3614 71.0487 22.3614 71.0171 22.3614C70.9856 22.3614 70.9856 22.3614 70.9541 22.3614L65.3713 24.2671C65.3713 24.2671 65.3398 24.2671 65.3082 24.2671H65.2767C65.2767 24.2671 65.2767 24.2353 65.2767 24.2036C65.2767 24.2036 65.2767 24.1718 65.2767 24.14L67.7053 18.7723C67.7053 18.7723 67.7053 18.7405 67.7053 18.7087C67.7053 18.677 67.7053 18.677 67.7053 18.6452C66.0337 17.1207 64.1728 15.7867 62.1857 14.7068C62.1857 14.7068 62.1541 14.7068 62.1226 14.7068C62.0911 14.7068 62.0911 14.7068 62.0595 14.7068L57.833 18.6452C57.833 18.6452 57.833 18.6452 57.77 18.6452C57.77 18.6452 57.7384 18.6452 57.7069 18.6452C57.7069 18.6452 57.6753 18.6452 57.6753 18.6135C57.6753 18.5817 57.6753 18.5817 57.6753 18.5499L57.77 12.8328C57.77 12.8328 57.77 12.801 57.77 12.7693C57.77 12.7693 57.77 12.7693 57.7069 12.7375C55.5621 12.007 53.3227 11.5306 51.0833 11.34C51.0833 11.34 51.0517 11.34 51.0202 11.34C51.0202 11.34 51.0202 11.34 50.9887 11.4035L48.7493 16.676C48.7493 16.676 48.7493 16.676 48.7177 16.7078C48.7177 16.7078 48.6862 16.7078 48.6546 16.7078C48.6231 16.7078 48.6231 16.7078 48.5916 16.7078C48.5916 16.7078 48.5916 16.7078 48.56 16.676L46.3206 11.4035C46.3206 11.4035 46.3206 11.3718 46.2891 11.3718C46.2891 11.3718 46.2575 11.3718 46.226 11.3718C43.955 11.5623 41.7472 12.0388 39.6024 12.7693C39.6024 12.7693 39.5709 12.7693 39.5709 12.801C39.5709 12.801 39.5709 12.8328 39.5709 12.8646L39.6339 18.6452C39.6339 18.6452 39.6339 18.677 39.6339 18.7087C39.6339 18.7087 39.6339 18.7087 39.6024 18.7405C39.6024 18.7405 39.5709 18.7405 39.5393 18.7405H39.5078L35.2182 14.7385C35.2182 14.7385 35.1867 14.7385 35.1551 14.7385C35.1236 14.7385 35.1236 14.7385 35.0921 14.7385C33.105 15.8184 31.2441 17.1524 29.5724 18.677C29.5724 18.677 29.5724 18.7087 29.5724 18.7405C29.5724 18.7723 29.5724 18.7723 29.5724 18.804L32.0326 24.14C32.0326 24.14 32.0326 24.1718 32.0326 24.2036C32.0326 24.2036 32.0326 24.2353 32.0326 24.2671C32.0326 24.2671 32.0326 24.2671 32.001 24.2671C32.001 24.2671 31.9695 24.2671 31.938 24.2671L26.3552 22.3614C26.3552 22.3614 26.3237 22.3614 26.2921 22.3614C26.2606 22.3614 26.2606 22.3614 26.2291 22.3614C24.8728 24.14 23.7058 26.1093 22.7911 28.142C22.7911 28.142 22.7911 28.1738 22.7911 28.2056C22.7911 28.2373 22.7911 28.2373 22.7911 28.2691L27.333 32.2711C27.333 32.2711 27.333 32.2711 27.333 32.3028C27.333 32.3028 27.333 32.3346 27.333 32.3664V32.3981C27.333 32.3981 27.333 32.3981 27.2699 32.3981L21.2141 32.9698C21.2141 32.9698 21.1825 32.9698 21.151 32.9698C21.151 32.9698 21.151 32.9698 21.1194 33.0016C20.5832 35.1614 20.2994 37.3847 20.2678 39.6081C20.2678 39.6081 20.2678 39.6398 20.2678 39.6716C20.2678 39.6716 20.2678 39.6716 20.3309 39.7034L26.3237 41.5773C26.3237 41.5773 26.3237 41.5773 26.3552 41.6091C26.3552 41.6091 26.3552 41.6408 26.3552 41.6726C26.3552 41.7044 26.3552 41.7044 26.3552 41.7361C26.3552 41.7361 26.3552 41.7361 26.3237 41.7679L20.804 44.8805C20.804 44.8805 20.804 44.9441 20.804 44.9758C21.2141 47.1992 21.8764 49.359 22.7911 51.4235C23.1065 52.0905 23.4219 52.7575 23.7373 53.3927C23.7373 53.3927 23.7689 53.3927 23.8004 53.3927L48.6546 61.7461L73.5719 53.3927C73.5719 53.3927 73.5719 53.3927 73.6035 53.3927C75.0228 50.7565 76.0006 47.8979 76.5368 44.9441C76.5368 44.9441 76.5368 44.9123 76.5368 44.8805C76.5368 44.8805 76.5368 44.8488 76.5052 44.8488L70.9856 41.7361C70.9856 41.7361 70.9856 41.7361 70.9541 41.7044C70.9541 41.7044 70.9541 41.6726 70.9541 41.6408C70.9541 41.6408 70.9541 41.6091 70.9541 41.5773C70.9541 41.5773 70.9856 41.5773 71.0171 41.5773L70.9856 41.482Z" fill="#2F6DF2"/>
</svg>
