<svg width="10" height="6" viewBox="0 0 10 6" fill="none" xmlns="http://www.w3.org/2000/svg">
<path fill-rule="evenodd" clip-rule="evenodd" d="M4.99976 6C4.7681 6 4.55029 5.90774 4.38644 5.74019L0.253451 1.51387C-0.0844836 1.16802 -0.0844836 0.60566 0.253451 0.259811C0.417298 0.0922642 0.635115 0 0.86677 0C1.09843 0 1.31624 0.0922642 1.48009 0.259811L5.00003 3.85925L8.5197 0.259811C8.68355 0.0922642 8.90137 0 9.13302 0C9.36468 0 9.58249 0.0922642 9.74634 0.259811C10.0846 0.60566 10.0846 1.1683 9.74634 1.51387L5.61335 5.74019C5.44951 5.90774 5.23169 6 5.00003 6H4.99976Z" fill="white"/>
</svg>
