<svg width="70" height="70" viewBox="0 0 70 70" fill="none" xmlns="http://www.w3.org/2000/svg">
<circle cx="35" cy="35" r="35" fill="none"/>
<path d="M35.17 49.82C32.4 49.82 30.16 47.65 30.07 44.88V44.8H23.47C22.11 44.8 21 43.69 21 42.33C21 41.61 21.31 40.93 21.86 40.46C21.9 40.43 21.94 40.4 21.98 40.37C23.87 38.72 24.95 36.33 24.95 33.82V30.14C24.95 25.78 27.91 22.03 32.15 21.03C32.24 21.01 32.32 21 32.41 21C32.95 21 33.41 21.36 33.53 21.88C33.6 22.18 33.55 22.49 33.39 22.75C33.23 23.01 32.98 23.19 32.68 23.26C29.48 24.01 27.25 26.85 27.25 30.14V33.82C27.25 37.05 25.84 40.11 23.37 42.21C23.31 42.33 23.32 42.4 23.35 42.45L23.37 42.48L23.46 42.51H46.86C46.95 42.51 47.03 42.43 47.03 42.34C44.51 40.13 43.08 37.05 43.08 33.83V30.15C43.08 26.85 40.85 24.02 37.65 23.27C37.03 23.12 36.65 22.51 36.8 21.89C36.92 21.37 37.38 21.01 37.92 21.01C38.01 21.01 38.1 21.02 38.18 21.04C42.42 22.04 45.38 25.79 45.38 30.16V33.84C45.38 36.35 46.47 38.75 48.37 40.4C48.4 40.42 48.43 40.44 48.48 40.48C49.03 40.95 49.34 41.63 49.34 42.35C49.34 43.71 48.23 44.82 46.88 44.82H40.26V44.9C40.14 47.67 37.91 49.84 35.18 49.84L35.17 49.82ZM32.36 44.89C32.51 46.39 33.72 47.52 35.17 47.52C36.62 47.52 37.88 46.36 37.97 44.89V44.81H32.35V44.9L32.36 44.89Z" fill="currentColor"/>
</svg>
