<svg xmlns="http://www.w3.org/2000/svg" width="12" height="14" viewBox="0 0 12 14" fill="none">
<path d="M11.5211 2.32402L9.65682 0.350334C9.54606 0.238691 9.4141 0.150216 9.26876 0.0900698C9.12342 0.0299237 8.96763 -0.000690466 8.81027 1.18142e-05H3.61011C3.29366 0.000356606 2.99026 0.12622 2.7665 0.349982C2.54274 0.573754 2.41687 0.877142 2.41652 1.1936V2.27909H1.33104C1.01458 2.27943 0.711192 2.40529 0.487429 2.62906C0.263657 2.85283 0.137793 3.15622 0.137451 3.47267V12.8064C0.137793 13.1229 0.263657 13.4263 0.487429 13.65C0.711192 13.8738 1.01458 13.9997 1.33104 14H8.38578C8.70225 13.9997 9.00562 13.8738 9.2294 13.65C9.45317 13.4263 9.57897 13.1229 9.57936 12.8064V11.721H10.6648C10.9813 11.7207 11.2847 11.5948 11.5084 11.371C11.7322 11.1472 11.858 10.8438 11.8584 10.5274V3.15816C11.8599 3.00375 11.8309 2.85058 11.7729 2.70744C11.7151 2.56429 11.6295 2.43399 11.5211 2.32402ZM7.95142 12.6977H1.76537C1.67901 12.6977 1.5962 12.6634 1.53514 12.6024C1.47408 12.5413 1.43978 12.4585 1.43978 12.3722V3.907C1.43978 3.82064 1.47408 3.73784 1.53514 3.67678C1.5962 3.61571 1.67901 3.58141 1.76537 3.58141H2.25374C2.29691 3.58141 2.33831 3.59856 2.36885 3.62909C2.39937 3.65963 2.41652 3.70103 2.41652 3.7442V10.5274C2.41652 10.8439 2.54228 11.1475 2.76612 11.3714C2.98996 11.5953 3.29355 11.721 3.61011 11.721H8.11425C8.15742 11.721 8.19883 11.7381 8.22931 11.7686C8.25988 11.7992 8.27697 11.8406 8.27697 11.8838V12.3722C8.27697 12.4585 8.24269 12.5413 8.18164 12.6024C8.12059 12.6634 8.03777 12.6977 7.95142 12.6977ZM10.2305 10.4187H4.04444C3.95808 10.4187 3.87527 10.3844 3.81422 10.3232C3.75316 10.2622 3.71886 10.1794 3.71886 10.093V1.62792C3.71886 1.54157 3.75316 1.45876 3.81422 1.3977C3.87527 1.33664 3.95808 1.30234 4.04444 1.30234H8.62538C8.66962 1.30241 8.71348 1.31151 8.75411 1.32909C8.79474 1.34667 8.83137 1.37235 8.86175 1.40457L10.4668 3.10411C10.524 3.16445 10.5559 3.24435 10.5561 3.32747V10.093C10.5561 10.1794 10.5217 10.2622 10.4607 10.3232C10.3996 10.3844 10.3168 10.4187 10.2305 10.4187Z" fill="#6D7380"/>
</svg>