<svg xmlns="http://www.w3.org/2000/svg" width="31" height="31" viewBox="0 0 31 31" fill="none">
  <path d="M5.86977 30.2C4.32977 30.2 3.07977 28.95 3.07977 27.41V24.33C3.07977 22.79 4.32977 21.54 5.86977 21.54H6.15977V15.1C6.15977 10.17 10.1698 6.15 15.1098 6.15C20.0498 6.15 24.0598 10.16 24.0598 15.1V21.54H24.3398C25.8798 21.54 27.1298 22.79 27.1298 24.33V27.41C27.1298 28.95 25.8798 30.2 24.3398 30.2H5.86977ZM5.86977 24.05C5.70977 24.05 5.57977 24.18 5.57977 24.33V27.41C5.57977 27.57 5.70977 27.69 5.86977 27.69H24.3298C24.4898 27.69 24.6198 27.56 24.6198 27.41V24.33C24.6198 24.17 24.4898 24.05 24.3298 24.05H5.86977ZM21.5398 21.54V15.1C21.5398 11.55 18.6498 8.66 15.0998 8.66C11.5498 8.66 8.65977 11.55 8.65977 15.1V21.54H21.5398ZM27.4098 16.36C26.7198 16.36 26.1598 15.8 26.1598 15.11C26.1598 14.42 26.7198 13.86 27.4098 13.86H28.9498C29.6398 13.86 30.1998 14.42 30.1998 15.11C30.1998 15.8 29.6398 16.36 28.9498 16.36H27.4098ZM1.25977 16.36C0.569766 16.36 0.00976562 15.8 0.00976562 15.11C0.00976562 14.42 0.569766 13.86 1.25977 13.86H2.79977C3.48977 13.86 4.04977 14.42 4.04977 15.11C4.04977 15.8 3.48977 16.36 2.79977 16.36H1.25977ZM23.7998 7.65C23.4598 7.65 23.1498 7.52 22.9098 7.28C22.6698 7.04 22.5398 6.73 22.5398 6.39C22.5398 6.05 22.6698 5.74 22.9098 5.5L23.9998 4.41C24.2398 4.17 24.5498 4.04 24.8898 4.04C25.2298 4.04 25.5398 4.17 25.7798 4.41C26.2698 4.9 26.2698 5.69 25.7798 6.18L24.6898 7.27C24.4498 7.51 24.1398 7.64 23.7998 7.64V7.65ZM6.39977 7.65C6.05977 7.65 5.74977 7.52 5.50977 7.28L4.41977 6.19C4.17977 5.95 4.04977 5.64 4.04977 5.3C4.04977 4.96 4.17977 4.65 4.41977 4.41C4.65977 4.17 4.96977 4.04 5.30977 4.04C5.64977 4.04 5.95977 4.17 6.19977 4.41L7.28977 5.5C7.77977 5.99 7.77977 6.78 7.28977 7.27C7.04977 7.51 6.73977 7.64 6.39977 7.64V7.65ZM15.0998 4.04C14.4098 4.04 13.8498 3.48 13.8498 2.79V1.25C13.8498 0.56 14.4098 0 15.0998 0C15.7898 0 16.3498 0.56 16.3498 1.25V2.79C16.3498 3.48 15.7898 4.04 15.0998 4.04Z" fill="currentColor"/>
</svg>