<svg xmlns="http://www.w3.org/2000/svg" width="24" height="24" viewBox="0 0 24 24" fill="none">
<rect x="10" y="7" width="4" height="14" rx="2" fill="white"/>
<path d="M23.119 20L13.772 2.15004C13.6026 1.82678 13.348 1.55604 13.0358 1.36713C12.7235 1.17823 12.3655 1.07837 12.0005 1.07837C11.6356 1.07837 11.2776 1.17823 10.9653 1.36713C10.6531 1.55604 10.3984 1.82678 10.229 2.15004L0.88104 20C0.721361 20.3049 0.643044 20.6458 0.653662 20.9898C0.664281 21.3337 0.763476 21.6691 0.941655 21.9636C1.11983 22.258 1.37097 22.5014 1.67077 22.6704C1.97058 22.8394 2.3089 22.9281 2.65304 22.928H21.347C21.6912 22.9281 22.0295 22.8394 22.3293 22.6704C22.6291 22.5014 22.8802 22.258 23.0584 21.9636C23.2366 21.6691 23.3358 21.3337 23.3464 20.9898C23.357 20.6458 23.2787 20.3049 23.119 20ZM11 8.42304C11 8.15783 11.1054 7.90347 11.2929 7.71594C11.4805 7.5284 11.7348 7.42304 12 7.42304C12.2653 7.42304 12.5196 7.5284 12.7071 7.71594C12.8947 7.90347 13 8.15783 13 8.42304V14.423C13 14.6883 12.8947 14.9426 12.7071 15.1302C12.5196 15.3177 12.2653 15.423 12 15.423C11.7348 15.423 11.4805 15.3177 11.2929 15.1302C11.1054 14.9426 11 14.6883 11 14.423V8.42304ZM12.05 19.933H12.022C11.6277 19.9318 11.2491 19.7781 10.9654 19.5041C10.6818 19.2302 10.515 18.8571 10.5 18.463C10.4928 18.2671 10.5248 18.0716 10.5939 17.8881C10.6631 17.7046 10.7682 17.5367 10.903 17.3942C11.0378 17.2518 11.1997 17.1376 11.3791 17.0584C11.5585 16.9793 11.7519 16.9366 11.948 16.933H11.976C12.3703 16.9335 12.7491 17.0865 13.0332 17.3599C13.3173 17.6334 13.4845 18.0061 13.5 18.4C13.5078 18.5965 13.4762 18.7925 13.4071 18.9765C13.338 19.1606 13.2329 19.329 13.0978 19.4718C12.9627 19.6146 12.8004 19.729 12.6205 19.8082C12.4406 19.8874 12.2466 19.9299 12.05 19.933Z" fill="#F2D051"/>
</svg>