<svg xmlns="http://www.w3.org/2000/svg" width="24" height="24" viewBox="0 0 24 24" fill="none">
<rect x="10" y="5" width="4" height="14" rx="2" fill="white"/>
<path d="M22.4436 10.6573L13.3423 1.55596C12.9862 1.19998 12.5033 1 11.9998 1C11.4962 1 11.0134 1.19998 10.6573 1.55596L1.55596 10.6582C1.19998 11.0143 1 11.4972 1 12.0007C1 12.5042 1.19998 12.9871 1.55596 13.3432L10.6573 22.4436C11.0134 22.7995 11.4962 22.9995 11.9998 22.9995C12.5033 22.9995 12.9862 22.7995 13.3423 22.4436L22.4436 13.3432C22.62 13.1669 22.7599 12.9575 22.8554 12.7271C22.9509 12.4966 23 12.2497 23 12.0002C23 11.7508 22.9509 11.5038 22.8554 11.2734C22.7599 11.043 22.62 10.8336 22.4436 10.6573ZM11.1149 6.69906C11.1149 6.44725 11.2149 6.20576 11.393 6.02771C11.571 5.84965 11.8125 5.74962 12.0643 5.74962C12.3161 5.74962 12.5576 5.84965 12.7357 6.02771C12.9137 6.20576 13.0138 6.44725 13.0138 6.69906V12.3957C13.0138 12.6475 12.9137 12.889 12.7357 13.067C12.5576 13.2451 12.3161 13.3451 12.0643 13.3451C11.8125 13.3451 11.571 13.2451 11.393 13.067C11.2149 12.889 11.1149 12.6475 11.1149 12.3957V6.69906ZM12.1127 17.6271H12.0862C11.7118 17.6256 11.3525 17.4796 11.0832 17.2196C10.814 16.9595 10.6556 16.6055 10.6411 16.2314C10.6341 16.0453 10.6644 15.8597 10.73 15.6854C10.7957 15.5111 10.8954 15.3516 11.0234 15.2163C11.1514 15.0811 11.3052 14.9727 11.4756 14.8976C11.646 14.8224 11.8297 14.782 12.0159 14.7788H12.0425C12.417 14.7797 12.7766 14.9256 13.0459 15.1857C13.3153 15.4459 13.4736 15.8002 13.4875 16.1744C13.4945 16.3605 13.4643 16.5462 13.3986 16.7205C13.333 16.8948 13.2332 17.0542 13.1052 17.1895C12.9772 17.3248 12.8235 17.4331 12.6531 17.5083C12.4827 17.5834 12.299 17.6238 12.1127 17.6271Z" fill="#DE2624"/>
</svg>