<svg xmlns="http://www.w3.org/2000/svg" width="32" height="28" viewBox="0 0 32 28" fill="none">
  <path d="M31.6452 20.78C31.3852 20.14 30.6652 19.83 30.0252 20.08C29.3852 20.33 29.0752 21.06 29.3252 21.7C29.6552 22.52 29.5452 23.45 29.0352 24.19C28.5352 24.93 27.7252 25.36 26.8152 25.36H5.19515C4.20515 25.36 3.33515 24.85 2.85515 23.98C2.37515 23.12 2.39515 22.1 2.91515 21.26L13.7252 3.77C14.2152 2.97 15.0652 2.5 16.0052 2.5C16.9452 2.5 17.7952 2.98 18.2852 3.77L26.2852 16.72C26.6452 17.31 27.4152 17.49 28.0052 17.13C28.5952 16.77 28.7752 16 28.4152 15.41L20.4152 2.46C19.4652 0.92 17.8152 0 16.0052 0C14.1952 0 12.5452 0.92 11.5952 2.46L0.785153 19.96C-0.214847 21.58 -0.264847 23.55 0.665154 25.21C1.59515 26.87 3.28515 27.87 5.18515 27.87H26.8052C28.5552 27.87 30.1152 27.04 31.0952 25.6C32.0652 24.17 32.2652 22.37 31.6352 20.78H31.6452Z" fill="currentColor"/>
  <path fill-rule="evenodd" clip-rule="evenodd" d="M16.0052 17.0857C15.2659 17.0857 14.6659 16.4857 14.6659 15.7464L14.6659 10.5C14.6659 9.76067 15.2659 9.16067 16.0052 9.16067C16.7444 9.16067 17.3444 9.76067 17.3444 10.5L17.3444 15.7464C17.3444 16.4857 16.7444 17.0857 16.0052 17.0857Z" fill="currentColor"/>
  <path d="M16.0052 18.8214C15.2655 18.8214 14.6659 19.421 14.6659 20.1607C14.6659 20.9003 15.2655 21.5 16.0052 21.5C16.7448 21.5 17.3444 20.9003 17.3444 20.1607C17.3444 19.421 16.7448 18.8214 16.0052 18.8214Z" fill="currentColor"/>
</svg>