<svg xmlns="http://www.w3.org/2000/svg" width="30" height="30" viewBox="0 0 30 30" fill="none">
  <path fill-rule="evenodd" clip-rule="evenodd" d="M15 27.3214C21.8036 27.3214 27.3214 21.8036 27.3214 15C27.3214 8.19643 21.8036 2.67857 15 2.67857C8.19643 2.67857 2.67857 8.19643 2.67857 15C2.67857 21.8036 8.19643 27.3214 15 27.3214ZM15 30C23.2821 30 30 23.2821 30 15C30 6.71786 23.2821 0 15 0C6.71786 0 0 6.71786 0 15C0 23.2821 6.71786 30 15 30Z" fill="currentColor"/>
  <path fill-rule="evenodd" clip-rule="evenodd" d="M15 11.9143C15.7393 11.9143 16.3393 12.5143 16.3393 13.2536V21.825C16.3393 22.5643 15.7393 23.1643 15 23.1643C14.2607 23.1643 13.6607 22.5643 13.6607 21.825V13.2536C13.6607 12.5143 14.2607 11.9143 15 11.9143Z" fill="currentColor"/>
  <path d="M15 9.50357C15.7397 9.50357 16.3393 8.90395 16.3393 8.16429C16.3393 7.42462 15.7397 6.825 15 6.825C14.2603 6.825 13.6607 7.42462 13.6607 8.16429C13.6607 8.90395 14.2603 9.50357 15 9.50357Z" fill="currentColor"/>
</svg>