<svg xmlns="http://www.w3.org/2000/svg" width="24" height="35" viewBox="0 0 24 35" fill="none">
  <path d="M11.7695 5.21C11.0795 5.21 10.5095 4.65 10.5095 3.95V1.26C10.5095 0.57 11.0695 0 11.7695 0C12.4695 0 13.0195 0.56 13.0195 1.26V3.95C13.0195 4.64 12.4595 5.21 11.7695 5.21Z" fill="currentColor"/>
  <path d="M20.1795 7.83C19.8395 7.83 19.5295 7.7 19.2895 7.46C18.7995 6.97 18.7995 6.17 19.2895 5.68L21.3895 3.58C21.6295 3.34 21.9395 3.21 22.2795 3.21C22.6195 3.21 22.9295 3.34 23.1695 3.58C23.6595 4.07 23.6595 4.87 23.1695 5.36L21.0695 7.46C20.8295 7.7 20.5195 7.83 20.1795 7.83Z" fill="currentColor"/>
  <path d="M3.35945 7.83C3.02945 7.83 2.70945 7.7 2.46945 7.46L0.369453 5.36C-0.120547 4.87 -0.120547 4.07 0.369453 3.58C0.609453 3.34 0.919453 3.21 1.25945 3.21C1.59945 3.21 1.90945 3.34 2.14945 3.58L4.24945 5.68C4.73945 6.17 4.73945 6.97 4.24945 7.46C4.00945 7.7 3.69945 7.83 3.35945 7.83Z" fill="currentColor"/>
  <path d="M9.66945 34.19C7.81945 34.19 6.30945 32.68 6.30945 30.83V27.61C6.30945 26.42 5.45945 25.27 4.46945 23.95C3.10945 22.13 1.57945 20.06 1.57945 17.1C1.57945 11.48 6.14945 6.91 11.7695 6.91C17.3895 6.91 21.9595 11.48 21.9595 17.1C21.9595 20.07 20.4195 22.13 19.0695 23.95C18.0795 25.28 17.2295 26.42 17.2295 27.61V30.83C17.2295 32.68 15.7195 34.19 13.8695 34.19H9.65945H9.66945ZM8.81945 30.83C8.81945 31.3 9.19945 31.68 9.66945 31.68H13.8795C14.3495 31.68 14.7295 31.3 14.7295 30.83V28.87H8.82945V30.83H8.81945ZM14.8795 26.35C15.2395 24.89 16.1695 23.64 17.0695 22.43C18.2395 20.85 19.4595 19.22 19.4595 17.09C19.4595 12.85 16.0095 9.41 11.7795 9.41C7.54945 9.41 4.09945 12.86 4.09945 17.09C4.09945 19.22 5.30945 20.85 6.48945 22.43C7.38945 23.64 8.31945 24.89 8.67945 26.35H10.5295V22.83C9.25945 22.32 8.42945 21.09 8.42945 19.72C8.42945 19.03 8.98945 18.46 9.67945 18.46C10.3695 18.46 10.9395 19.02 10.9395 19.72C10.9395 20.19 11.3195 20.57 11.7895 20.57C12.2595 20.57 12.6395 20.19 12.6395 19.72C12.6395 19.03 13.1995 18.46 13.8895 18.46C14.5795 18.46 15.1395 19.02 15.1395 19.72C15.1395 21.1 14.2995 22.32 13.0395 22.83V26.35H14.8895H14.8795Z" fill="currentColor"/>
</svg>