<?xml version="1.0" encoding="UTF-8" standalone="no"?>
<!-- Created with Inkscape (http://www.inkscape.org/) -->

<svg
   width="35.454166mm"
   height="39.122902mm"
   viewBox="0 0 35.454166 39.122902"
   version="1.1"
   id="svg1054"
   inkscape:version="1.1.1 (eb90963e84, 2021-10-02)"
   sodipodi:docname="arbirtum_logo.svg"
   xmlns:inkscape="http://www.inkscape.org/namespaces/inkscape"
   xmlns:sodipodi="http://sodipodi.sourceforge.net/DTD/sodipodi-0.dtd"
   xmlns="http://www.w3.org/2000/svg"
   xmlns:svg="http://www.w3.org/2000/svg">
  <sodipodi:namedview
     id="namedview1056"
     pagecolor="#ffffff"
     bordercolor="#666666"
     borderopacity="1.0"
     inkscape:pageshadow="2"
     inkscape:pageopacity="0.0"
     inkscape:pagecheckerboard="0"
     inkscape:document-units="mm"
     showgrid="false"
     inkscape:zoom="0.42137346"
     inkscape:cx="79.501923"
     inkscape:cy="237.31917"
     inkscape:window-width="1920"
     inkscape:window-height="1011"
     inkscape:window-x="2360"
     inkscape:window-y="631"
     inkscape:window-maximized="1"
     inkscape:current-layer="layer1" />
  <defs
     id="defs1051" />
  <g
     inkscape:label="Layer 1"
     inkscape:groupmode="layer"
     id="layer1"
     transform="translate(-83.989246,-85.2736)">
    <g
       id="Group_1"
       data-name="Group 1"
       transform="matrix(0.26458333,0,0,0.26458333,83.963317,84.389639)">
      <path
         id="Polygon_1"
         data-name="Polygon 1"
         d="m 103.926,0 a 20,20 0 0 1 17.341,10.035 l 27.007,47 a 20,20 0 0 1 0,19.929 l -27.007,47 A 20,20 0 0 1 103.926,134 H 50.074 A 20,20 0 0 1 32.733,123.965 l -27.007,-47 a 20,20 0 0 1 0,-19.929 l 27.007,-47 A 20,20 0 0 1 50.074,0 Z"
         transform="rotate(90,66.912,67.186)"
         fill="#1d86cc" />
    </g>
    <path
       id="Path_83"
       data-name="Path 83"
       d="m 100.1836,87.966551 -12.276663,7.090833 a 3.0691666,3.0691666 0 0 0 -1.53459,2.659062 l 0.008,14.197274 a 3.0691666,3.0691666 0 0 0 1.53299,2.6551 l 12.290963,7.10512 a 3.0691666,3.0691666 0 0 0 3.06916,0 l 12.27667,-7.08872 a 3.0691666,3.0691666 0 0 0 1.53458,-2.65906 l -0.008,-14.197278 a 3.0691666,3.0691666 0 0 0 -1.533,-2.654829 l -12.29095,-7.105386 a 3.0691666,3.0691666 0 0 0 -3.06917,0 z"
       fill="#ffffff"
       style="stroke-width:0.264583" />
    <path
       id="Path_84"
       data-name="Path 84"
       d="m 96.131497,116.87518 a 0.57441041,0.57441041 0 0 1 0.12065,-0.25162 q 5.508633,-9.34719 11.019113,-18.693602 c 0.0511,-0.08652 0.0984,-0.175418 0.14181,-0.252941 -0.0323,-0.05636 -0.069,-0.04472 -0.10027,-0.04472 -1.56951,0.0056 -3.13902,0.01561 -4.70959,0.01376 a 0.3286125,0.3286125 0 0 0 -0.31194,0.209021 q -1.77588,2.936872 -3.556273,5.872162 -3.77163,6.22274 -7.54406,12.44521 c -0.0222,0.0368 -0.0455,0.0728 -0.0653,0.11059 -0.0445,0.0857 -0.095,0.0992 -0.18521,0.0468 -0.39026,-0.23045 -0.78475,-0.45349 -1.19936,-0.69188 L 100.93295,97.688125 c -0.0241,-0.07303 -0.0736,-0.05477 -0.11166,-0.05609 -0.59981,-0.01799 -1.199883,-0.04392 -1.799163,-0.04921 a 6.6497728,6.6497728 0 0 0 -2.47227,0.398463 3.4909125,3.4909125 0 0 0 -1.74255,1.414727 q -3.06731,4.784195 -6.15791,9.553575 c -0.0323,0.0503 -0.0667,0.0995 -0.10001,0.14923 -0.118,0 -0.10054,-0.0974 -0.11139,-0.16537 a 1.9894021,1.9894021 0 0 1 -0.007,-0.30824 c 0,-3.51684 0.0122,-7.03368 -0.0109,-10.55026 a 1.5165916,1.5165916 0 0 1 0.86837,-1.464733 c 2.7043,-1.541727 5.39115,-3.115204 8.08672,-4.672542 1.20306,-0.69506 2.40983,-1.383506 3.604163,-2.093119 a 1.3633979,1.3633979 0 0 1 1.51923,0 c 2.19604,1.288786 4.41167,2.547673 6.61908,3.818202 q 2.49741,1.438011 4.99719,2.870994 c 0.11933,0.068 0.23548,0.140759 0.35533,0.207698 a 1.1559646,1.1559646 0 0 1 0.61172,1.084792 q 0.005,5.738288 0,11.476568 a 0.74268541,0.74268541 0 0 1 -0.0302,0.27913 c -0.13229,0.1278 -0.18018,-0.0156 -0.22834,-0.0836 -0.19843,-0.27913 -0.3765,-0.57308 -0.56091,-0.86201 q -2.21509,-3.46736 -4.445,-6.92547 c -0.49954,-0.77919 -1.00542,-1.55522 -1.49966,-2.337591 -0.11536,-0.182562 -0.13626,-0.185208 -0.25162,0.01085 q -1.11866,1.892831 -2.23599,3.786451 a 0.38470416,0.38470416 0 0 0 0.0455,0.44979 q 0.92128,1.48643 1.83912,2.97498 l 3.13717,5.07471 q 0.635,1.0287 1.27211,2.05554 a 0.51990624,0.51990624 0 0 1 0.12542,0.32915 c -0.0849,0.1688 -0.26194,0.21616 -0.40931,0.29289 a 3.0937729,3.0937729 0 0 1 -0.78926,0.41196 c -0.15187,-0.0378 -0.20558,-0.17489 -0.27754,-0.28708 -0.97129,-1.515 -1.93014,-3.03768 -2.89507,-4.55639 -0.99246,-1.56104 -1.98015,-3.1279 -2.97683,-4.68735 -0.12779,-0.20003 -0.14817,-0.20135 -0.26829,0 -0.86704,1.45864 -1.72217,2.92417 -2.59133,4.38123 a 0.38840833,0.38840833 0 0 0 0.0214,0.4535 c 1.17078,1.80446 2.31458,3.62479 3.47292,5.43824 0.32306,0.50536 0.6485,1.00886 0.96573,1.51792 0.0619,0.099 0.14658,0.19764 0.0905,0.33152 a 5.4972478,5.4972478 0 0 1 -0.97896,0.60854 q -1.62295,0.9443 -3.24749,1.88595 a 1.07315,1.07315 0 0 1 -1.16417,0 q -2.392893,-1.3843 -4.794513,-2.75616 a 0.62494583,0.62494583 0 0 1 -0.27544,-0.21432 z"
       fill="#2d374b"
       style="stroke-width:0.264583" />
    <path
       id="Path_85"
       data-name="Path 85"
       d="m 115.00398,109.62031 c 0.003,-0.0945 0.007,-0.18865 0.007,-0.28284 q 0,-5.72532 0.004,-11.450107 a 1.190625,1.190625 0 0 0 -0.65034,-1.131623 q -6.01186,-3.446463 -12.01499,-6.908536 a 1.1154833,1.1154833 0 0 0 -1.2118,-0.0032 q -3.333753,1.937544 -6.675963,3.865034 -2.68155,1.55231 -5.36284,3.105414 a 1.1168062,1.1168062 0 0 0 -0.60087,1.053042 q 0.0138,5.493546 0.0156,10.987086 c 0,0.0815 -0.0331,0.17225 0.0381,0.24421 -0.42333,0.70485 -0.88847,1.38219 -1.33429,2.07195 q -0.33497,0.51806 -0.67258,1.03426 c -0.036,0.055 -0.0775,0.10583 -0.14869,0.20399 -0.005,-0.11535 -0.0109,-0.17912 -0.0109,-0.24262 q 0,-7.24455 0.003,-14.489112 a 2.9188833,2.9188833 0 0 1 1.52506,-2.629164 c 1.55416,-0.922867 3.12896,-1.811338 4.69344,-2.7178 1.32001,-0.764381 2.63551,-1.534583 3.95473,-2.300288 1.23031,-0.714375 2.44819,-1.450181 3.699403,-2.125662 a 3.0628166,3.0628166 0 0 1 3.11706,0.08096 c 1.00541,0.570442 2.0066,1.151467 3.0091,1.72773 q 1.41447,0.814123 2.82866,1.629304 1.30334,0.750358 2.60747,1.499129 1.29302,0.742685 2.5863,1.484577 c 0.37889,0.217752 0.75751,0.435769 1.13401,0.65749 a 3.1802916,3.1802916 0 0 1 1.57427,2.265362 2.2873229,2.2873229 0 0 1 0.0164,0.410898 q 0,7.128666 0.003,14.257606 a 3.0617583,3.0617583 0 0 1 -1.1012,2.36855 3.668977,3.668977 0 0 1 -0.635,0.3892 q -1.93146,1.12686 -3.86847,2.24446 -2.05819,1.19062 -4.11824,2.37728 -1.97935,1.1467 -3.95446,2.30187 a 2.9384625,2.9384625 0 0 1 -1.08479,0.44742 3.0588479,3.0588479 0 0 1 -1.905,-0.24236 c -0.656703,-0.35216 -1.296463,-0.73422 -1.943903,-1.10517 q -1.30413,-0.74824 -2.60694,-1.49939 -0.36803,-0.21167 -0.7366,-0.42095 c -0.0902,-0.0513 -0.15187,-0.10346 -0.0815,-0.22119 0.32491,-0.54425 0.64479,-1.09168 0.96811,-1.63698 0.0114,-0.0198 0.0405,-0.0291 0.0614,-0.0437 a 7.5766082,7.5766082 0 0 1 0.87312,0.48022 q 2.12804,1.21708 4.249473,2.44607 a 1.0025062,1.0025062 0 0 0 1.08956,-0.0116 c 1.34329,-0.78819 2.69346,-1.56501 4.04071,-2.3458 0.0667,-0.0386 0.13494,-0.0738 0.20267,-0.11033 a 1.11125,1.11125 0 0 1 0.49001,-0.35745 c 1.21709,-0.69744 2.42517,-1.40864 3.64199,-2.10423 0.1016,-0.0579 0.19315,-0.14737 0.32544,-0.13229 l 1.19221,-0.69056 c 0.0728,-0.1524 0.22807,-0.20162 0.35825,-0.27676 0.59981,-0.34634 1.19406,-0.7022 1.79916,-1.03743 a 1.0281708,1.0281708 0 0 0 0.54743,-0.97208 c 0.006,-0.60695 0,-1.21417 0.003,-1.82139 a 0.44688124,0.44688124 0 0 1 0.0619,-0.32253 z"
       fill="#96bedc"
       style="stroke-width:0.264583" />
    <path
       id="Path_90"
       data-name="Path 90"
       d="m 115.0053,109.62004 c 0.003,0.75354 0.0198,1.50813 0.003,2.2606 a 0.95514582,0.95514582 0 0 1 -0.4998,0.86519 c -0.75883,0.42969 -1.50389,0.88371 -2.2696,1.30175 -0.30453,-0.55562 -0.65616,-1.08479 -0.98901,-1.62454 q -2.59292,-4.20264 -5.19165,-8.40052 c -0.10372,-0.16775 -0.1987,-0.34184 -0.31459,-0.50033 a 0.25347083,0.25347083 0 0 1 0,-0.32358 c 0.41354,-0.69162 0.82021,-1.38721 1.22952,-2.08174 l 1.13612,-1.92723 a 0.21616458,0.21616458 0 0 1 0.10027,-0.105833 c 0.19765,0.304535 0.39688,0.611717 0.59585,0.919163 q 1.79281,2.79135 3.58484,5.58271 1.21523,1.89389 2.43019,3.78804 a 0.77073124,0.77073124 0 0 0 0.18495,0.24632 z"
       fill="#28a0f0"
       style="stroke-width:0.264583" />
    <path
       id="Path_91"
       data-name="Path 91"
       d="m 111.0466,114.73814 c -0.49344,0.32385 -1.01679,0.59928 -1.52532,0.89958 -0.92207,0.54214 -1.84997,1.07421 -2.77521,1.61026 -0.0529,0.0299 -0.10584,0.0579 -0.1569,0.0868 a 0.43682708,0.43682708 0 0 0 -0.10583,-0.23045 q -1.23587,-1.94231 -2.47201,-3.88382 -1.01573,-1.59438 -2.03729,-3.18559 a 0.32728958,0.32728958 0 0 1 -0.018,-0.39687 q 1.36551,-2.29976 2.71965,-4.6064 c 0.0214,-0.0355 0.0386,-0.0767 0.0918,-0.0881 0.0741,0.0167 0.0921,0.0907 0.12727,0.14605 q 2.46062,3.87588 4.92125,7.75229 c 0.34898,0.55007 0.69638,1.10147 1.04748,1.65048 a 0.81385832,0.81385832 0 0 0 0.18257,0.24632 z"
       fill="#28a0f0"
       style="stroke-width:0.264583" />
  </g>
</svg>
