<?xml version="1.0" encoding="UTF-8" standalone="no"?>
<!-- Created with Inkscape (http://www.inkscape.org/) -->

<svg
   width="310.55899mm"
   height="310.55914mm"
   viewBox="0 0 310.55899 310.55914"
   version="1.1"
   id="svg564"
   inkscape:version="1.2.1 (8a69933317, 2022-10-28, custom)"
   sodipodi:docname="metis.svg"
   xmlns:inkscape="http://www.inkscape.org/namespaces/inkscape"
   xmlns:sodipodi="http://sodipodi.sourceforge.net/DTD/sodipodi-0.dtd"
   xmlns="http://www.w3.org/2000/svg"
   xmlns:svg="http://www.w3.org/2000/svg">
  <sodipodi:namedview
     id="namedview566"
     pagecolor="#ffffff"
     bordercolor="#666666"
     borderopacity="1.0"
     inkscape:showpageshadow="2"
     inkscape:pageopacity="0.0"
     inkscape:pagecheckerboard="0"
     inkscape:deskcolor="#d1d1d1"
     inkscape:document-units="mm"
     showgrid="false"
     inkscape:zoom="0.914906"
     inkscape:cx="615.36376"
     inkscape:cy="630.66588"
     inkscape:window-width="3840"
     inkscape:window-height="2075"
     inkscape:window-x="0"
     inkscape:window-y="0"
     inkscape:window-maximized="1"
     inkscape:current-layer="layer1" />
  <defs
     id="defs561" />
  <g
     inkscape:label="Layer 1"
     inkscape:groupmode="layer"
     id="layer1"
     transform="translate(57.917366,18.47641)">
    <circle
       class="st0"
       cx="97.362206"
       cy="136.80316"
       r="155.27957"
       id="circle20"
       style="fill:#313042;stroke-width:11.0914" />
    <path
       class="st1"
       d="m 66.306291,210.00654 c 1.10913,-3.32721 3.32742,-6.65484 4.43656,-11.09142 0,-1.10921 0,-3.32721 -1.10912,-4.43655 -6.65484,-8.87313 -8.87312,-18.85539 -6.65484,-28.83765 0,-1.10921 0,-2.21841 1.10912,-2.21841 0,-1.10921 1.10913,-1.10921 1.10913,-2.21842 7.76398,7.76396 9.98226,17.74622 11.0914,27.72848 2.21829,-4.43655 5.5457,-8.87309 7.76398,-14.41881 0,-1.10921 -1.10913,-2.21842 -1.10913,-3.32721 -6.65484,-9.98225 -7.76398,-21.07364 -3.32742,-33.27419 7.76398,7.76396 9.98226,17.74622 9.98226,27.72848 3.32742,-4.43654 5.5457,-8.87309 8.87311,-12.20051 0,-1.10921 0,-2.21842 -1.10912,-3.32721 -3.32742,-9.98226 -3.32742,-19.96451 2.21829,-29.94677 1.109129,-1.10921 1.109129,-2.21842 2.218299,-3.32721 5.5457,8.87309 4.43655,17.74622 3.32742,26.61935 h 1.10912 c 2.21829,-3.32763 4.43656,-5.54571 5.5457,-8.87313 4.43656,-12.20055 11.0914,-21.07364 23.29194,-26.61935 2.21829,-1.10921 3.32742,-1.10921 5.5457,-2.21842 0,2.21842 0,3.32721 -1.10913,5.54571 -3.32742,11.09138 -11.0914,19.96452 -22.18279,25.51023 -4.43656,2.21842 -7.76398,5.54567 -9.98226,9.98226 8.87312,-4.43659 17.74624,-6.65484 28.83763,-3.32721 -2.21829,2.21842 -3.32742,3.32721 -5.54569,4.43654 -7.76399,5.54571 -16.6371,7.76397 -25.51022,6.65484 -3.32742,0 -4.43656,0 -5.545699,2.21842 -2.21829,3.32721 -4.43656,7.76396 -6.65484,12.20051 9.982259,-4.43655 19.964519,-6.65484 31.055919,-1.10921 -3.32742,2.21842 -5.5457,4.43654 -7.76398,5.54571 -7.76398,3.32721 -15.52796,4.43655 -24.401079,2.21842 -2.21829,-1.10921 -3.32742,0 -4.43656,2.21842 -2.21829,4.43655 -4.43655,8.87313 -7.76397,14.4188 9.98226,-4.43654 19.96451,-7.76396 31.055909,-3.32721 l 1.10913,1.10921 c -1.10913,1.10921 -2.2183,1.10921 -4.43656,2.21842 -8.873119,5.54572 -17.746239,7.76401 -27.728489,6.65484 -2.2183,-1.10921 -4.43657,0 -4.43657,2.21842 -3.32742,8.87313 -6.65484,17.74622 -9.98225,25.51023 -1.10913,3.32721 -3.32742,6.65484 -5.5457,9.98226 -1.10913,2.21842 -3.32742,3.32721 -5.5457,2.21842 C 24.159017,223.31769 3.0853629,200.02575 -4.6786181,167.86069 -20.206572,109.07626 11.958478,50.291875 69.633751,33.654785 136.18213,13.690265 201.62138,58.055845 211.60363,122.38594 c 7.76398,52.12958 -22.18279,102.04087 -70.98494,119.78709 -3.32742,1.10921 -5.5457,2.21842 -7.76398,0 -2.21829,-3.3272 -2.21829,-5.54567 -1.10913,-8.87309 4.43656,-11.09142 7.76398,-22.1828 11.0914,-33.27419 2.21829,-6.65484 4.43656,-8.87313 11.0914,-8.87313 6.65484,-1.10921 13.30968,-1.10921 19.96452,-2.21842 5.54569,-1.10921 7.76397,-3.32721 7.76397,-8.87309 0,-1.10921 0,-3.32721 0,-4.43659 -1.10912,-2.21842 0,-4.43654 2.2183,-6.65483 2.21829,-2.21842 2.21829,-3.32721 0,-5.54568 -1.10913,-1.10921 -1.10913,-3.32721 0,-3.32721 2.21829,-2.21841 2.21829,-4.43658 0,-6.65483 -2.2183,-2.21842 -1.10913,-4.43659 1.10912,-5.54572 2.2183,-1.10921 3.32742,-2.21842 4.43656,-4.43654 3.32742,-2.21842 2.21829,-4.43659 0,-6.65484 -4.43656,-4.43659 -9.98226,-7.76401 -14.41882,-12.20055 -3.32741,-2.21842 -4.43655,-6.65484 -3.32741,-9.98226 1.10912,-6.65484 0,-12.20055 -3.32742,-17.746225 -3.32742,-4.43659 -5.5457,-9.98226 -7.76398,-14.41885 -3.32742,-7.76396 -8.87312,-13.30967 -16.6371,-15.52793 -7.76398,-2.21841 -15.52796,-3.3272 -24.40107,-4.43658 -5.5457,-1.10921 -11.0914,-1.10921 -16.6371,-2.21842 -14.418819,-2.21842 -27.728489,1.10921 -38.819889,11.09138 -3.32742,2.21842 -6.65484,5.54571 -11.0914,6.65484 -3.32742,1.10921 -5.5457,4.43655 -7.76398,6.65484 -1.10912,3.32721 -3.32742,5.54571 -6.654836,6.65484 -5.545696,4.43654 -11.091396,7.76396 -15.527954,13.309675 -1.109126,2.21842 -4.436562,3.32721 -5.5457,4.43655 -6.654839,4.43659 -7.7639771,8.87313 -5.5457,15.52797 1.109126,4.43655 2.218293,8.87313 1.109126,13.30968 -1.109126,3.32721 -1.109126,7.76396 0,11.09138 0,4.43659 3.327419,8.87313 7.763977,9.98226 3.327419,1.10921 5.5457,3.32721 5.5457,6.65484 1.109126,4.43658 3.327419,8.87313 6.654838,12.20055 3.32742,3.32721 5.545696,7.76396 7.763977,12.20055 2.218292,5.54567 5.545702,8.87309 11.091392,11.09138 5.5457,2.21842 9.98226,4.43655 15.52796,6.65484 -3.32742,1.10921 -2.21829,1.10921 -1.10912,2.21842 z"
       id="path22"
       style="fill:#00dacc;stroke-width:11.0914" />
  </g>
</svg>
