<svg width="29" height="27" viewBox="0 0 29 27" fill="none" xmlns="http://www.w3.org/2000/svg">
<g id="Contribute" clip-path="url(#clip0_3449_5042)">
<path id="Vector" d="M26.3203 14.81L19.1203 22.28C18.8803 22.53 18.5603 22.67 18.2203 22.67C17.8803 22.67 17.5803 22.55 17.3503 22.32C17.1103 22.09 16.9703 21.78 16.9603 21.44C16.9603 21.1 17.0803 20.79 17.3103 20.55L24.4903 13.1C25.6003 11.87 26.1903 10.27 26.1503 8.59C26.1103 6.99 25.4903 5.48 24.4003 4.33C23.3203 3.2 21.9003 2.55 20.4003 2.51H20.2203C18.3003 2.51 16.4903 3.49 15.3703 5.15C15.1403 5.5 14.7503 5.7 14.3303 5.7C13.9103 5.7 13.5203 5.49 13.2903 5.15C12.1803 3.5 10.3703 2.51 8.45031 2.51C6.90031 2.51 5.46031 3.14 4.35031 4.26C3.17031 5.45 2.50031 7.12 2.52031 8.82C2.53031 10.48 3.16031 12.04 4.28031 13.22L15.2503 24.56C15.7303 25.06 15.7203 25.86 15.2203 26.34C14.9803 26.57 14.6703 26.69 14.3503 26.69C14.0003 26.69 13.6803 26.55 13.4503 26.31L2.46031 14.95C0.890313 13.31 0.0203128 11.14 0.000312783 8.84C-0.0196872 6.47 0.920313 4.16 2.57031 2.5C4.15031 0.9 6.22031 0.01 8.42031 0C10.6003 0 12.6603 0.84 14.2303 2.37L14.3403 2.48L14.4503 2.37C16.0103 0.85 18.0603 0 20.2103 0H20.4903C22.6603 0.07 24.7003 1 26.2303 2.61C27.7503 4.2 28.6203 6.31 28.6703 8.54C28.7303 10.9 27.8903 13.12 26.3203 14.81Z" fill="currentColor"/>
</g>
<defs>
<clipPath id="clip0_3449_5042">
<rect width="28.68" height="26.68" fill="white"/>
</clipPath>
</defs>
</svg>
