<svg width="34" height="26" viewBox="0 0 34 26" fill="none" xmlns="http://www.w3.org/2000/svg">
<g id="Discord">
<path d="M23.412 25.86C22.732 25.86 22.172 25.3 22.172 24.62V23.33C20.302 23.67 18.592 23.85 16.952 23.85C15.312 23.85 13.492 23.65 11.802 23.26L11.712 24.61C11.712 25.3 11.152 25.85 10.472 25.85C6.64201 25.62 3.05201 23.99 0.362009 21.26C0.112009 21.01 -0.017991 20.66 0.00200898 20.32C0.282009 15.74 0.562009 11.01 3.09201 5.71C3.79201 4.12 8.44201 0.97 12.092 0.05C12.192 0.03 12.292 0.01 12.392 0.01C12.962 0.01 13.452 0.4 13.592 0.95C13.752 1.62 13.352 2.3 12.692 2.46C9.81201 3.07 7.18201 4.66 5.26201 6.92C3.47201 11.03 2.55201 15.39 2.51201 19.87C4.37201 21.62 6.66201 22.79 9.14201 23.25L9.22201 22.51C7.56201 21.81 6.06201 20.94 4.74201 19.89C4.21201 19.46 4.12201 18.67 4.54201 18.14C4.78201 17.84 5.14201 17.67 5.52201 17.67C5.80201 17.67 6.07201 17.76 6.29201 17.94C9.20201 20.16 12.812 21.38 16.482 21.38C16.632 21.38 16.792 21.38 16.952 21.38C17.102 21.38 17.252 21.38 17.412 21.38C21.062 21.38 24.682 20.16 27.602 17.94C27.832 17.76 28.112 17.67 28.392 17.67C28.772 17.67 29.122 17.84 29.352 18.14C29.772 18.69 29.682 19.47 29.152 19.89C27.822 20.94 26.322 21.8 24.682 22.44C24.652 22.57 24.662 23.18 24.662 23.18C27.192 22.79 29.492 21.65 31.352 19.92C31.352 15.42 30.432 11.05 28.632 6.94C26.712 4.67 24.072 3.08 21.192 2.46C20.852 2.38 20.582 2.18 20.412 1.88C20.242 1.59 20.202 1.26 20.282 0.94C20.422 0.39 20.912 0 21.482 0C21.592 0 21.692 0.01 21.792 0.04C25.442 0.96 29.892 3.76 30.782 5.7C33.332 11.01 33.612 15.73 33.892 20.31C33.902 20.67 33.772 21.02 33.532 21.26C30.852 23.98 27.272 25.61 23.462 25.85H23.422L23.412 25.86Z" fill="currentColor"/>
<path d="M26.732 7.25C27.072 6.61 26.812 5.82 26.182 5.48C23.302 4.1 20.142 3.42 16.952 3.51C13.762 3.43 10.592 4.1 7.72201 5.48C7.08201 5.82 6.86201 6.62 7.20201 7.27C7.54201 7.89 8.30201 8.14 8.93201 7.82C11.442 6.64 14.192 6.06 16.962 6.14C19.732 6.06 22.482 6.64 24.992 7.82C25.632 8.1 26.382 7.86 26.762 7.27H26.752L26.732 7.25Z" fill="currentColor"/>
<path d="M13.022 15.3C13.932 15.3 14.662 14.56 14.662 13.65C14.662 12.74 13.922 12 13.022 12C12.122 12 11.382 12.74 11.382 13.65C11.382 14.56 12.122 15.3 13.022 15.3Z" fill="currentColor"/>
<path d="M20.842 15.3C21.752 15.3 22.482 14.56 22.482 13.65C22.482 12.74 21.742 12 20.842 12C19.942 12 19.202 12.74 19.202 13.65C19.202 14.56 19.942 15.3 20.842 15.3Z" fill="currentColor"/>
</g>
</svg>
