<svg width="108" height="69" viewBox="0 0 108 69" fill="none" xmlns="http://www.w3.org/2000/svg">
<path d="M107.697 59.2468C51.6939 66.6041 11.7207 75.442 11.1307 39.1689C11.1307 39.1689 12.3525 25.1148 29.5 24.2273C29.5 24.2273 30.0775 11.7422 43.1787 10.3288C50.221 9.5632 58.2257 16.8532 59.0918 24.5301C59.0918 24.5301 76.4235 21.3079 77.1725 38.294C77.4361 44.2126 76.1096 54.2789 59.3931 53.8414C59.3931 53.8414 49.723 52.5205 48.4092 37.4863C45.6893 66.5872 87.5413 64.8962 88.1439 38.4622C88.4075 27.0372 81.1267 15.2799 64.7282 17.4841C55.7402 -5.24808 31.814 -3.94404 22.9013 17.1392C10.1725 17.1476 0.435443 26.9994 0.577711 39.8672C1.0631 81.2807 58.3931 68.7957 107.697 59.2468Z" fill="currentColor"/>
</svg>
