<svg width="33" height="33" viewBox="0 0 33 33" fill="none" xmlns="http://www.w3.org/2000/svg">
<g id="Forum">
<path d="M26.5468 12.3716C25.8281 12.3716 25.2623 12.9527 25.2623 13.6561C25.2623 14.3595 25.8434 14.9406 26.5468 14.9406C28.6724 14.9406 30.4157 16.6686 30.4157 18.8095V29.1162C30.4157 29.8197 29.8346 30.4008 29.1311 30.4008C28.9018 30.4008 28.6877 30.3396 28.4889 30.2326L24.62 27.9999C24.4212 27.8929 24.2071 27.8317 23.9778 27.8317H16.24C14.1145 27.8317 12.3712 26.1037 12.3712 23.9629V21.3785C12.3712 20.6598 11.7901 20.094 11.0867 20.094C10.3832 20.094 9.80213 20.6751 9.80213 21.3785V23.9629C9.80213 27.5106 12.6923 30.4008 16.24 30.4008H23.626L27.1891 32.4652C27.7702 32.8016 28.443 32.9851 29.1159 32.9851C31.2414 32.9851 32.9847 31.2571 32.9847 29.1162V18.8095C32.9847 15.2617 30.0945 12.3716 26.5468 12.3716Z" fill="currentColor"/>
<path d="M3.86886 20.6292C4.54171 20.6292 5.21455 20.4457 5.79564 20.1093L9.35867 18.0449H16.7447C20.2924 18.0449 23.1826 15.1547 23.1826 11.607V6.45359C23.1826 2.90586 20.2924 0.0156854 16.7447 0.0156854H6.43791C2.89018 0.000393468 0 2.89057 0 6.4383V16.7451C0 18.8706 1.72799 20.6139 3.86886 20.6139V20.6292ZM2.58434 6.45359C2.58434 4.32801 4.31233 2.58473 6.4532 2.58473H16.76C18.8855 2.58473 20.6288 4.31272 20.6288 6.45359V11.607C20.6288 13.7326 18.9008 15.4758 16.76 15.4758H9.02224C8.79286 15.4758 8.57878 15.537 8.37998 15.644L4.51112 17.8767C4.31233 17.9837 4.09824 18.0449 3.86886 18.0449C3.16543 18.0449 2.58434 17.4638 2.58434 16.7604V6.45359Z" fill="currentColor"/>
<path d="M6.43791 10.3072C7.14733 10.3072 7.72243 9.73206 7.72243 9.02264C7.72243 8.31321 7.14733 7.73811 6.43791 7.73811C5.72848 7.73811 5.15338 8.31321 5.15338 9.02264C5.15338 9.73206 5.72848 10.3072 6.43791 10.3072Z" fill="currentColor"/>
<path d="M11.6066 10.3072C12.316 10.3072 12.8911 9.73206 12.8911 9.02264C12.8911 8.31321 12.316 7.73811 11.6066 7.73811C10.8972 7.73811 10.3221 8.31321 10.3221 9.02264C10.3221 9.73206 10.8972 10.3072 11.6066 10.3072Z" fill="currentColor"/>
<path d="M16.76 10.3072C17.4694 10.3072 18.0445 9.73206 18.0445 9.02264C18.0445 8.31321 17.4694 7.73811 16.76 7.73811C16.0505 7.73811 15.4754 8.31321 15.4754 9.02264C15.4754 9.73206 16.0505 10.3072 16.76 10.3072Z" fill="currentColor"/>
</g>
</svg>
