<svg width="34" height="27" viewBox="0 0 34 27" fill="none" xmlns="http://www.w3.org/2000/svg">
<g id="Learn">
<path d="M31.39 2.61V19.78H21.23C20.23 19.78 19.21 20.05 18.31 20.62V5.53C18.31 3.92 19.62 2.61 21.23 2.61H31.39ZM2.61 2.61H12.78C14.39 2.61 15.7 3.92 15.7 5.53V20.62C14.84 20.09 13.83 19.78 12.78 19.78H2.61V2.61ZM34 4.22V1.3C34 0.58 33.42 0 32.7 0H21.23C19.54 0 18.01 0.77 17 1.97C15.96 0.73 14.41 0 12.77 0H1.3C0.58 0 0 0.58 0 1.3V21.08C0 21.8 0.58 22.39 1.3 22.39H12.77C14.38 22.39 15.69 23.7 15.69 25.31C15.69 26.03 16.27 26.61 16.99 26.61C17.71 26.61 18.29 26.03 18.29 25.31C18.29 23.7 19.6 22.39 21.21 22.39H32.68C33.4 22.39 33.98 21.81 33.98 21.09V4.22H34Z" fill="currentColor"/>
<path d="M7.01 9.73C6.32 9.73 5.76 9.17 5.76 8.48C5.76 7.79 6.32 7.23 7.01 7.23H10.68C11.37 7.23 11.93 7.79 11.93 8.48C11.93 9.17 11.37 9.73 10.68 9.73H7.01Z" fill="currentColor"/>
<path d="M7.01 15.42C6.32 15.42 5.76 14.86 5.76 14.17C5.76 13.48 6.32 12.92 7.01 12.92H10.68C11.37 12.92 11.93 13.48 11.93 14.17C11.93 14.86 11.37 15.42 10.68 15.42H7.01Z" fill="currentColor"/>
<path d="M23.31 9.73C22.62 9.73 22.06 9.17 22.06 8.48C22.06 7.79 22.62 7.23 23.31 7.23H26.98C27.67 7.23 28.23 7.79 28.23 8.48C28.23 9.17 27.67 9.73 26.98 9.73H23.31Z" fill="currentColor"/>
<path d="M23.31 15.42C22.62 15.42 22.06 14.86 22.06 14.17C22.06 13.48 22.62 12.92 23.31 12.92H26.98C27.67 12.92 28.23 13.48 28.23 14.17C28.23 14.86 27.67 15.42 26.98 15.42H23.31Z" fill="currentColor"/>
</g>
</svg>
