<svg width="34" height="34" viewBox="0 0 34 34" fill="none" xmlns="http://www.w3.org/2000/svg">
<path id="Technology" d="M28.72 33.1C26.31 33.1 24.34 31.14 24.34 28.72C24.34 27.98 24.52 27.26 24.88 26.62L20.71 22.45C19.5 23.31 18.04 23.77 16.55 23.77C13.88 23.77 11.44 22.29 10.19 19.96L7.85 21.19C7.9 21.44 7.92 21.69 7.92 21.95C7.92 24.13 6.14 25.91 3.96 25.91C1.78 25.91 0 24.13 0 21.95C0 19.77 1.78 17.99 3.96 17.99C4.96 17.99 5.92 18.37 6.65 19.04L9.4 17.59C9.35 17.24 9.32 16.89 9.32 16.54C9.32 14.86 9.9 13.25 10.97 11.96L6.7 6.16C6.45 6.22 6.19 6.26 5.93 6.26C4.2 6.26 2.8 4.85 2.8 3.13C2.8 1.41 4.21 0 5.93 0C7.65 0 9.06 1.41 9.06 3.13C9.06 3.68 8.92 4.21 8.65 4.68L12.83 10.36C13.95 9.68 15.22 9.33 16.54 9.33C18.03 9.33 19.49 9.8 20.7 10.65L22.32 9.03C21.99 8.46 21.82 7.82 21.82 7.15C21.82 5.09 23.5 3.41 25.56 3.41C27.62 3.41 29.3 5.09 29.3 7.15C29.3 9.21 27.62 10.89 25.56 10.89C25.09 10.89 24.63 10.8 24.19 10.63L22.44 12.38C23.3 13.59 23.76 15.05 23.76 16.54C23.76 18.03 23.29 19.49 22.44 20.7L26.61 24.87C27.25 24.52 27.97 24.33 28.71 24.33C31.12 24.33 33.09 26.29 33.09 28.71C33.09 31.13 31.13 33.09 28.71 33.09L28.72 33.1ZM28.72 26.8C27.66 26.8 26.8 27.66 26.8 28.72C26.8 29.78 27.66 30.64 28.72 30.64C29.78 30.64 30.64 29.78 30.64 28.72C30.64 27.66 29.78 26.8 28.72 26.8ZM3.96 20.46C3.13 20.46 2.46 21.14 2.46 21.96C2.46 22.78 3.13 23.46 3.96 23.46C4.79 23.46 5.46 22.78 5.46 21.96C5.46 21.14 4.79 20.46 3.96 20.46ZM16.55 11.79C13.92 11.79 11.78 13.93 11.78 16.56C11.78 19.19 13.92 21.33 16.55 21.33C19.18 21.33 21.32 19.19 21.32 16.56C21.32 15.71 21.1 14.89 20.68 14.17L19.83 15.02C19.6 15.25 19.29 15.38 18.96 15.38C18.63 15.38 18.32 15.25 18.09 15.02C17.61 14.54 17.61 13.76 18.09 13.28L18.94 12.43C18.22 12.01 17.4 11.79 16.55 11.79ZM25.57 5.87C24.86 5.87 24.28 6.45 24.28 7.16C24.28 7.87 24.86 8.45 25.57 8.45C26.28 8.45 26.86 7.87 26.86 7.16C26.86 6.45 26.28 5.87 25.57 5.87ZM5.94 2.46C5.57 2.46 5.26 2.76 5.26 3.14C5.26 3.52 5.56 3.82 5.94 3.82C6.32 3.82 6.62 3.52 6.62 3.14C6.62 2.76 6.32 2.46 5.94 2.46Z" fill="currentColor"/>
</svg>
