<svg width="33" height="33" viewBox="0 0 33 33" fill="none" xmlns="http://www.w3.org/2000/svg">
<g id="Buid">
<path d="M14.47 32.41C13.35 32.41 12.43 31.5 12.43 30.37V28.38C11.68 28.15 10.95 27.85 10.26 27.48L8.86 28.88C8.48 29.26 7.96 29.48 7.42 29.48C6.88 29.48 6.37 29.27 5.98 28.88L3.53 26.43C3.15 26.05 2.93 25.53 2.93 24.99C2.93 24.45 3.14 23.93 3.53 23.55L4.93 22.15C4.56 21.45 4.26 20.72 4.03 19.98H2.04C0.92 19.98 0 19.07 0 17.94V14.47C0 13.35 0.91 12.43 2.04 12.43H4.03C4.26 11.68 4.56 10.95 4.93 10.26L3.52 8.86C2.73 8.07 2.73 6.77 3.52 5.98L5.97 3.53C6.35 3.15 6.87 2.93 7.41 2.93C7.95 2.93 8.47 3.14 8.85 3.53L10.25 4.93C10.94 4.56 11.67 4.26 12.42 4.03V2.04C12.42 0.92 13.33 0 14.46 0H17.93C19.05 0 19.97 0.91 19.97 2.04V4.03C20.72 4.26 21.45 4.56 22.14 4.93L23.54 3.53C23.92 3.15 24.44 2.93 24.98 2.93C25.52 2.93 26.04 3.14 26.42 3.53L28.87 5.98C29.66 6.77 29.66 8.07 28.87 8.86L27.46 10.26C27.83 10.95 28.13 11.68 28.36 12.43H30.35C31.47 12.43 32.39 13.34 32.39 14.47V17.94C32.39 19.06 31.48 19.98 30.35 19.98H28.36C28.13 20.73 27.82 21.46 27.46 22.15L28.87 23.55C29.25 23.93 29.47 24.45 29.47 24.99C29.47 25.53 29.26 26.04 28.87 26.43L26.42 28.88C26.04 29.26 25.52 29.48 24.98 29.48C24.44 29.48 23.92 29.27 23.54 28.88L22.14 27.48C21.45 27.85 20.72 28.15 19.97 28.38V30.37C19.97 31.49 19.06 32.41 17.93 32.41H14.46H14.47ZM17.47 29.91V27.43C17.47 26.84 17.87 26.34 18.45 26.21C19.6 25.95 20.69 25.5 21.68 24.87C21.88 24.74 22.11 24.68 22.35 24.68C22.68 24.68 23 24.81 23.23 25.05L24.99 26.81L26.79 25.01L25.03 23.25C24.61 22.83 24.54 22.19 24.86 21.7C25.49 20.71 25.94 19.62 26.2 18.47C26.33 17.89 26.83 17.49 27.42 17.49H29.9V14.95H27.42C26.83 14.95 26.33 14.55 26.2 13.97C25.94 12.82 25.49 11.73 24.86 10.74C24.54 10.24 24.62 9.6 25.03 9.19L26.79 7.43L24.99 5.63L23.23 7.39C22.99 7.63 22.68 7.76 22.35 7.76C22.11 7.76 21.88 7.69 21.68 7.57C20.68 6.94 19.6 6.49 18.45 6.23C17.87 6.1 17.47 5.6 17.47 5.01V2.53H14.93V5.01C14.93 5.6 14.53 6.1 13.95 6.23C12.8 6.49 11.71 6.94 10.72 7.57C10.52 7.7 10.29 7.76 10.05 7.76C9.72 7.76 9.4 7.63 9.17 7.39L7.41 5.63L5.61 7.43L7.36 9.19C7.78 9.61 7.85 10.25 7.53 10.74C6.9 11.74 6.45 12.83 6.19 13.97C6.06 14.55 5.56 14.95 4.97 14.95H2.49V17.49H4.97C5.56 17.49 6.06 17.89 6.19 18.47C6.45 19.62 6.9 20.71 7.53 21.7C7.85 22.2 7.78 22.84 7.36 23.25L5.61 25.01L7.41 26.81L9.17 25.05C9.41 24.81 9.72 24.68 10.05 24.68C10.29 24.68 10.52 24.75 10.72 24.87C11.72 25.5 12.8 25.95 13.95 26.21C14.53 26.34 14.93 26.84 14.93 27.43V29.91H17.47Z" fill="currentColor"/>
<path d="M16.21 24.34C14.06 24.34 11.96 23.47 10.45 21.96C8.83 20.34 7.97 18.09 8.08 15.8C8.29 11.69 11.66 8.31 15.77 8.1C15.91 8.1 16.05 8.09 16.19 8.09C18.41 8.09 20.55 9.01 22.08 10.61C23.6 12.21 24.38 14.3 24.27 16.51C24.17 18.56 23.29 20.57 21.85 22.02C21.61 22.26 21.3 22.39 20.96 22.39C20.63 22.39 20.31 22.26 20.08 22.03C19.59 21.54 19.59 20.75 20.08 20.26C21.98 18.34 22.6 14.77 20.28 12.34C19.24 11.25 17.71 10.6 16.19 10.6C16.1 10.6 16 10.6 15.91 10.6C13.07 10.75 10.73 13.09 10.59 15.93C10.51 17.55 11.09 19.06 12.23 20.2C13.29 21.26 14.7 21.85 16.21 21.85C16.31 21.85 16.51 21.85 16.51 21.85C17.24 21.85 17.78 22.37 17.82 23.04C17.84 23.37 17.72 23.69 17.5 23.94C17.28 24.19 16.97 24.33 16.64 24.35C16.51 24.35 16.37 24.36 16.24 24.36L16.21 24.34Z" fill="currentColor"/>
</g>
</svg>
