<svg width="26" height="33" viewBox="0 0 26 33" fill="none" xmlns="http://www.w3.org/2000/svg">
<path id="Getting started" d="M1.25 32.24C0.56 32.24 0 31.68 0 30.99V1.25C0 0.56 0.56 0 1.25 0C1.94 0 2.5 0.56 2.5 1.25V1.85L2.6 1.9C3.7 2.43 4.87 2.68 6.16 2.68C8.22 2.68 10.31 2.05 12.52 1.39C14.81 0.7 17.18 0 19.6 0C21.64 0 23.46 0.5 25.16 1.52C25.54 1.74 25.77 2.16 25.77 2.59V17.33C25.77 17.78 25.53 18.2 25.13 18.42C24.94 18.53 24.73 18.58 24.51 18.58C24.28 18.58 24.06 18.52 23.87 18.4C22.56 17.62 21.16 17.24 19.6 17.24C17.55 17.24 15.46 17.87 13.24 18.53C10.95 19.22 8.58 19.93 6.15 19.93C4.93 19.93 3.8 19.75 2.72 19.39L2.48 19.31V30.98C2.48 31.67 1.92 32.23 1.23 32.23L1.25 32.24ZM2.5 16.6L2.6 16.65C3.7 17.18 4.87 17.43 6.16 17.43C8.22 17.43 10.31 16.8 12.52 16.14C14.81 15.45 17.18 14.75 19.6 14.75C20.82 14.75 21.95 14.92 23.03 15.28L23.27 15.36V3.33L23.17 3.28C22.07 2.75 20.9 2.5 19.61 2.5C17.56 2.5 15.46 3.13 13.25 3.79C10.96 4.48 8.59 5.19 6.17 5.19C4.95 5.19 3.82 5.01 2.74 4.66L2.5 4.58V16.6Z" fill="currentColor"/>
</svg>
