<svg width="32" height="32" viewBox="0 0 32 32" fill="none" xmlns="http://www.w3.org/2000/svg">
<g clip-path="url(#clip0_1412_1063)">
<path d="M15.4934 14.0178C15.4934 13.4933 15.0667 13.0667 14.5423 13.0667H4.7467C4.22225 13.0667 3.79559 13.4933 3.79559 14.0178C3.79559 14.5422 4.22225 14.9689 4.7467 14.9689H14.5423C15.0667 14.9689 15.4934 14.5422 15.4934 14.0178Z" fill="#101010"/>
<path d="M4.7467 16.8711C4.22225 16.8711 3.79559 17.2978 3.79559 17.8222C3.79559 18.3467 4.22225 18.7733 4.7467 18.7733H10.6934C11.2178 18.7733 11.6445 18.3467 11.6445 17.8222C11.6445 17.2978 11.2178 16.8711 10.6934 16.8711H4.7467Z" fill="#101010"/>
<path d="M6.9867 26H3.80448C2.75559 26 1.90225 25.1467 1.90225 24.0978V7.35999C1.90225 6.3111 2.75559 5.45776 3.80448 5.45776H15.4934C16.5423 5.45776 17.3956 6.3111 17.3956 7.35999V13.2089C17.3956 13.7333 17.8223 14.16 18.3467 14.16C18.8711 14.16 19.2978 13.7333 19.2978 13.2089V7.35999C19.2978 5.26221 17.5911 3.55554 15.4934 3.55554H3.80448C1.7067 3.55554 3.05176e-05 5.26221 3.05176e-05 7.35999V24.0978C3.05176e-05 26.1955 1.7067 27.9022 3.80448 27.9022H6.9867C7.51114 27.9022 7.93781 27.4755 7.93781 26.9511C7.93781 26.4267 7.51114 26 6.9867 26Z" fill="#101010"/>
<path d="M20.9867 17.3244C19.8756 16.2133 18.0623 16.2133 16.9511 17.3244L11.7334 22.5333C11.6267 22.64 11.5378 22.7822 11.4934 22.9333L10.3556 26.6755C10.2578 27.0044 10.3467 27.3689 10.5867 27.6178C10.7645 27.8044 11.0134 27.9022 11.2711 27.9022C11.36 27.9022 11.44 27.8933 11.5289 27.8667L15.3689 26.8C15.5289 26.7555 15.6711 26.6755 15.7867 26.56L20.9956 21.36C22.1067 20.2489 22.1067 18.4355 20.9956 17.3244H20.9867ZM14.6134 25.04L12.6845 25.5733L13.2534 23.7155L16.7734 20.2044L18.1156 21.5467L14.6134 25.04ZM19.6445 20.0178L19.4578 20.2044L18.1156 18.8622L18.3023 18.6755C18.6756 18.3022 19.28 18.3022 19.6445 18.6755C20.0089 19.0489 20.0178 19.6533 19.6445 20.0178Z" fill="#101010"/>
<path d="M14.5423 9.26221H4.7467C4.22225 9.26221 3.79559 9.68888 3.79559 10.2133C3.79559 10.7378 4.22225 11.1644 4.7467 11.1644H14.5423C15.0667 11.1644 15.4934 10.7378 15.4934 10.2133C15.4934 9.68888 15.0667 9.26221 14.5423 9.26221Z" fill="#101010"/>
</g>
<defs>
<clipPath id="clip0_1412_1063">
<rect width="21.8133" height="24.3467" fill="white" transform="translate(3.05176e-05 3.55554)"/>
</clipPath>
</defs>
</svg>
