<svg width="16" height="16" viewBox="0 0 16 16" fill="none" xmlns="http://www.w3.org/2000/svg">
<path d="M4.32066 3.41602C4.05545 3.41602 3.80109 3.52137 3.61356 3.70891C3.42602 3.89645 3.32066 4.1508 3.32066 4.41602V11.1553C3.32075 11.1773 3.3165 11.199 3.30816 11.2192C3.29981 11.2395 3.28754 11.2579 3.27204 11.2734C3.25655 11.2889 3.23814 11.3012 3.21788 11.3095C3.19762 11.3179 3.17591 11.3221 3.154 11.322H2.32066C2.20247 11.3219 2.08636 11.3532 1.98425 11.4127C1.88213 11.4723 1.79768 11.5579 1.73954 11.6608C1.6814 11.7637 1.65167 11.8802 1.65339 11.9984C1.65511 12.1166 1.68822 12.2322 1.74933 12.3333L3.74933 15.6667C3.80856 15.7654 3.89235 15.8471 3.99253 15.9038C4.09271 15.9605 4.20587 15.9904 4.321 15.9904C4.43612 15.9904 4.54929 15.9605 4.64947 15.9038C4.74965 15.8471 4.83343 15.7654 4.89266 15.6667L6.89266 12.3333C6.95329 12.2322 6.98599 12.1167 6.98742 11.9988C6.98885 11.8808 6.95896 11.7646 6.90081 11.662C6.84265 11.5594 6.75831 11.474 6.65639 11.4146C6.55447 11.3553 6.43862 11.324 6.32066 11.324H5.48733C5.44313 11.324 5.40074 11.3065 5.36948 11.2752C5.33822 11.2439 5.32066 11.2016 5.32066 11.1573V4.41602C5.32066 4.1508 5.21531 3.89645 5.02777 3.70891C4.84023 3.52137 4.58588 3.41602 4.32066 3.41602Z" fill="#375BD2"/>
<path d="M11.6794 12.56C11.9446 12.56 12.199 12.4547 12.3865 12.2671C12.5741 12.0796 12.6794 11.8252 12.6794 11.56V4.82201C12.6793 4.8001 12.6836 4.77838 12.6919 4.75812C12.7003 4.73786 12.7125 4.71945 12.728 4.70396C12.7435 4.68847 12.7619 4.67619 12.7822 4.66785C12.8025 4.6595 12.8242 4.65525 12.8461 4.65534H13.6794C13.7974 4.65532 13.9133 4.62398 14.0152 4.56452C14.1171 4.50506 14.2014 4.41962 14.2595 4.31692C14.3176 4.21421 14.3474 4.09793 14.3459 3.97994C14.3443 3.86195 14.3115 3.74649 14.2507 3.64534L12.2507 0.312008C12.1871 0.219196 12.1017 0.143287 12.0021 0.0908403C11.9025 0.0383937 11.7916 0.0109863 11.6791 0.0109863C11.5665 0.0109863 11.4556 0.0383937 11.356 0.0908403C11.2564 0.143287 11.1711 0.219196 11.1074 0.312008L9.10741 3.64534C9.04662 3.74654 9.01378 3.86206 9.01226 3.98011C9.01074 4.09815 9.0406 4.21448 9.09878 4.31721C9.15695 4.41993 9.24136 4.50536 9.34338 4.56477C9.4454 4.62418 9.56136 4.65544 9.67941 4.65534H10.5127C10.5569 4.65534 10.5993 4.6729 10.6306 4.70416C10.6619 4.73541 10.6794 4.77781 10.6794 4.82201V11.56C10.6794 11.8252 10.7848 12.0796 10.9723 12.2671C11.1598 12.4547 11.4142 12.56 11.6794 12.56Z" fill="#375BD2"/>
</svg>
