<svg width="16" height="16" viewBox="0 0 16 16" fill="none" xmlns="http://www.w3.org/2000/svg">
<path d="M13.0002 0.333313H3.00016C2.29357 0.335423 1.61652 0.617053 1.11688 1.11669C0.617236 1.61633 0.335606 2.29338 0.333496 2.99998V13C0.335431 13.7066 0.617004 14.3838 1.11668 14.8835C1.61636 15.3831 2.29351 15.6647 3.00016 15.6666H13.0002C13.7068 15.6647 14.384 15.3831 14.8836 14.8835C15.3833 14.3838 15.6649 13.7066 15.6668 13V2.99998C15.6647 2.29338 15.3831 1.61633 14.8834 1.11669C14.3838 0.617053 13.7068 0.335423 13.0002 0.333313ZM12.3335 7.66665C12.3335 8.02027 12.193 8.35941 11.943 8.60946C11.6929 8.8595 11.3538 8.99998 11.0002 8.99998H7.16683C7.12263 8.99998 7.08023 9.01754 7.04898 9.0488C7.01772 9.08005 7.00016 9.12244 7.00016 9.16665V10.3333C7.0002 10.4652 6.96114 10.5941 6.88792 10.7037C6.8147 10.8133 6.71062 10.8988 6.58883 10.9493C6.46698 10.9998 6.3329 11.013 6.20355 10.9872C6.0742 10.9615 5.95539 10.8979 5.86216 10.8046L3.86216 8.80465C3.73718 8.67963 3.66697 8.51009 3.66697 8.33331C3.66697 8.15654 3.73718 7.987 3.86216 7.86198L5.86216 5.86198C5.9554 5.76877 6.07417 5.7053 6.20348 5.67959C6.33278 5.65388 6.4668 5.66708 6.5886 5.71753C6.7104 5.76797 6.81451 5.8534 6.88776 5.96301C6.96102 6.07261 7.00013 6.20148 7.00016 6.33331V7.49998C7.00007 7.52189 7.00433 7.5436 7.01267 7.56386C7.02101 7.58413 7.03329 7.60253 7.04878 7.61803C7.06428 7.63352 7.08268 7.64579 7.10294 7.65414C7.12321 7.66248 7.14492 7.66673 7.16683 7.66665H10.8335C10.8554 7.66673 10.8771 7.66248 10.8974 7.65414C10.9176 7.64579 10.9361 7.63352 10.9515 7.61803C10.967 7.60253 10.9793 7.58413 10.9877 7.56386C10.996 7.5436 11.0003 7.52189 11.0002 7.49998V5.66665C11.0002 5.48984 11.0704 5.32027 11.1954 5.19524C11.3204 5.07022 11.49 4.99998 11.6668 4.99998C11.8436 4.99998 12.0132 5.07022 12.1382 5.19524C12.2633 5.32027 12.3335 5.48984 12.3335 5.66665V7.66665Z" fill="#375BD2"/>
</svg>
