<svg width="16" height="16" viewBox="0 0 16 16" fill="none" xmlns="http://www.w3.org/2000/svg">
<path d="M14.7085 0.333313H1.29183C0.780718 0.333313 0.333496 1.04887 0.333496 1.86665V14.1333C0.333496 14.9511 0.780718 15.6666 1.29183 15.6666H14.7085C15.2196 15.6666 15.6668 14.9511 15.6668 14.1333V1.86665C15.6668 1.04887 15.2196 0.333313 14.7085 0.333313Z" fill="#375BD2"/>
<path d="M3.60965 7.61903H4.44775C4.67632 7.61903 4.90489 7.8476 4.90489 8.07617C4.90489 8.30474 4.67632 8.53331 4.44775 8.53331H3.60965C3.53346 8.53331 3.45727 8.6095 3.45727 8.68569V9.59998C3.45727 9.75236 3.60965 9.90474 3.76204 9.90474H5.28584C5.51442 9.90474 5.74299 10.1333 5.74299 10.3619C5.74299 10.5905 5.51442 10.819 5.28584 10.819H3.76204C3.00013 10.819 2.4668 10.2857 2.4668 9.59998V6.55236C2.4668 5.86665 3.00013 5.33331 3.68584 5.33331H5.20965C5.43823 5.33331 5.6668 5.56188 5.6668 5.79046C5.6668 6.01903 5.43823 6.2476 5.20965 6.2476H3.68584C3.53346 6.2476 3.38108 6.39998 3.38108 6.55236V7.39046C3.38108 7.46665 3.45727 7.61903 3.60965 7.61903Z" fill="white"/>
<path d="M13.0764 9.90474C13.3049 9.90474 13.5335 10.1333 13.5335 10.3619C13.5335 10.5905 13.3049 10.819 13.0764 10.819C11.5525 10.819 10.3335 9.59998 10.3335 8.07617C10.3335 6.55236 11.5525 5.33331 13.0764 5.33331C13.3049 5.33331 13.5335 5.56188 13.5335 5.79046C13.5335 6.01903 13.3049 6.2476 13.0764 6.2476C12.0859 6.2476 11.2478 7.08569 11.2478 8.07617C11.2478 9.06665 12.0859 9.90474 13.0764 9.90474Z" fill="white"/>
<path d="M7.54278 7.23807L8.9904 8.15236C9.67612 8.6095 9.8285 9.52379 9.37135 10.2095C9.06659 10.5905 8.60945 10.8952 8.15231 10.8952H6.85707C6.55231 10.8952 6.39992 10.6666 6.39992 10.4381C6.39992 10.1333 6.6285 9.98093 6.85707 9.98093H8.15231C8.45707 9.98093 8.68564 9.75236 8.68564 9.4476C8.68564 9.29522 8.60945 9.14284 8.45707 8.99046L7.00945 8.07617C6.32373 7.61903 6.17135 6.70474 6.6285 6.01903C6.93326 5.63808 7.3904 5.33331 7.84754 5.33331H9.14278C9.37135 5.33331 9.59993 5.56188 9.59993 5.79046C9.59993 6.01903 9.37135 6.2476 9.14278 6.2476H7.84754C7.54278 6.2476 7.31421 6.47617 7.31421 6.78093C7.31421 6.93331 7.3904 7.08569 7.54278 7.23807Z" fill="white"/>
</svg>
