<svg xmlns="http://www.w3.org/2000/svg" xmlns:xlink="http://www.w3.org/1999/xlink" viewBox="0 0 209.2 200.58"><defs><style>.cls-1{isolation:isolate;}.cls-2{fill:url(#linear-gradient);}.cls-3,.cls-4,.cls-6{mix-blend-mode:overlay;}.cls-3{fill:url(#linear-gradient-2);}.cls-12,.cls-4{fill:#fff;}.cls-5{fill:url(#linear-gradient-3);}.cls-6{fill:url(#linear-gradient-4);}.cls-14,.cls-7{fill:none;}.cls-7{stroke:#375acd;}.cls-10,.cls-11,.cls-12,.cls-7{stroke-miterlimit:10;}.cls-8{fill:url(#linear-gradient-5);}.cls-9{fill:#93a4e9;mix-blend-mode:multiply;}.cls-10{fill:#385bd0;}.cls-10,.cls-11,.cls-12{stroke:#385bd0;}.cls-11,.cls-13{fill:#dde5f9;}.cls-15{fill:#375bd2;}.cls-16{fill:#9bb2f6;opacity:0.2;}</style><linearGradient id="linear-gradient" x1="34.68" y1="131.72" x2="206.93" y2="131.72" gradientTransform="translate(-0.09 -6.71) rotate(0.02)" gradientUnits="userSpaceOnUse"><stop offset="0" stop-color="#f5f7fd"/><stop offset="0.54" stop-color="#edeffd"/><stop offset="0.71" stop-color="#e5e8f9"/><stop offset="1" stop-color="#e4e7f9"/></linearGradient><linearGradient id="linear-gradient-2" x1="132.95" y1="96.72" x2="194.64" y2="167.68" gradientTransform="translate(-0.09 -6.71) rotate(0.02)" gradientUnits="userSpaceOnUse"><stop offset="0" stop-opacity="0.8"/><stop offset="0.4" stop-opacity="0"/></linearGradient><linearGradient id="linear-gradient-3" x1="118.95" y1="6.73" x2="122.51" y2="108.71" gradientTransform="translate(-0.09 -6.71) rotate(0.02)" gradientUnits="userSpaceOnUse"><stop offset="0" stop-color="#fafbff"/><stop offset="1" stop-color="#f2f4fd"/></linearGradient><linearGradient id="linear-gradient-4" x1="209.3" y1="57.72" x2="32.16" y2="57.72" gradientTransform="translate(-0.09 -6.71) rotate(0.02)" gradientUnits="userSpaceOnUse"><stop offset="0" stop-color="#020202"/><stop offset="1" stop-color="#f2f4fd"/></linearGradient><linearGradient id="linear-gradient-5" x1="160.71" y1="99.88" x2="167.82" y2="157.83" gradientTransform="translate(-0.38 -4.02) rotate(0.08)" gradientUnits="userSpaceOnUse"><stop offset="0" stop-color="#2a5ada"/><stop offset="1" stop-color="#2a5ada" stop-opacity="0.8"/></linearGradient></defs><g class="cls-1"><g id="Layer_2" data-name="Layer 2"><g id="Layer_1-2" data-name="Layer 1"><path class="cls-2" d="M206.68,51.18l-86.07,49.49-86-49.54L34.7,146a7.37,7.37,0,0,0,3.69,6.38L117.31,198a6.91,6.91,0,0,0,6.87,0l78.93-45.54a7.4,7.4,0,0,0,3.69-6.4Z"/><polygon class="cls-3" points="120.74 200 206.8 150.34 206.68 51.18 120.61 100.67 120.74 200"/><path class="cls-4" d="M36.06,50.08l83.25-48a2.64,2.64,0,0,1,2.66,0L205.2,50.13a2.67,2.67,0,0,1,0,4.62l-83.25,47.87a2.66,2.66,0,0,1-2.66,0L36.06,54.7A2.67,2.67,0,0,1,36.06,50.08Z"/><polygon class="cls-5" points="32.05 51.11 120.64 0 209.2 51.16 120.61 102.1 32.05 51.11"/><polygon class="cls-6" points="32.05 51.11 120.64 0 209.2 51.16 120.61 102.1 32.05 51.11"/><polygon class="cls-7" points="206.31 150.54 206.34 51.56 120.64 2.05 34.91 51.51 34.88 150.49 120.58 200 206.31 150.54"/><path class="cls-8" d="M163.79,142,151,141,150.87,124l12.74-15.9,12.84,1,.09,16.93L163.79,142m-.24-46.33-4.67,5.84-12.75,15.88-4.68,5.84,0,6.22.07,17,0,6.2,4.7.4,12.84,1.05,4.71.39,4.69-5.85,12.74-15.9,4.69-5.83,0-6.23-.09-16.93,0-6.23-4.72-.37-12.83-1-4.72-.39"/><circle class="cls-9" cx="66.32" cy="60.24" r="57.23"/><circle class="cls-10" cx="59.58" cy="60.24" r="48.59"/><circle class="cls-11" cx="57.73" cy="60.24" r="57.23"/><circle class="cls-12" cx="58.01" cy="60.24" r="39.9"/><path class="cls-13" d="M83.12,13.63a52.93,52.93,0,0,1-56,89.59,52.93,52.93,0,1,0,56-89.59Z"/><circle class="cls-12" cx="58.01" cy="60.24" r="52.93"/><path class="cls-14" d="M70.64,47.69A6.61,6.61,0,0,0,77,54.11a6.53,6.53,0,1,0-6.37-6.42Z"/><path class="cls-15" d="M61.43,53.16a22.66,22.66,0,0,0-4-3.71l-3.45,2.26q-.77-.47-1.59-.87l-.57-.26-.11-4.13a23.07,23.07,0,0,0-5.35-1.2l-1.86,3.69A18,18,0,0,0,42,49l-2.15-3.52a23.28,23.28,0,0,0-5.24,1.64l.24,4.12a18.52,18.52,0,0,0-2.07,1.31l-3.62-2a22.74,22.74,0,0,0-3.72,4l2.27,3.44c-.31.52-.6,1-.87,1.6-.09.19-.18.38-.26.57l-4.13.1a23.58,23.58,0,0,0-1.21,5.36L25,67.58a18.19,18.19,0,0,0,.1,2.45l-3.52,2.15a23.61,23.61,0,0,0,1.64,5.24l4.12-.24a20.45,20.45,0,0,0,1.3,2.07l-2,3.62a22.75,22.75,0,0,0,4.05,3.71l3.44-2.26q.77.47,1.59.87l.58.26.1,4.12a22.56,22.56,0,0,0,5.36,1.21l1.85-3.69A19.83,19.83,0,0,0,46,87l2.15,3.51a22.31,22.31,0,0,0,5.24-1.64l-.24-4.11a18.52,18.52,0,0,0,2.07-1.31l3.62,2a22.4,22.4,0,0,0,3.72-4l-2.26-3.45q.46-.77.87-1.59c.09-.19.17-.38.25-.57l4.13-.1A22.67,22.67,0,0,0,66.8,70.3l-3.69-1.85A22.2,22.2,0,0,0,63,66l3.51-2.15a22.6,22.6,0,0,0-1.64-5.24l-4.11.24a22.49,22.49,0,0,0-1.31-2.07ZM55.58,74.9a13.45,13.45,0,1,1-4.66-18.43A13.46,13.46,0,0,1,55.58,74.9Z"/><path class="cls-15" d="M87.58,33.79a17.15,17.15,0,0,0-3.24-1.89L82.25,34A15.6,15.6,0,0,0,80,33.43l-.71-2.91a16.88,16.88,0,0,0-3.76,0l-.73,2.9a14.53,14.53,0,0,0-2.29.6l-2.07-2.16a17.23,17.23,0,0,0-3.26,1.87L68,36.61a14.46,14.46,0,0,0-1.67,1.65l-2.89-.83a17.11,17.11,0,0,0-1.88,3.24l2.14,2.09A14.44,14.44,0,0,0,63.06,45l-2.91.71A16.79,16.79,0,0,0,60,47.63a16.5,16.5,0,0,0,.09,1.87l2.91.74a14.53,14.53,0,0,0,.6,2.29L61.48,54.6a17.1,17.1,0,0,0,1.86,3.25L66.23,57a14.54,14.54,0,0,0,1.66,1.67l-.84,2.88a17.23,17.23,0,0,0,3.25,1.89l2.09-2.15a14.34,14.34,0,0,0,2.27.62l.72,2.91a16.61,16.61,0,0,0,1.87.11c.64,0,1.26,0,1.88-.09L79.87,62a14.41,14.41,0,0,0,2.28-.6l2.08,2.16a18,18,0,0,0,3.25-1.86l-.81-2.89a15.39,15.39,0,0,0,1.67-1.66l2.88.83a17.15,17.15,0,0,0,1.89-3.24L91,52.62a13.32,13.32,0,0,0,.61-2.27l2.92-.73a16.34,16.34,0,0,0,.11-1.87,16.61,16.61,0,0,0-.1-1.87l-2.9-.74a15.58,15.58,0,0,0-.6-2.28l2.16-2.08a17.14,17.14,0,0,0-1.87-3.25l-2.89.81a13.7,13.7,0,0,0-1.65-1.67Zm-.8,19.82a11.16,11.16,0,1,1-3.54-15.39A11.19,11.19,0,0,1,86.78,53.61Z"/><path class="cls-16" d="M37.14,79.56a13.44,13.44,0,1,0-4.66-18.44A13.46,13.46,0,0,0,37.14,79.56ZM50.43,57.29a12.49,12.49,0,1,1-17.12,4.33A12.5,12.5,0,0,1,50.43,57.29Z"/><path class="cls-16" d="M71.39,57.16a11.17,11.17,0,1,0-3.54-15.39A11.19,11.19,0,0,0,71.39,57.16ZM83,38.62A10.7,10.7,0,1,1,68.24,42,10.71,10.71,0,0,1,83,38.62Z"/><path class="cls-15" d="M61.43,53.16a22.66,22.66,0,0,0-4-3.71l-3.45,2.26q-.77-.47-1.59-.87l-.57-.26-.11-4.13a23.07,23.07,0,0,0-5.35-1.2l-1.86,3.69A18,18,0,0,0,42,49l-2.15-3.52a23.28,23.28,0,0,0-5.24,1.64l.24,4.12a18.52,18.52,0,0,0-2.07,1.31l-3.62-2a22.74,22.74,0,0,0-3.72,4l2.27,3.44c-.31.52-.6,1-.87,1.6-.09.19-.18.38-.26.57l-4.13.1a23.58,23.58,0,0,0-1.21,5.36L25,67.58a18.19,18.19,0,0,0,.1,2.45l-3.52,2.15a23.61,23.61,0,0,0,1.64,5.24l4.12-.24a20.45,20.45,0,0,0,1.3,2.07l-2,3.62a22.75,22.75,0,0,0,4.05,3.71l3.44-2.26q.77.47,1.59.87l.58.26.1,4.12a22.56,22.56,0,0,0,5.36,1.21l1.85-3.69A19.83,19.83,0,0,0,46,87l2.15,3.51a22.31,22.31,0,0,0,5.24-1.64l-.24-4.11a18.52,18.52,0,0,0,2.07-1.31l3.62,2a22.4,22.4,0,0,0,3.72-4l-2.26-3.45q.46-.77.87-1.59c.09-.19.17-.38.25-.57l4.13-.1A22.67,22.67,0,0,0,66.8,70.3l-3.69-1.85A22.2,22.2,0,0,0,63,66l3.51-2.15a22.6,22.6,0,0,0-1.64-5.24l-4.11.24a22.49,22.49,0,0,0-1.31-2.07ZM55.58,74.9a13.45,13.45,0,1,1-4.66-18.43A13.46,13.46,0,0,1,55.58,74.9Z"/><path class="cls-16" d="M37.14,79.56a13.44,13.44,0,1,0-4.66-18.44A13.46,13.46,0,0,0,37.14,79.56ZM50.43,57.29a12.49,12.49,0,1,1-17.12,4.33A12.5,12.5,0,0,1,50.43,57.29Z"/><path class="cls-14" d="M70.64,47.69A6.61,6.61,0,0,0,77,54.11a6.53,6.53,0,1,0-6.37-6.42Z"/><path class="cls-15" d="M87.58,33.79a17.15,17.15,0,0,0-3.24-1.89L82.25,34A15.6,15.6,0,0,0,80,33.43l-.71-2.91a16.88,16.88,0,0,0-3.76,0l-.73,2.9a14.53,14.53,0,0,0-2.29.6l-2.07-2.16a17.23,17.23,0,0,0-3.26,1.87L68,36.61a14.46,14.46,0,0,0-1.67,1.65l-2.89-.83a17.11,17.11,0,0,0-1.88,3.24l2.14,2.09A14.44,14.44,0,0,0,63.06,45l-2.91.71A16.79,16.79,0,0,0,60,47.63a16.5,16.5,0,0,0,.09,1.87l2.91.74a14.53,14.53,0,0,0,.6,2.29L61.48,54.6a17.1,17.1,0,0,0,1.86,3.25L66.23,57a14.54,14.54,0,0,0,1.66,1.67l-.84,2.88a17.23,17.23,0,0,0,3.25,1.89l2.09-2.15a14.34,14.34,0,0,0,2.27.62l.72,2.91a16.61,16.61,0,0,0,1.87.11c.64,0,1.26,0,1.88-.09L79.87,62a14.41,14.41,0,0,0,2.28-.6l2.08,2.16a18,18,0,0,0,3.25-1.86l-.81-2.89a15.39,15.39,0,0,0,1.67-1.66l2.88.83a17.15,17.15,0,0,0,1.89-3.24L91,52.62a13.32,13.32,0,0,0,.61-2.27l2.92-.73a16.34,16.34,0,0,0,.11-1.87,16.61,16.61,0,0,0-.1-1.87l-2.9-.74a15.58,15.58,0,0,0-.6-2.28l2.16-2.08a17.14,17.14,0,0,0-1.87-3.25l-2.89.81a13.7,13.7,0,0,0-1.65-1.67Zm-.8,19.82a11.16,11.16,0,1,1-3.54-15.39A11.19,11.19,0,0,1,86.78,53.61Z"/><path class="cls-16" d="M71.39,57.16a11.17,11.17,0,1,0-3.54-15.39A11.19,11.19,0,0,0,71.39,57.16ZM83,38.62A10.7,10.7,0,1,1,68.24,42,10.71,10.71,0,0,1,83,38.62Z"/></g></g></g></svg>